<svg width="284" height="288" viewBox="0 0 284 288" fill="none" xmlns="http://www.w3.org/2000/svg">
<g clip-path="url(#clip0_1166_2514)">
<path d="M257.48 19.973H93.5758V245.254H257.48V19.973Z" fill="#F5F5F5"/>
<path d="M257.48 19.973H93.5758V32.2192H257.48V19.973Z" fill="#E0E0E0"/>
<path d="M101.007 26.0892C101.007 26.9955 100.266 27.7358 99.3599 27.7358C98.4535 27.7358 97.7132 26.9955 97.7132 26.0892C97.7132 25.1828 98.4535 24.4425 99.3599 24.4425C100.273 24.4425 101.007 25.1828 101.007 26.0892Z" fill="#F5F5F5"/>
<path d="M113.343 25.7364C113.343 26.6427 112.602 27.383 111.696 27.383C110.79 27.383 110.049 26.6427 110.049 25.7364C110.049 24.83 110.79 24.0897 111.696 24.0897C112.609 24.0897 113.343 24.83 113.343 25.7364Z" fill="#F5F5F5"/>
<path d="M107.476 25.7364C107.476 26.6427 106.735 27.383 105.829 27.383C104.923 27.383 104.182 26.6427 104.182 25.7364C104.182 24.83 104.923 24.0897 105.829 24.0897C106.735 24.0897 107.476 24.83 107.476 25.7364Z" fill="#F5F5F5"/>
<path d="M275.123 43.3375C275.123 43.3375 268.592 40.6323 264.219 55.8397C259.84 71.054 258.712 79.5502 258.712 79.5502C258.712 79.5502 257.411 82.8089 255.045 81.3006C252.686 79.7923 248.915 74.9423 245.719 76.5613C242.398 78.2425 242.003 82.3868 243.788 88.0187C245.573 93.6505 249.033 106.132 249.337 107.26C249.642 108.367 249.316 110.152 247.545 109.377C245.774 108.602 234.835 100.32 231.217 105.751C227.599 111.176 235.147 126.051 235.942 127.691C236.738 129.33 236.544 130.14 235.804 130.721C235.064 131.309 231.653 128.175 228.443 125.947C225.232 123.719 221.123 121.699 219.296 125.006C217.469 128.313 218.999 140.269 233.95 157.282L241.394 164.713L251.641 162.132C273.228 155.276 280.707 145.825 280.852 142.047C280.997 138.276 276.431 137.882 272.536 138.138C268.64 138.394 264.095 139.307 263.77 138.429C263.438 137.543 263.687 136.754 265.216 135.758C266.745 134.762 280.887 125.919 280.582 119.402C280.285 112.885 266.641 114.338 264.724 114.082C262.808 113.826 263.451 112.13 264.282 111.342C265.126 110.532 274.528 101.628 278.963 97.7257C283.398 93.8235 285.197 90.0666 283.225 86.9117C281.322 83.8674 275.587 86.0814 272.792 86.1576C269.99 86.2337 270.557 82.7674 270.557 82.7674C270.557 82.7674 273.975 74.9008 278.078 59.6173C282.18 44.3338 275.006 43.2891 275.006 43.2891" fill="#EBEBEB"/>
<path d="M271.18 56.9536C271.18 56.9536 271.166 57.0643 271.11 57.2788C271.055 57.5071 270.972 57.8185 270.875 58.2267C270.654 59.0707 270.342 60.2884 269.934 61.8521C269.118 65.0001 267.893 69.5388 266.364 75.1499C263.313 86.3651 258.961 101.828 254.104 118.883C249.24 135.945 244.854 151.394 241.74 162.589C240.191 168.179 238.938 172.704 238.067 175.852C237.631 177.402 237.299 178.619 237.063 179.457C236.946 179.858 236.856 180.169 236.793 180.391C236.731 180.598 236.69 180.709 236.69 180.709C236.69 180.709 236.704 180.598 236.759 180.384C236.814 180.155 236.89 179.844 236.994 179.436C237.216 178.592 237.527 177.374 237.935 175.81C238.751 172.662 239.976 168.124 241.505 162.513C244.556 151.297 248.908 135.834 253.772 118.772C258.629 101.718 263.022 86.2683 266.136 75.0738C267.686 69.4834 268.938 64.9586 269.81 61.8106C270.246 60.2538 270.578 59.0431 270.813 58.2059C270.93 57.8046 271.02 57.4933 271.083 57.2719C271.138 57.0574 271.18 56.9536 271.18 56.9536Z" fill="#E0E0E0"/>
<path d="M250.721 83.5631C250.742 83.5492 250.887 83.7845 251.122 84.2134C251.364 84.6424 251.69 85.2651 252.084 86.0469C252.873 87.6036 253.91 89.7899 255.004 92.2184C256.069 94.6123 257.038 96.7779 257.778 98.4522C258.11 99.1925 258.394 99.8221 258.629 100.334C258.83 100.777 258.933 101.033 258.913 101.04C258.892 101.054 258.747 100.818 258.504 100.396C258.269 99.9674 257.937 99.3447 257.55 98.556C256.775 96.9854 255.772 94.7922 254.671 92.3637C253.585 89.9767 252.61 87.825 251.849 86.1576C251.51 85.4173 251.226 84.7946 250.991 84.2757C250.797 83.826 250.693 83.5769 250.721 83.5631Z" fill="#E0E0E0"/>
<path d="M259.895 101.033C259.847 100.943 264.254 98.6113 269.727 95.823C275.206 93.0348 279.676 90.8485 279.724 90.9315C279.773 91.0214 275.365 93.353 269.893 96.1413C264.413 98.9365 259.937 101.123 259.895 101.033Z" fill="#E0E0E0"/>
<path d="M251.247 126.895C251.24 126.867 251.51 126.805 252.001 126.708C252.568 126.598 253.26 126.466 254.076 126.307C255.827 125.968 258.242 125.497 260.884 124.875C263.534 124.259 265.907 123.622 267.623 123.152C268.426 122.931 269.104 122.744 269.657 122.599C270.142 122.467 270.412 122.412 270.419 122.432C270.425 122.453 270.169 122.564 269.699 122.73C269.228 122.896 268.544 123.131 267.693 123.394C265.991 123.934 263.617 124.612 260.961 125.221C258.311 125.843 255.875 126.279 254.118 126.549C253.232 126.681 252.52 126.784 252.022 126.833C251.53 126.902 251.254 126.923 251.247 126.895Z" fill="#E0E0E0"/>
<path d="M239.471 112.919C239.492 112.905 239.672 113.078 239.99 113.417C240.308 113.749 240.758 114.241 241.311 114.856C242.412 116.081 243.92 117.79 245.56 119.693C247.206 121.595 248.68 123.332 249.732 124.598C250.257 125.235 250.679 125.747 250.963 126.113C251.247 126.473 251.399 126.681 251.378 126.701C251.357 126.715 251.178 126.542 250.859 126.203C250.541 125.871 250.091 125.38 249.538 124.764C248.438 123.539 246.929 121.831 245.29 119.928C243.643 118.025 242.169 116.296 241.118 115.023C240.592 114.386 240.17 113.874 239.886 113.507C239.603 113.148 239.45 112.94 239.471 112.919Z" fill="#E0E0E0"/>
<path d="M228.934 134.782C228.955 134.768 229.183 134.997 229.591 135.426C230.041 135.91 230.608 136.526 231.286 137.266C232.705 138.83 234.649 141.002 236.78 143.417C238.911 145.832 240.827 148.039 242.197 149.644C242.84 150.412 243.38 151.048 243.809 151.56C244.183 152.017 244.383 152.28 244.363 152.294C244.342 152.307 244.113 152.079 243.705 151.65C243.256 151.166 242.688 150.55 242.01 149.81C240.592 148.246 238.648 146.074 236.517 143.659C234.386 141.244 232.469 139.044 231.099 137.439C230.456 136.671 229.916 136.035 229.487 135.523C229.114 135.059 228.92 134.796 228.934 134.782Z" fill="#E0E0E0"/>
<path d="M244.114 151.761C244.107 151.733 244.446 151.643 245.061 151.498C245.746 151.339 246.618 151.138 247.67 150.896C249.87 150.391 252.914 149.678 256.249 148.807C259.584 147.935 262.587 147.07 264.752 146.427C265.783 146.122 266.648 145.866 267.319 145.672C267.928 145.499 268.267 145.41 268.274 145.437C268.281 145.458 267.955 145.589 267.36 145.811C266.765 146.025 265.901 146.323 264.821 146.676C262.67 147.381 259.674 148.288 256.332 149.159C252.99 150.038 249.932 150.709 247.718 151.152C246.611 151.373 245.705 151.54 245.082 151.636C244.466 151.74 244.12 151.789 244.114 151.761Z" fill="#E0E0E0"/>
<path d="M51.0048 17.9458C52.8176 16.9011 55.08 16.825 57.0795 17.4269C59.079 18.0288 60.8433 19.2534 62.3723 20.6787C65.3335 23.4393 67.2293 27.6874 68.3501 31.5757C63.9636 32.5374 59.3627 30.0951 57.1002 28.7113C53.5302 26.5181 48.4172 20.395 51.0048 17.9458Z" fill="#EBEBEB"/>
<path d="M76.0229 32.3575C73.8781 31.4442 72.439 29.1956 72.2246 26.8709C72.017 24.5463 72.9372 22.1939 74.4662 20.4296C75.1719 19.6132 76.1198 18.866 77.1991 18.9006C78.2093 18.9282 79.1018 19.6685 79.5377 20.5818C79.9805 21.4882 80.0358 22.5398 79.9528 23.543C79.683 26.9955 78.7904 30.2888 76.0229 32.3575Z" fill="#EBEBEB"/>
<path d="M82.8932 43.3859C82.8725 43.3997 82.6649 43.1922 82.2982 42.8047C81.9385 42.4104 81.4196 41.8361 80.8107 41.1027C79.5999 39.636 77.9879 37.4981 76.784 34.8136C75.5663 32.1291 75.2411 29.3893 75.4902 27.4797C75.6009 26.525 75.8085 25.7639 76.0022 25.2658C76.1959 24.7607 76.3343 24.5047 76.3551 24.5116C76.4312 24.5324 75.9053 25.6186 75.7462 27.5074C75.5663 29.3824 75.9261 32.0392 77.1161 34.6683C78.2992 37.3113 79.8559 39.4422 81.0114 40.9505C81.5649 41.6493 82.0284 42.2443 82.402 42.7217C82.741 43.1299 82.914 43.3721 82.8932 43.3859Z" fill="#E0E0E0"/>
<path d="M55.3152 22.263C55.3221 22.2561 55.4328 22.3115 55.6265 22.436C55.8549 22.5882 56.1385 22.7681 56.4845 22.9895C57.2248 23.4738 58.2833 24.2003 59.5841 25.1066C62.1855 26.9193 65.721 29.5069 69.547 32.4612C73.3731 35.4155 76.7771 38.1692 79.2263 40.1825C80.4094 41.1719 81.385 41.9814 82.1114 42.5833C82.4228 42.8532 82.6718 43.0746 82.8794 43.2545C83.0524 43.4136 83.1423 43.4966 83.1354 43.5035C83.1285 43.5104 83.0247 43.4482 82.8379 43.3098C82.6165 43.1438 82.3536 42.9431 82.0215 42.694C81.2812 42.1129 80.2849 41.331 79.0672 40.3832C76.5764 38.4252 73.1517 35.7061 69.3256 32.7518C65.4996 29.7975 61.9918 27.1892 59.4388 25.3211C58.1934 24.4148 57.1694 23.6675 56.4084 23.114C56.0832 22.8719 55.8133 22.6712 55.5919 22.5052C55.3982 22.353 55.3083 22.2769 55.3152 22.263Z" fill="#E0E0E0"/>
<path d="M74.5354 38.7435C70.232 36.3565 64.7523 36.225 60.3382 38.4114C59.2174 38.9649 58.0273 39.9127 58.1173 41.165C58.2072 42.4173 59.5287 43.1853 60.7256 43.5451C65.7279 45.0533 71.5742 43.1645 74.743 39.0133" fill="#EBEBEB"/>
<path d="M63.6938 40.3901C63.6799 40.3694 63.929 40.2241 64.3926 39.9819C64.6209 39.8574 64.9046 39.7121 65.2574 39.5875C65.6034 39.4561 65.9908 39.2831 66.4405 39.1655C66.8902 39.0271 67.3815 38.8888 67.9211 38.7988C68.4608 38.6743 69.042 38.6328 69.6577 38.5567C70.8893 38.4805 72.2592 38.5151 73.6706 38.7435C75.082 38.9787 76.3827 39.3869 77.5312 39.8435C78.6728 40.314 79.6553 40.8398 80.4371 41.3518C80.8384 41.5871 81.1705 41.8569 81.468 42.0714C81.7724 42.2858 82.0146 42.4934 82.2083 42.6664C82.6027 43.0123 82.8102 43.206 82.7895 43.2268C82.7411 43.2821 81.8831 42.5142 80.2987 41.5732C79.51 41.0958 78.5275 40.6046 77.3998 40.1549C76.2651 39.7259 74.9852 39.3316 73.6014 39.1032C72.2177 38.8818 70.8823 38.8334 69.6716 38.8888C69.0696 38.951 68.4954 38.9787 67.9626 39.0894C67.4299 39.1655 66.9387 39.2831 66.4959 39.4077C64.7385 39.8989 63.7284 40.4593 63.6938 40.3901Z" fill="#E0E0E0"/>
<path d="M273.553 278.976C273.553 279.072 212.35 279.155 136.866 279.155C61.3622 279.155 0.166077 279.072 0.166077 278.976C0.166077 278.879 61.3553 278.796 136.866 278.796C212.35 278.796 273.553 278.879 273.553 278.976Z" fill="#263238"/>
<path d="M32.7533 70.4036C32.7533 70.4036 32.8502 70.5282 33.03 70.7773C33.2099 71.0402 33.4659 71.3999 33.7842 71.8704C34.4484 72.839 35.4101 74.2435 36.6347 76.0424C36.6624 76.0839 36.6485 76.1324 36.6139 76.16C36.6001 76.1669 36.5794 76.1739 36.5655 76.1739C34.4207 76.1739 31.7639 76.1739 28.692 76.1808H28.5951C28.5398 76.1808 28.4914 76.1323 28.4914 76.077C28.4914 76.0562 28.4983 76.0424 28.5052 76.0216L28.6851 76.1739C26.7617 77.9174 24.1741 79.4533 21.0676 80.166C19.5178 80.5188 17.8573 80.6987 16.1483 80.5603C14.4463 80.4566 12.6751 80.1314 10.9801 79.4464C9.28497 78.7822 7.63831 77.8344 6.15078 76.6097C4.67017 75.3851 3.38329 73.8492 2.35932 72.1195C0.318292 68.667 -0.532712 64.3013 0.304454 60.0809C1.09319 56.1441 3.25183 52.6363 6.15078 50.2217C9.06357 47.8209 12.6267 46.4441 16.0861 46.2711C19.5524 46.029 22.8595 46.9146 25.544 48.409C28.2146 49.945 30.3179 52.0137 31.6809 54.2484C33.0716 56.4693 33.8119 58.7663 34.1094 60.8143C34.144 61.0703 34.1855 61.3193 34.2201 61.5684C34.2547 61.8175 34.2477 62.0666 34.2616 62.3018C34.2754 62.7861 34.3238 63.2428 34.31 63.6925C34.2962 64.5781 34.2062 65.3876 34.0886 66.1071C33.8465 67.5462 33.4867 68.6255 33.2099 69.3382C33.0716 69.691 32.9539 69.9678 32.8709 70.1338C32.8086 70.3068 32.7602 70.4036 32.7533 70.4036C32.7464 70.4036 32.781 70.3137 32.8502 70.1269C32.9263 69.9401 33.03 69.6703 33.1546 69.3105C33.4106 68.5909 33.7496 67.5116 33.9641 66.0864C34.0679 65.3737 34.1509 64.5711 34.1509 63.6925C34.1578 63.2497 34.1094 62.793 34.0886 62.3226C34.0679 62.0873 34.0748 61.8383 34.0402 61.5961C33.9987 61.3539 33.9641 61.1049 33.9226 60.8489C33.6112 58.8286 32.864 56.5662 31.4802 54.3937C30.1242 52.2005 28.0416 50.1733 25.4125 48.6788C22.7696 47.2259 19.5178 46.368 16.1207 46.617C12.7236 46.7969 9.23653 48.1461 6.38602 50.5054C3.54934 52.8785 1.43913 56.3171 0.664228 60.1639C-0.159101 64.2944 0.671147 68.5702 2.66374 71.9534C3.66004 73.6485 4.91925 75.1499 6.36526 76.3607C7.81819 77.5645 9.43026 78.4986 11.0908 79.1558C12.7512 79.8339 14.4809 80.159 16.1553 80.2697C17.8365 80.4081 19.4693 80.2352 20.9915 79.9031C24.0495 79.2112 26.6025 77.7167 28.5121 76.0147C28.5605 75.9732 28.6367 75.9732 28.6851 76.0216C28.7197 76.0632 28.7266 76.1254 28.6989 76.1669L28.519 76.0147C28.7128 75.9455 28.7819 75.9801 28.8857 75.9663L29.1763 75.9594C29.37 75.9594 29.5568 75.9594 29.7436 75.9525C30.1173 75.9525 30.4909 75.9525 30.8506 75.9525C31.5702 75.9594 32.269 75.9594 32.9332 75.9663C34.2616 75.9801 35.4724 76.0009 36.5517 76.0078L36.4825 76.1393C35.2786 74.3058 34.3377 72.8805 33.6873 71.8912C33.3829 71.4207 33.1407 71.054 32.9747 70.7842C32.8225 70.5282 32.7533 70.4036 32.7533 70.4036Z" fill="#263238"/>
<path d="M18.5076 62.2671C19.7807 61.7344 20.687 60.4198 20.7008 58.87C20.7078 56.8428 19.1718 55.1893 17.2692 55.1754C15.3665 55.1685 13.8167 56.8083 13.8098 58.8354C13.8029 60.3991 14.7161 61.7275 16.003 62.2671C10.6964 63.0628 10.9385 68.833 10.9385 68.833L23.4822 68.8884C23.4822 68.8884 23.7658 63.0628 18.5076 62.2671Z" fill="#779FFF"/>
<path d="M244.231 0.296143H80.3265V225.577H244.231V0.296143Z" fill="#FAFAFA"/>
<path d="M216.667 114.87H146.345V126.577H216.667V114.87Z" fill="#EBEBEB"/>
<path d="M153.243 123.533C152.005 123.533 151.001 122.529 151.001 121.291C151.001 120.052 152.005 119.049 153.243 119.049C154.481 119.049 155.485 120.052 155.485 121.291C155.485 122.529 154.474 123.533 153.243 123.533ZM153.243 119.222C152.101 119.222 151.174 120.149 151.174 121.291C151.174 122.432 152.101 123.36 153.243 123.36C154.385 123.36 155.312 122.432 155.312 121.291C155.312 120.149 154.385 119.222 153.243 119.222Z" fill="#263238"/>
<path d="M201.861 121.478C201.861 121.574 192.521 121.658 181.001 121.658C169.474 121.658 160.141 121.574 160.141 121.478C160.141 121.381 169.481 121.298 181.001 121.298C192.521 121.298 201.861 121.381 201.861 121.478Z" fill="#263238"/>
<path d="M244.231 19.9385H80.3265V61.9282H244.231V19.9385Z" fill="#263238"/>
<path d="M244.231 0.296143H80.3265V12.5423H244.231V0.296143Z" fill="#455A64"/>
<path d="M86.1105 8.0659C87.0199 8.0659 87.7572 7.32866 87.7572 6.41924C87.7572 5.50982 87.0199 4.77258 86.1105 4.77258C85.2011 4.77258 84.4639 5.50982 84.4639 6.41924C84.4639 7.32866 85.2011 8.0659 86.1105 8.0659Z" fill="#263238"/>
<path d="M100.093 6.06634C100.093 6.97269 99.353 7.71299 98.4466 7.71299C97.5403 7.71299 96.8 6.97269 96.8 6.06634C96.8 5.15998 97.5403 4.41968 98.4466 4.41968C99.353 4.41968 100.093 5.15306 100.093 6.06634Z" fill="#263238"/>
<path d="M94.2262 6.06634C94.2262 6.97269 93.4859 7.71299 92.5795 7.71299C91.6732 7.71299 90.9329 6.97269 90.9329 6.06634C90.9329 5.15998 91.6732 4.41968 92.5795 4.41968C93.4928 4.41968 94.2262 5.15306 94.2262 6.06634Z" fill="#263238"/>
<path d="M244.231 12.5422H80.3265V19.9384H244.231V12.5422Z" fill="#E0E0E0"/>
<path d="M136.652 89.6239C136.652 89.7207 131.165 89.8037 124.399 89.8037C117.625 89.8037 112.139 89.7207 112.139 89.6239C112.139 89.527 117.625 89.444 124.399 89.444C131.165 89.444 136.652 89.527 136.652 89.6239Z" fill="#263238"/>
<path d="M136.652 95.3802C136.652 95.4771 131.165 95.5601 124.399 95.5601C117.625 95.5601 112.139 95.4771 112.139 95.3802C112.139 95.2833 117.625 95.2003 124.399 95.2003C131.165 95.2003 136.652 95.2833 136.652 95.3802Z" fill="#263238"/>
<path d="M126.045 100.14C126.045 100.237 122.932 100.32 119.092 100.32C115.252 100.32 112.139 100.237 112.139 100.14C112.139 100.043 115.252 99.9604 119.092 99.9604C122.932 99.9604 126.045 100.043 126.045 100.14Z" fill="#263238"/>
<path d="M216.978 69.1859H147.044V87.6243H216.978V69.1859Z" fill="#EBEBEB"/>
<path d="M156.875 96.5011C156.875 98.5075 155.249 100.14 153.236 100.14C151.23 100.14 149.597 98.5144 149.597 96.5011C149.597 94.4877 151.223 92.8618 153.236 92.8618C155.249 92.8618 156.875 94.4946 156.875 96.5011Z" fill="#E0E0E0"/>
<path d="M216.667 93.8928C216.667 93.9896 204.954 94.0727 190.507 94.0727C176.054 94.0727 164.341 93.9896 164.341 93.8928C164.341 93.7959 176.054 93.7129 190.507 93.7129C204.954 93.7129 216.667 93.789 216.667 93.8928Z" fill="#263238"/>
<path d="M191.476 99.0817C191.476 99.1786 185.401 99.2616 177.908 99.2616C170.415 99.2616 164.341 99.1786 164.341 99.0817C164.341 98.9849 170.415 98.9019 177.908 98.9019C185.401 98.9019 191.476 98.9849 191.476 99.0817Z" fill="#263238"/>
<path d="M216.667 104.97H202.746V106.886H216.667V104.97Z" fill="#779FFF"/>
<path d="M216.667 149.568H202.746V151.484H216.667V149.568Z" fill="#779FFF"/>
<path d="M202.746 132.43C202.746 132.527 190.556 132.61 175.528 132.61C160.494 132.61 148.303 132.527 148.303 132.43C148.303 132.333 160.487 132.25 175.528 132.25C190.563 132.25 202.746 132.333 202.746 132.43Z" fill="#263238"/>
<path d="M202.746 137.1C202.746 137.197 190.556 137.28 175.528 137.28C160.494 137.28 148.303 137.197 148.303 137.1C148.303 137.003 160.487 136.92 175.528 136.92C190.563 136.92 202.746 137.003 202.746 137.1Z" fill="#263238"/>
<path d="M202.746 141.77C202.746 141.867 190.556 141.95 175.528 141.95C160.494 141.95 148.303 141.867 148.303 141.77C148.303 141.673 160.487 141.59 175.528 141.59C190.563 141.59 202.746 141.673 202.746 141.77Z" fill="#263238"/>
<path d="M165.8 150.177C165.8 150.273 162.002 150.356 157.311 150.356C152.62 150.356 148.822 150.273 148.822 150.177C148.822 150.08 152.62 149.997 157.311 149.997C162.002 149.997 165.8 150.08 165.8 150.177Z" fill="#263238"/>
<path d="M216.667 161.959H146.345V204.067H216.667V161.959Z" fill="#455A64"/>
<path d="M146.345 204.067L175.528 184.971L184.474 191.336L202.746 179.097L216.667 189.869V204.067H146.345Z" fill="#263238"/>
<path d="M186.487 181.429C189.239 181.429 191.469 179.198 191.469 176.447C191.469 173.696 189.239 171.466 186.487 171.466C183.736 171.466 181.506 173.696 181.506 176.447C181.506 179.198 183.736 181.429 186.487 181.429Z" fill="#263238"/>
<path d="M118.013 110.816H110.686V118.143H118.013V110.816Z" fill="#E0E0E0"/>
<path d="M126.924 110.816H119.597V118.143H126.924V110.816Z" fill="#EBEBEB"/>
<path d="M135.905 110.816H128.578V118.143H135.905V110.816Z" fill="#EBEBEB"/>
<path d="M118.013 119.568H110.686V126.895H118.013V119.568Z" fill="#EBEBEB"/>
<path d="M126.924 119.568H119.597V126.895H126.924V119.568Z" fill="#F5F5F5"/>
<path d="M135.905 119.568H128.578V126.895H135.905V119.568Z" fill="#E0E0E0"/>
<path d="M118.013 128.327H110.686V135.654H118.013V128.327Z" fill="#E0E0E0"/>
<path d="M126.924 128.327H119.597V135.654H126.924V128.327Z" fill="#EBEBEB"/>
<path d="M135.905 128.327H128.578V135.654H135.905V128.327Z" fill="#E0E0E0"/>
<path d="M144.549 29.3491L103.901 29.5975L104.15 70.2451L144.797 69.9967L144.549 29.3491Z" fill="#779FFF"/>
<path opacity="0.2" d="M132.964 50.6714C132.687 50.9758 132.715 51.4532 133.019 51.7231C133.324 51.9998 133.801 51.9721 134.071 51.6677C134.348 51.3633 134.32 50.8859 134.016 50.6161C133.711 50.3393 133.234 50.367 132.964 50.6714Z" fill="black"/>
<path opacity="0.2" d="M134.742 49.8827C134.528 49.7097 134.147 49.5367 133.711 49.5367C133.269 49.5367 132.895 49.7028 132.674 49.8688C132.452 50.0418 132.369 50.2009 132.411 50.2425C132.487 50.3324 132.999 49.9519 133.711 49.9657C134.417 49.9657 134.929 50.3532 135.005 50.2632C135.04 50.2217 134.964 50.0556 134.742 49.8827Z" fill="black"/>
<path opacity="0.2" d="M126.391 50.9274C126.038 50.7129 125.582 50.8236 125.367 51.1765C125.153 51.5293 125.264 51.986 125.616 52.2004C125.969 52.4149 126.426 52.3042 126.64 51.9514C126.862 51.5985 126.744 51.1419 126.391 50.9274Z" fill="black"/>
<path opacity="0.2" d="M127.056 50.5538C126.841 50.3809 126.467 50.2079 126.025 50.2079C125.582 50.2079 125.208 50.3739 124.987 50.54C124.765 50.713 124.682 50.8721 124.724 50.9136C124.8 51.0035 125.312 50.623 126.025 50.6368C126.73 50.6368 127.242 51.0243 127.318 50.9343C127.353 50.8928 127.277 50.7268 127.056 50.5538Z" fill="black"/>
<path opacity="0.2" d="M131.352 54.2276C130.563 52.1797 129.844 50.5607 129.74 50.5953C129.636 50.6368 130.19 52.325 130.972 54.366C131.165 54.8641 131.352 55.3346 131.539 55.7982C131.636 56.0196 131.705 56.2133 131.677 56.3309C131.663 56.4278 131.518 56.4762 131.331 56.4969C130.619 56.6007 130.183 56.6907 130.19 56.746C130.197 56.8014 130.639 56.8083 131.359 56.7806C131.449 56.7737 131.553 56.7737 131.677 56.7391C131.802 56.7045 131.947 56.5938 131.995 56.4416C132.092 56.1372 131.961 55.8881 131.892 55.6736C131.712 55.2031 131.532 54.7258 131.352 54.2276Z" fill="black"/>
<path opacity="0.1" d="M123.949 63.5679C123.949 63.5679 125.554 67.2556 130.681 66.7643L130.667 66.0379L130.66 65.5051V65.4359C130.667 65.4359 127.415 65.7196 123.949 63.5679Z" fill="white"/>
<path opacity="0.2" d="M135.047 44.5829C135.026 44.5967 134.998 44.6175 134.977 44.6244L134.943 44.5967C133.974 45.0049 131.442 45.7729 128.156 44.4514C125.388 43.3375 122.233 42.9362 121.59 43.5243C120.946 44.1124 121.022 46.8661 118.449 47.8831C118.449 47.8831 119.03 52.9684 117.016 53.0722L117.01 53.0791C116.996 53.0929 116.982 53.0998 116.968 53.1068C116.913 51.9444 116.864 50.8651 116.864 50.8651C116.843 50.8582 116.684 50.8097 116.442 50.7682C116.062 50.706 115.487 50.6645 114.934 50.8167C114.131 51.045 113.391 51.6953 113.453 53.3489C113.557 56.1233 115.764 56.1718 116.684 56.0196L117.349 70.1407L130.695 70.0577C130.743 68.9783 130.729 68.2104 130.702 67.2556L130.681 66.7436C125.554 67.2348 123.949 63.5471 123.949 63.5471C127.415 65.6919 130.66 65.4083 130.66 65.4083V65.4775C130.757 65.4636 135.787 64.5988 135.822 59.5066C135.849 55.7013 135.317 48.1668 135.047 44.5829ZM115.861 54.8088C115.757 54.8987 115.557 54.9748 115.308 54.9264C114.796 54.8019 114.408 54.1515 114.36 53.4458C114.339 53.086 114.408 52.7401 114.533 52.4564C114.643 52.1727 114.879 51.9167 115.148 51.8891C115.28 51.8683 115.404 51.9029 115.487 51.9652C115.57 52.0274 115.619 52.1105 115.633 52.1797C115.667 52.325 115.605 52.3941 115.591 52.3872C115.57 52.3803 115.591 52.3111 115.543 52.2143C115.494 52.1174 115.363 52.0136 115.176 52.062C114.989 52.1036 114.83 52.2904 114.733 52.5463C114.63 52.8023 114.574 53.1068 114.595 53.4319C114.636 54.0616 114.969 54.6427 115.349 54.7673C115.536 54.8295 115.709 54.788 115.806 54.7396C115.909 54.6912 115.951 54.6289 115.965 54.6427C115.986 54.6358 115.972 54.7119 115.861 54.8088ZM133.109 48.3536C134.12 48.2983 134.825 48.7964 134.735 48.9624C134.652 49.1493 133.967 49.0247 133.151 49.0731C132.335 49.1077 131.663 49.3015 131.56 49.1285C131.449 48.9624 132.099 48.402 133.109 48.3536ZM123.665 48.5058C123.679 48.3052 124.399 48.2014 125.25 48.1668C125.54 48.153 125.845 48.1391 126.315 48.1184C126.585 48.1045 126.765 48.0907 126.82 48.1806C126.876 48.2567 126.751 48.4505 126.461 48.6096C126.177 48.7618 125.748 48.8725 125.291 48.8933C124.357 48.9279 123.652 48.6995 123.665 48.5058ZM126.647 51.9513C126.433 52.3042 125.976 52.4149 125.623 52.2004C125.271 51.9859 125.16 51.5293 125.374 51.1764C125.589 50.8236 126.045 50.7129 126.398 50.9274C126.744 51.1418 126.862 51.5985 126.647 51.9513ZM127.318 50.9274C127.235 51.0173 126.73 50.6299 126.025 50.6299C125.319 50.6229 124.807 50.9966 124.724 50.9066C124.682 50.8651 124.765 50.706 124.987 50.533C125.208 50.36 125.582 50.194 126.025 50.2009C126.467 50.2009 126.841 50.3739 127.056 50.5468C127.277 50.7267 127.353 50.8928 127.318 50.9274ZM129.249 58.5795C128.301 58.2612 127.886 57.5071 127.976 57.4725C128.059 57.4102 128.543 57.9706 129.366 58.2405C130.183 58.5311 130.909 58.3858 130.93 58.4826C130.978 58.5656 130.19 58.9047 129.249 58.5795ZM131.996 56.4416C131.947 56.5938 131.802 56.7045 131.677 56.7391C131.553 56.7737 131.449 56.7806 131.359 56.7806C130.639 56.8083 130.197 56.8014 130.19 56.746C130.183 56.6907 130.619 56.6007 131.331 56.4969C131.518 56.4762 131.663 56.4347 131.677 56.3309C131.712 56.2202 131.636 56.0196 131.539 55.7982C131.352 55.3346 131.165 54.8572 130.972 54.366C130.183 52.318 129.636 50.6299 129.74 50.5953C129.844 50.5538 130.563 52.1797 131.352 54.2276C131.539 54.7257 131.719 55.2031 131.892 55.6736C131.961 55.8881 132.085 56.1372 131.996 56.4416ZM134.071 51.6677C133.794 51.9721 133.324 51.9998 133.019 51.723C132.715 51.4463 132.687 50.9758 132.964 50.6714C133.241 50.367 133.711 50.3393 134.016 50.616C134.32 50.8859 134.348 51.3632 134.071 51.6677ZM135.005 50.2563C134.922 50.3462 134.417 49.9587 133.711 49.9587C133.006 49.9518 132.494 50.3254 132.411 50.2355C132.369 50.194 132.452 50.0349 132.674 49.8619C132.895 49.6889 133.269 49.5229 133.711 49.5298C134.154 49.5298 134.528 49.7028 134.742 49.8757C134.964 50.0556 135.04 50.2217 135.005 50.2563Z" fill="white"/>
<path opacity="0.1" d="M115.356 54.7535C114.982 54.629 114.643 54.0547 114.602 53.4182C114.581 53.0999 114.636 52.7886 114.74 52.5326C114.837 52.2697 114.996 52.0829 115.183 52.0483C115.37 51.9998 115.501 52.1036 115.55 52.2005C115.598 52.2973 115.584 52.3665 115.598 52.3734C115.605 52.3804 115.674 52.3112 115.64 52.1659C115.626 52.0967 115.577 52.0137 115.494 51.9514C115.404 51.8891 115.28 51.8545 115.155 51.8753C114.885 51.903 114.65 52.1659 114.54 52.4426C114.408 52.7263 114.339 53.0722 114.367 53.432C114.415 54.1377 114.802 54.7881 115.314 54.9126C115.564 54.968 115.764 54.8849 115.868 54.795C115.972 54.7051 115.992 54.622 115.979 54.622C115.965 54.6082 115.916 54.6705 115.819 54.7189C115.709 54.7742 115.543 54.8158 115.356 54.7535Z" fill="white"/>
<path opacity="0.2" d="M116.629 40.6739C116.712 40.6185 116.366 40.0927 115.66 39.8782C114.955 39.6568 114.373 39.9059 114.415 39.9958C114.443 40.0996 114.962 40.0373 115.557 40.2242C116.152 40.404 116.553 40.75 116.629 40.6739Z" fill="black"/>
<path opacity="0.2" d="M117.176 40.8399C117.162 40.6808 116.823 40.1273 116.677 39.3663C116.504 38.5153 116.511 37.775 116.401 37.775C116.318 37.768 116.138 38.5083 116.325 39.4424C116.491 40.2588 116.947 40.7846 117.113 40.8745C117.141 40.8884 117.162 40.8953 117.169 40.8815C117.176 40.8745 117.176 40.8607 117.176 40.8399Z" fill="black"/>
<path opacity="0.2" d="M133.144 49.0732C133.96 49.0248 134.652 49.1493 134.728 48.9625C134.818 48.7896 134.113 48.2983 133.103 48.3537C132.092 48.4021 131.442 48.9625 131.546 49.1286C131.657 49.3016 132.328 49.1078 133.144 49.0732Z" fill="black"/>
<path opacity="0.2" d="M125.284 48.8864C125.741 48.8656 126.17 48.7618 126.454 48.6027C126.744 48.4505 126.862 48.2568 126.813 48.1737C126.758 48.0907 126.578 48.1045 126.308 48.1115C125.845 48.1322 125.533 48.1461 125.243 48.1599C124.399 48.1945 123.672 48.2983 123.658 48.4989C123.652 48.6996 124.357 48.9279 125.284 48.8864Z" fill="black"/>
<path opacity="0.2" d="M127.983 57.4726C127.893 57.5072 128.308 58.2613 129.256 58.5796C130.197 58.9047 130.985 58.5657 130.937 58.4827C130.909 58.3789 130.19 58.5311 129.373 58.2405C128.543 57.9707 128.059 57.4103 127.983 57.4726Z" fill="black"/>
<path opacity="0.2" d="M135.33 36.2182C133.594 34.5992 130.805 34.2325 128.709 35.3464C127.74 35.8584 126.917 36.6541 125.872 36.9862C124.62 37.3806 123.278 37.0415 121.963 36.9447C120.656 36.8478 119.127 37.1107 118.469 38.2454C118.047 38.9788 118.068 39.9405 117.494 40.5632C117.397 40.6739 117.286 40.7638 117.169 40.8399C117.169 40.8607 117.169 40.8745 117.162 40.8814C117.155 40.8883 117.134 40.8883 117.106 40.8745C116.297 41.3588 115.148 41.2204 114.207 41.5456C113.128 41.9192 112.346 42.9778 112.222 44.1125C112.097 45.2471 112.595 46.4095 113.439 47.1844C113.924 47.6272 114.533 47.9662 114.837 48.5474C115.197 49.2323 115.045 50.0487 114.941 50.8306C115.494 50.6784 116.069 50.7199 116.449 50.7821C116.691 50.8236 116.85 50.8721 116.871 50.879C116.871 50.879 116.92 51.9583 116.975 53.1207C116.989 53.1068 117.003 53.1068 117.016 53.093L117.023 53.0861C119.037 52.9823 118.456 47.897 118.456 47.897C121.029 46.8869 120.953 44.1332 121.597 43.5382C122.24 42.9501 125.395 43.3514 128.163 44.4653C131.442 45.7868 133.981 45.0188 134.95 44.6106L134.984 44.6383C135.012 44.6245 135.033 44.6106 135.054 44.5968C135.109 44.5622 135.171 44.5207 135.227 44.4861C135.323 44.4377 135.379 44.41 135.379 44.41V44.3961C135.939 44.0018 136.368 43.4137 136.652 42.7772C137.62 40.5978 137.06 37.8372 135.33 36.2182Z" fill="black"/>
<path d="M244.065 0.296098L244.231 0.462147C194.845 0.462147 139.115 0.469066 80.3403 0.475985H80.3195L80.4994 0.296098C80.4856 84.4901 80.4787 162.43 80.4648 225.577L80.3195 225.432C179.714 225.521 243.013 225.577 244.224 225.577C243.013 225.577 179.714 225.632 80.3195 225.722H80.1742V225.577C80.1673 162.43 80.1535 84.4901 80.1396 0.296098V0.116211H80.3195H80.3403C139.115 0.12313 194.845 0.130048 244.231 0.130048H244.397V0.296098C244.293 133.565 244.231 224.131 244.231 225.577" fill="#263238"/>
<path d="M22.3336 158.05L23.2262 159.953C23.2262 159.953 23.579 161.191 24.6653 163.177C24.9489 163.696 25.3156 164.152 25.7515 164.547C26.2842 165.024 27.0107 165.626 27.5158 165.834C28.1385 166.09 28.1246 166.968 27.5365 167.114C26.9415 167.259 25.2118 166.602 23.7381 165.017C22.2645 163.433 22.4928 166.83 22.555 168.068C22.6173 169.307 22.6242 173.154 22.2575 173.472C21.7179 173.942 21.1159 173.451 21.0883 172.213C21.0537 170.96 20.7008 167.266 20.0435 167.328C19.4001 167.39 19.7945 173.7 19.7945 173.7C19.7945 173.7 20.0989 175.035 19.3448 175.132C17.9887 175.312 18.0579 168.573 18.0855 167.937C18.0994 167.494 17.3868 167.536 17.4006 168.013C17.4075 168.504 17.9403 174.295 16.5634 174.489C15.5049 174.641 16.5703 168.947 15.7954 167.812C15.0205 166.671 15.4288 172.206 14.4117 172.31C14.0312 172.344 13.7475 172.323 13.9689 169.113C14.1972 165.82 16.2728 157.012 16.2728 157.012L22.4305 158.154" fill="#FFBE9D"/>
<path d="M46.8882 110.864C46.8882 110.864 27.4881 129.78 27.0591 132.229C26.6233 134.679 23.8212 161.821 23.8212 161.821L14.9652 160.942C14.9652 160.942 14.128 127.483 16.9094 124.086C19.6907 120.689 30.7261 107.889 30.7261 107.889L46.8882 110.864Z" fill="#FFBE9D"/>
<path d="M17.7258 127.615C17.7119 127.628 17.6012 127.552 17.4698 127.352C17.3383 127.151 17.193 126.819 17.2068 126.376C17.2138 125.94 17.4282 125.394 17.9126 125.048C18.3692 124.695 19.1095 124.543 19.7391 124.861C20.0504 125.013 20.3064 125.276 20.4241 125.594C20.5417 125.906 20.5348 126.252 20.4033 126.535C20.1266 127.137 19.4001 127.262 19.0057 127.006C18.5837 126.729 18.5837 126.272 18.6667 126.051C18.7497 125.809 18.895 125.747 18.9019 125.76C18.9227 125.781 18.8189 125.871 18.7774 126.079C18.7359 126.272 18.7912 126.646 19.1095 126.819C19.4139 126.992 19.9743 126.867 20.1542 126.425C20.2511 126.21 20.2511 125.94 20.1542 125.698C20.0643 125.456 19.8636 125.248 19.6076 125.124C19.0957 124.861 18.4799 124.972 18.0717 125.262C17.6496 125.553 17.449 125.996 17.4144 126.383C17.3591 127.186 17.7742 127.594 17.7258 127.615Z" fill="#EB996E"/>
<path d="M87.6188 62.5924C87.4874 62.966 85.7784 87.4099 85.7784 87.4099L95.5961 86.6627L98.0177 65.3876L87.6188 62.5924Z" fill="#455A64"/>
<path d="M85.7853 87.4168L84.4639 87.0363L86.3596 62.2327L87.7779 62.634L85.7853 87.4168Z" fill="#263238"/>
<path d="M93.2368 69.0061C93.5539 69.0061 93.811 68.7489 93.811 68.4318C93.811 68.1146 93.5539 67.8575 93.2368 67.8575C92.9196 67.8575 92.6625 68.1146 92.6625 68.4318C92.6625 68.7489 92.9196 69.0061 93.2368 69.0061Z" fill="#263238"/>
<path d="M82.4782 99.5384L99.7681 104.029L97.0352 83.5284L96.6823 82.5529L90.3448 81.5773L91.1058 76.9003C91.5002 74.714 93.6727 73.3233 95.8244 73.8906C96.5163 74.0774 97.2428 74.2712 97.907 74.4441C99.3876 74.8385 100.64 75.8348 101.339 77.2047C102.543 79.5571 103.712 82.1308 103.601 81.9094L112.872 107.059C112.872 107.059 115.737 112.144 111.848 117.195C108.859 121.076 101.643 118.378 98.246 117.721L76.0991 112.843L82.4782 99.5384Z" fill="#FFBE9D"/>
<path d="M47.9676 74.5618C48.1128 74.9562 47.9952 75.4266 47.6908 75.7172C47.3864 76.0009 46.909 76.0839 46.5215 75.9179C45.7951 75.5996 45.6498 74.6241 45.7466 73.8353C45.8435 73.0466 46.0649 72.1956 45.6982 71.4968C45.4145 70.9571 44.8541 70.6389 44.4113 70.2237C43.6295 69.5042 43.1798 68.4249 43.3043 67.3732C43.4289 66.3216 44.1553 65.3391 45.1585 65.0001C46.1825 64.6542 47.4832 64.9032 48.2166 64.1076C48.7494 63.5333 48.7355 62.6339 49.1299 61.9628C49.7457 60.9181 51.164 60.6759 52.3748 60.7797C53.5856 60.8765 54.8309 61.1948 55.9933 60.8419C56.9619 60.5444 57.7368 59.8111 58.6362 59.3406C60.5873 58.3166 63.168 58.6764 64.7662 60.1847C66.3645 61.6999 66.8695 64.2598 65.9562 66.2593C65.6311 66.9789 65.1122 67.6431 64.3926 67.9821" fill="#263238"/>
<path d="M49.1783 95.2004L60.6357 94.2871C60.7049 92.9518 60.608 87.7766 60.608 87.7766C60.608 87.7766 65.375 87.0363 65.4304 82.2693C65.4857 77.5023 64.6624 66.5568 64.6624 66.5568C59.1482 64.1837 52.776 64.9863 48.016 68.6463L47.3102 69.1929L49.1783 95.2004Z" fill="#FFBE9D"/>
<path d="M63.5693 74.7486C63.2856 74.4926 63.2649 74.0567 63.5208 73.7731C63.7768 73.4894 64.2127 73.4686 64.4964 73.7246C64.7801 73.9806 64.8008 74.4165 64.5448 74.7002C64.2888 74.9839 63.8529 75.0046 63.5693 74.7486Z" fill="#263238"/>
<path d="M64.7247 73.6624C64.6486 73.7454 64.185 73.3856 63.5277 73.3787C62.8705 73.3649 62.3931 73.7177 62.3239 73.6278C62.2893 73.5932 62.3654 73.441 62.573 73.2818C62.7736 73.1227 63.1265 72.9705 63.5347 72.9774C63.9429 72.9843 64.2888 73.1435 64.4894 73.3026C64.6901 73.4755 64.7593 73.6278 64.7247 73.6624Z" fill="#263238"/>
<path d="M57.1625 74.2366C57.4877 74.4372 57.5915 74.8662 57.3908 75.1914C57.1902 75.5165 56.7612 75.6203 56.436 75.4197C56.1109 75.219 56.0071 74.7901 56.2077 74.4649C56.4153 74.1328 56.8373 74.0359 57.1625 74.2366Z" fill="#263238"/>
<path d="M57.5984 74.2435C57.5223 74.3266 57.0587 73.9668 56.4015 73.9599C55.7442 73.946 55.2668 74.2989 55.1976 74.2089C55.163 74.1743 55.2391 74.0221 55.4467 73.863C55.6473 73.7039 56.0002 73.5517 56.4084 73.5586C56.8166 73.5655 57.1625 73.7246 57.3632 73.8838C57.5638 74.0498 57.633 74.202 57.5984 74.2435Z" fill="#263238"/>
<path d="M60.2275 79.6539C60.2206 79.6055 60.6288 79.5225 61.2861 79.4256C61.459 79.4049 61.5905 79.3703 61.6043 79.2734C61.632 79.1696 61.5697 78.9828 61.4798 78.7822C61.3137 78.3463 61.1408 77.9104 60.9609 77.4469C60.2413 75.5442 59.7432 73.9806 59.84 73.9391C59.9369 73.9045 60.5942 75.4128 61.3137 77.3154C61.4867 77.779 61.6458 78.2218 61.805 78.6576C61.8672 78.8583 61.9848 79.0866 61.9018 79.3703C61.8534 79.5156 61.7219 79.6124 61.6043 79.647C61.4936 79.6816 61.3968 79.6816 61.3137 79.6885C60.6495 79.7162 60.2344 79.7093 60.2275 79.6539Z" fill="#263238"/>
<path d="M58.0965 80.3805C58.9544 80.7195 59.9853 81.1554 61.3137 81.3145C61.3137 81.3145 60.5457 82.5391 59.1758 82.0341C57.7506 81.5152 58.0965 80.3805 58.0965 80.3805Z" fill="white"/>
<path d="M60.6149 87.7074C60.6149 87.7074 57.6053 87.9495 54.4019 85.9431C54.4019 85.9431 55.8687 89.3748 60.6288 88.9458L60.6149 87.7074Z" fill="#EB996E"/>
<path d="M64.7662 67.7607C64.7662 67.7607 61.978 69.3728 58.0758 67.7746C55.5159 66.7229 52.5893 66.3355 51.9943 66.882C51.3992 67.4286 51.4477 69.9816 49.0607 70.9018C49.0607 70.9018 49.5865 75.7449 47.6424 75.7173C45.6913 75.6896 46.3486 68.079 46.3486 68.079L50.9149 65.4153L56.014 64.0592L60.9333 64.3844L64.7801 65.1385V67.7607H64.7662Z" fill="#263238"/>
<path d="M47.9053 74.1328C47.8222 74.0982 44.6327 73.1642 44.7365 76.4229C44.8403 79.6816 48.0921 78.9067 48.0921 78.8098C48.0921 78.713 47.9053 74.1328 47.9053 74.1328Z" fill="#FFBE9D"/>
<path d="M47.0543 77.606C47.0404 77.5991 46.9989 77.6475 46.9021 77.696C46.8121 77.7444 46.653 77.779 46.48 77.7167C46.1341 77.5991 45.8227 77.0664 45.7881 76.4783C45.7674 76.1808 45.8227 75.8971 45.9196 75.6619C46.0095 75.4197 46.1617 75.2467 46.3347 75.2121C46.5077 75.1637 46.6322 75.2675 46.6737 75.3574C46.7222 75.4474 46.7014 75.5096 46.7222 75.5166C46.7291 75.5235 46.7914 75.4612 46.7568 75.3228C46.7429 75.2606 46.7014 75.1845 46.6253 75.1222C46.5423 75.0599 46.4316 75.0323 46.307 75.0461C46.058 75.0738 45.8366 75.309 45.7328 75.5719C45.6082 75.8348 45.546 76.1531 45.5667 76.4852C45.6083 77.1425 45.9611 77.7444 46.4385 77.8689C46.6668 77.9243 46.8605 77.8482 46.9574 77.7652C47.0543 77.689 47.0681 77.6129 47.0543 77.606Z" fill="#EB996E"/>
<path d="M45.6913 64.0315C45.6567 63.9416 46.1963 63.7063 46.8536 63.9139C47.5109 64.1145 47.8222 64.6127 47.7461 64.668C47.67 64.7372 47.2964 64.419 46.7498 64.2598C46.2033 64.0869 45.7189 64.1353 45.6913 64.0315Z" fill="#263238"/>
<path d="M47.5455 61.9766C47.6562 61.9835 47.6493 62.6685 47.8084 63.4503C47.9606 64.239 48.3273 64.7995 48.2443 64.8617C48.182 64.9309 47.6285 64.4051 47.4555 63.5195C47.2826 62.6546 47.4625 61.9697 47.5455 61.9766Z" fill="#263238"/>
<path d="M61.5352 72.59C61.4314 72.4308 62.0333 71.8981 62.9812 71.8566C63.9221 71.8151 64.5725 72.2855 64.4825 72.4585C64.3995 72.6453 63.763 72.5346 63.0088 72.5761C62.2547 72.6038 61.632 72.7699 61.5352 72.59Z" fill="#263238"/>
<path d="M54.2221 71.9811C54.1183 71.822 54.7202 71.2892 55.6681 71.2477C56.6091 71.2062 57.2594 71.6767 57.1695 71.8496C57.0865 72.0364 56.4499 71.9257 55.6958 71.9672C54.9486 71.9949 54.3259 72.161 54.2221 71.9811Z" fill="#263238"/>
<path d="M27.2529 273.365L26.1182 278.132C26.1182 278.132 18.3139 288.268 15.9131 287.769C14.3356 287.444 16.2729 284.801 19.241 277.108L19.8637 273.932L27.2529 273.365Z" fill="#455A64"/>
<path d="M15.5879 286.275C15.6017 286.261 15.664 286.496 16.003 286.676C16.3282 286.863 16.944 286.877 17.4975 286.469C18.5629 285.625 19.9329 284.296 21.3789 282.788C22.8249 281.273 24.0357 279.813 24.8936 278.74C25.2741 278.256 25.6062 277.827 25.8899 277.454C25.9867 277.329 26.0767 277.211 26.1597 277.101C26.222 277.025 26.2566 276.983 26.2635 276.983C26.2704 276.983 26.2427 277.032 26.1874 277.115C26.1113 277.232 26.0283 277.35 25.9383 277.481C25.7169 277.8 25.3917 278.249 24.9766 278.796C24.1394 279.889 22.9356 281.363 21.4896 282.878C20.0366 284.393 18.6667 285.701 17.5597 286.545C17.2691 286.732 16.9647 286.856 16.681 286.87C16.3974 286.884 16.1621 286.815 15.9892 286.718C15.8162 286.621 15.7124 286.496 15.664 286.413C15.6017 286.33 15.5879 286.275 15.5879 286.275Z" fill="#263238"/>
<path d="M16.6949 283.023C16.688 283.009 16.9301 282.919 17.3383 282.954C17.7396 282.982 18.2862 283.141 18.812 283.466C19.3379 283.784 19.7184 284.227 19.8844 284.594C20.0505 284.96 20.0643 285.216 20.0505 285.216C20.0228 285.223 19.9744 284.981 19.7945 284.642C19.6146 284.296 19.2479 283.895 18.7429 283.591C18.2378 283.279 17.7189 283.106 17.3383 283.058C16.944 282.996 16.7018 283.044 16.6949 283.023Z" fill="#263238"/>
<path d="M24.0772 280.643C24.0703 280.643 24.0357 280.567 23.9804 280.415C23.9319 280.263 23.8697 280.041 23.8281 279.764C23.7313 279.204 23.7866 278.374 24.1948 277.592C24.5961 276.803 25.2534 276.284 25.7723 276.056C26.0352 275.938 26.2566 275.883 26.4158 275.855C26.5749 275.835 26.6648 275.835 26.6648 275.842C26.6717 275.869 26.312 275.897 25.8207 276.146C25.3295 276.388 24.7068 276.893 24.3263 277.654C23.9319 278.408 23.8627 279.197 23.9388 279.744C23.9942 280.304 24.1049 280.636 24.0772 280.643Z" fill="#263238"/>
<path d="M26.7547 274.174C26.7893 274.188 26.6163 274.852 26.471 275.696C26.3258 276.54 26.1044 277.211 26.0628 277.198C26.0282 277.184 26.1874 276.519 26.3258 275.668C26.471 274.824 26.7132 274.16 26.7547 274.174Z" fill="#263238"/>
<path d="M19.0957 277.779C19.0888 277.744 19.5454 277.661 20.0989 277.786C20.6524 277.91 21.026 278.187 21.0053 278.215C20.9845 278.249 20.5902 278.042 20.0713 277.924C19.5454 277.806 19.1026 277.827 19.0957 277.779Z" fill="#263238"/>
<path d="M18.9366 278.602C18.9227 278.568 19.3102 278.457 19.7807 278.568C20.2511 278.678 20.5486 278.948 20.521 278.976C20.4933 279.01 20.1819 278.81 19.7461 278.706C19.3102 278.602 18.9435 278.644 18.9366 278.602Z" fill="#263238"/>
<path d="M18.3139 279.626C18.2931 279.598 18.6875 279.398 19.1857 279.509C19.6907 279.619 19.9606 279.972 19.926 279.986C19.8983 280.02 19.6077 279.744 19.158 279.647C18.7013 279.543 18.3277 279.668 18.3139 279.626Z" fill="#263238"/>
<path d="M19.6354 277.44C19.6284 277.419 19.9951 277.343 20.5486 277.128C20.8254 277.018 21.1506 276.872 21.4896 276.679C21.6625 276.582 21.8355 276.471 22.0085 276.347C22.1676 276.229 22.3406 276.056 22.3337 275.876C22.3337 275.689 22.0984 275.592 21.9185 275.634C21.7317 275.676 21.5795 275.821 21.4342 275.952C21.1436 276.222 20.9015 276.478 20.7008 276.706C20.2995 277.149 20.0781 277.454 20.0643 277.44C20.0574 277.433 20.0989 277.35 20.1958 277.211C20.2926 277.073 20.431 276.872 20.6247 276.644C20.8185 276.409 21.0537 276.146 21.3443 275.862C21.4827 275.724 21.6487 275.558 21.8839 275.503C22.1053 275.44 22.4582 275.558 22.472 275.869C22.4651 276.16 22.2575 276.333 22.0846 276.464C21.9047 276.589 21.7248 276.699 21.5518 276.796C21.199 276.99 20.8669 277.128 20.5832 277.232C20.2995 277.329 20.0574 277.384 19.8913 277.419C19.7322 277.44 19.6354 277.447 19.6354 277.44Z" fill="#263238"/>
<path d="M20.0436 277.343C20.0228 277.343 19.9882 277.004 19.8983 276.471C19.8498 276.208 19.7806 275.89 19.6354 275.572C19.5593 275.413 19.4693 275.247 19.3448 275.115C19.2272 274.984 19.0473 274.866 18.902 274.949C18.7567 275.025 18.7359 275.247 18.7567 275.42C18.7844 275.599 18.8397 275.779 18.9089 275.945C19.0473 276.271 19.241 276.527 19.4209 276.727C19.7807 277.128 20.0574 277.322 20.0436 277.343C20.0366 277.35 19.9605 277.308 19.836 277.225C19.7115 277.135 19.5316 276.997 19.3379 276.803C19.1441 276.603 18.9366 276.34 18.7844 276.001C18.7082 275.828 18.646 275.648 18.6114 275.44C18.5906 275.247 18.5906 274.97 18.8259 274.825C19.0819 274.693 19.324 274.88 19.4416 275.018C19.58 275.177 19.67 275.35 19.7461 275.516C19.8983 275.855 19.9536 276.188 19.9951 276.457C20.0297 276.734 20.0366 276.955 20.0436 277.108C20.0574 277.253 20.0574 277.343 20.0436 277.343Z" fill="#263238"/>
<path d="M66.0324 275.779L66.067 269.414L54.1529 269.269L54.0007 278.574L54.741 278.63C58.0274 278.851 71.4636 279.529 73.6707 278.893C76.1337 278.18 66.0324 275.779 66.0324 275.779Z" fill="#455A64"/>
<path d="M53.8347 278.305C53.8347 278.311 53.9038 278.318 54.0422 278.332C54.2221 278.346 54.4089 278.36 54.6303 278.374C55.2184 278.408 55.9449 278.45 56.7959 278.491C58.6224 278.581 61.1547 278.671 63.9429 278.706C66.7381 278.74 69.2634 278.72 71.0969 278.685C71.9479 278.657 72.6744 278.637 73.2624 278.623C73.4838 278.616 73.6776 278.602 73.8505 278.595C73.982 278.588 74.0581 278.581 74.0581 278.574C74.0581 278.567 73.9889 278.567 73.8505 278.567C73.6707 278.567 73.4769 278.567 73.2624 278.567C72.6744 278.574 71.9479 278.574 71.0969 278.581C69.2703 278.595 66.7381 278.602 63.9498 278.561C61.1616 278.526 58.6293 278.45 56.8028 278.388C55.9518 278.36 55.2253 278.332 54.6372 278.311C54.4158 278.305 54.2221 278.298 54.0491 278.298C53.9108 278.298 53.8416 278.298 53.8347 278.305Z" fill="#263238"/>
<path d="M69.8861 278.83C69.9276 278.837 69.9691 278.318 70.3012 277.799C70.6264 277.274 71.0761 277.018 71.0485 276.983C71.0416 276.948 70.5296 277.163 70.1767 277.723C69.8239 278.284 69.8515 278.844 69.8861 278.83Z" fill="#263238"/>
<path d="M66.3921 277.004C66.4267 277.025 66.5997 276.824 66.7727 276.554C66.9526 276.284 67.0633 276.042 67.0356 276.021C67.001 276.001 66.828 276.201 66.6551 276.471C66.4752 276.748 66.3576 276.983 66.3921 277.004Z" fill="#263238"/>
<path d="M65.4373 276.485C65.465 276.513 65.6518 276.395 65.8594 276.208C66.0669 276.028 66.2122 275.855 66.1846 275.828C66.1569 275.8 65.9701 275.918 65.7625 276.104C65.555 276.284 65.4097 276.45 65.4373 276.485Z" fill="#263238"/>
<path d="M64.8423 275.35C64.8423 275.392 65.1191 275.426 65.465 275.44C65.811 275.447 66.0877 275.419 66.0877 275.385C66.0877 275.343 65.811 275.309 65.465 275.295C65.1191 275.288 64.8423 275.309 64.8423 275.35Z" fill="#263238"/>
<path d="M64.6417 274.555C64.6279 274.589 64.9323 274.728 65.3336 274.762C65.7348 274.797 66.06 274.714 66.0531 274.679C66.0462 274.638 65.7348 274.658 65.3474 274.624C64.9599 274.589 64.6555 274.513 64.6417 274.555Z" fill="#263238"/>
<path d="M66.8142 275.973C66.8142 275.987 67.1048 276.028 67.5822 275.98C67.8174 275.952 68.1011 275.904 68.3986 275.814C68.5508 275.765 68.703 275.724 68.8691 275.627C68.9452 275.579 69.0282 275.509 69.0628 275.392C69.0974 275.274 69.0351 275.15 68.9521 275.087C68.2256 274.7 67.4853 275.101 67.2086 275.475C67.0564 275.668 66.9872 275.855 66.9526 275.98C66.918 276.111 66.9249 276.187 66.9318 276.187C66.9595 276.194 66.9872 275.89 67.2916 275.537C67.4369 275.364 67.6652 275.205 67.9489 275.122C68.2187 275.046 68.6062 275.025 68.8622 275.198C68.9798 275.288 68.9313 275.433 68.7999 275.509C68.6753 275.592 68.5093 275.634 68.364 275.689C68.0734 275.786 67.8036 275.848 67.5753 275.883C67.1048 275.952 66.8142 275.945 66.8142 275.973Z" fill="#263238"/>
<path d="M67.0079 276.014C67.0218 276.021 67.1325 275.828 67.1048 275.482C67.091 275.316 67.0287 275.108 66.9042 274.921C66.7727 274.748 66.5997 274.513 66.2746 274.52C66.0947 274.541 66.0047 274.741 66.0324 274.873C66.0462 275.004 66.1016 275.122 66.1569 275.219C66.2676 275.413 66.3922 275.565 66.5098 275.689C66.745 275.925 66.9387 276.021 66.9457 276.008C66.9595 275.987 66.7935 275.869 66.5859 275.62C66.4821 275.496 66.3714 275.343 66.2746 275.157C66.1708 274.991 66.1016 274.7 66.2953 274.672C66.489 274.658 66.6828 274.852 66.7935 275.004C66.9111 275.17 66.9733 275.35 67.001 275.503C67.0564 275.807 66.9872 276.008 67.0079 276.014Z" fill="#263238"/>
<path d="M54.1252 275.046C54.1252 275.074 54.4642 275.018 55.0039 275.087C55.5366 275.157 56.2769 275.385 56.9135 275.904C57.55 276.43 57.9236 277.108 58.0896 277.613C58.2626 278.125 58.2765 278.471 58.3041 278.464C58.311 278.464 58.318 278.381 58.3041 278.222C58.2972 278.069 58.2626 277.841 58.1796 277.578C58.0274 277.045 57.6607 276.333 56.9965 275.786C56.3323 275.24 55.5574 275.025 55.0039 274.984C54.7271 274.963 54.4988 274.97 54.3466 274.991C54.2013 275.011 54.1183 275.039 54.1252 275.046Z" fill="#263238"/>
<path d="M55.419 270.099C55.3775 270.099 55.3222 271.192 55.2876 272.548C55.253 273.897 55.2599 274.997 55.2945 274.997C55.336 274.997 55.3914 273.904 55.4259 272.548C55.4675 271.199 55.4605 270.099 55.419 270.099Z" fill="#263238"/>
<path d="M59.8401 277.391C59.8332 277.426 60.6081 277.564 61.5767 277.585C62.5454 277.606 63.3272 277.502 63.3203 277.467C63.3203 277.426 62.5384 277.46 61.5767 277.44C60.622 277.426 59.8471 277.35 59.8401 277.391Z" fill="#263238"/>
<path d="M57.5016 277.364C57.4739 277.391 57.5638 277.53 57.64 277.709C57.723 277.889 57.7576 278.048 57.7991 278.048C57.8406 278.048 57.8614 277.862 57.7714 277.654C57.6815 277.44 57.5293 277.329 57.5016 277.364Z" fill="#263238"/>
<path d="M56.6367 276.257C56.6091 276.284 56.6852 276.409 56.8028 276.533C56.9273 276.658 57.0449 276.741 57.0726 276.713C57.1003 276.686 57.0242 276.561 56.9066 276.437C56.7889 276.305 56.6644 276.229 56.6367 276.257Z" fill="#263238"/>
<path d="M55.3845 275.738C55.3914 275.779 55.5505 275.779 55.7235 275.841C55.8964 275.904 56.021 276.001 56.0556 275.973C56.0902 275.952 55.9864 275.779 55.7719 275.703C55.5574 275.627 55.3706 275.703 55.3845 275.738Z" fill="#263238"/>
<path d="M54.4919 275.489C54.4781 275.523 54.5473 275.585 54.6441 275.627C54.741 275.669 54.831 275.669 54.8517 275.634C54.8655 275.599 54.7964 275.537 54.6995 275.496C54.5957 275.454 54.5058 275.454 54.4919 275.489Z" fill="#263238"/>
<path d="M74.1411 149.429L68.5785 273.032L50.0224 273.427L53.1082 169.943L32.2344 274.216H14.5916L38.1568 149.429" fill="#263238"/>
<path d="M19.0334 272.43C19.1303 272.444 19.1718 272.686 19.1234 272.97C19.075 273.254 18.9573 273.468 18.8605 273.454C18.7636 273.441 18.7221 273.198 18.7705 272.915C18.819 272.624 18.9366 272.41 19.0334 272.43Z" fill="#455A64"/>
<path d="M19.7115 268.383C19.8083 268.397 19.8153 268.867 19.7184 269.428C19.6215 269.988 19.4693 270.424 19.3725 270.41C19.2756 270.396 19.2687 269.926 19.3655 269.365C19.4555 268.805 19.6146 268.362 19.7115 268.383Z" fill="#455A64"/>
<path d="M20.3895 264.336C20.4864 264.349 20.4933 264.82 20.3964 265.38C20.2996 265.941 20.1474 266.377 20.0505 266.363C19.9536 266.349 19.9467 265.878 20.0436 265.318C20.1404 264.758 20.2927 264.315 20.3895 264.336Z" fill="#455A64"/>
<path d="M21.0745 260.288C21.1713 260.302 21.1782 260.772 21.0814 261.333C20.9845 261.893 20.8323 262.329 20.7354 262.315C20.6386 262.301 20.6317 261.831 20.7285 261.271C20.8185 260.71 20.9776 260.267 21.0745 260.288Z" fill="#455A64"/>
<path d="M21.7525 256.241C21.8494 256.254 21.8563 256.725 21.7594 257.285C21.6626 257.846 21.5103 258.282 21.4135 258.268C21.3166 258.254 21.3097 257.783 21.4066 257.223C21.5034 256.663 21.6556 256.22 21.7525 256.241Z" fill="#455A64"/>
<path d="M22.4374 252.193C22.5343 252.207 22.5412 252.678 22.4444 253.238C22.3475 253.798 22.1953 254.234 22.0984 254.22C22.0016 254.207 21.9946 253.736 22.0915 253.176C22.1814 252.615 22.3406 252.172 22.4374 252.193Z" fill="#455A64"/>
<path d="M23.1224 248.146C23.2193 248.16 23.2262 248.63 23.1294 249.19C23.0325 249.751 22.8803 250.187 22.7834 250.173C22.6866 250.159 22.6796 249.689 22.7765 249.128C22.8664 248.568 23.0256 248.125 23.1224 248.146Z" fill="#455A64"/>
<path d="M23.8074 244.098C23.9043 244.112 23.9112 244.583 23.8143 245.143C23.7174 245.703 23.5652 246.139 23.4615 246.125C23.3646 246.112 23.3577 245.641 23.4545 245.081C23.5583 244.52 23.7105 244.077 23.8074 244.098Z" fill="#455A64"/>
<path d="M24.4992 240.051C24.5961 240.065 24.603 240.535 24.5061 241.095C24.4093 241.656 24.2571 242.092 24.1533 242.078C24.0564 242.064 24.0495 241.594 24.1464 241.033C24.2432 240.473 24.4024 240.03 24.4992 240.051Z" fill="#455A64"/>
<path d="M25.1911 236.003C25.288 236.017 25.288 236.488 25.1981 237.048C25.1012 237.609 24.9421 238.044 24.8452 238.031C24.7483 238.017 24.7483 237.546 24.8383 236.986C24.9351 236.425 25.0943 235.983 25.1911 236.003Z" fill="#455A64"/>
<path d="M25.8899 231.956C25.9868 231.97 25.9868 232.44 25.8969 233.001C25.8 233.561 25.6409 233.997 25.544 233.983C25.4471 233.969 25.4471 233.499 25.5371 232.938C25.6339 232.378 25.7861 231.942 25.8899 231.956Z" fill="#455A64"/>
<path d="M26.5887 227.908C26.6856 227.922 26.6856 228.393 26.5887 228.953C26.4918 229.514 26.3327 229.949 26.2359 229.936C26.139 229.922 26.139 229.451 26.2359 228.891C26.3327 228.33 26.4849 227.895 26.5887 227.908Z" fill="#455A64"/>
<path d="M27.2875 223.868C27.3844 223.882 27.3844 224.352 27.2875 224.913C27.1906 225.473 27.0315 225.909 26.9346 225.895C26.8378 225.881 26.8378 225.411 26.9346 224.85C27.0315 224.29 27.1906 223.847 27.2875 223.868Z" fill="#455A64"/>
<path d="M27.9932 219.82C28.0901 219.834 28.0901 220.305 27.9932 220.865C27.8963 221.426 27.7372 221.861 27.6403 221.848C27.5435 221.834 27.5435 221.363 27.6403 220.803C27.7372 220.242 27.8963 219.807 27.9932 219.82Z" fill="#455A64"/>
<path d="M28.7058 215.78C28.8027 215.794 28.8027 216.264 28.7058 216.825C28.609 217.385 28.4498 217.821 28.353 217.807C28.2561 217.793 28.2561 217.323 28.353 216.762C28.4498 216.202 28.609 215.759 28.7058 215.78Z" fill="#455A64"/>
<path d="M29.4184 211.739C29.5153 211.76 29.5153 212.224 29.4184 212.784C29.3216 213.345 29.1625 213.78 29.0587 213.767C28.9618 213.746 28.9618 213.282 29.0587 212.722C29.1625 212.161 29.3216 211.719 29.4184 211.739Z" fill="#455A64"/>
<path d="M30.138 207.699C30.2348 207.72 30.2348 208.183 30.138 208.744C30.0411 209.304 29.8751 209.74 29.7782 209.719C29.6814 209.698 29.6814 209.235 29.7782 208.674C29.882 208.114 30.0411 207.678 30.138 207.699Z" fill="#455A64"/>
<path d="M30.8645 203.658C30.9613 203.679 30.9613 204.143 30.8575 204.703C30.7538 205.263 30.5946 205.699 30.4978 205.679C30.4009 205.658 30.4009 205.194 30.5047 204.634C30.6085 204.073 30.7676 203.638 30.8645 203.658Z" fill="#455A64"/>
<path d="M31.5979 199.618C31.6947 199.639 31.6947 200.102 31.5909 200.662C31.4872 201.223 31.328 201.659 31.2312 201.638C31.1343 201.617 31.1343 201.154 31.2381 200.593C31.3419 200.033 31.501 199.597 31.5979 199.618Z" fill="#455A64"/>
<path d="M32.3382 195.577C32.435 195.598 32.435 196.062 32.3312 196.622C32.2275 197.182 32.0683 197.618 31.9715 197.597C31.8746 197.577 31.8746 197.113 31.9784 196.553C32.0752 195.999 32.2344 195.556 32.3382 195.577Z" fill="#455A64"/>
<path d="M33.0785 191.537C33.1753 191.557 33.1753 192.021 33.0716 192.581C32.9678 193.142 32.8086 193.578 32.7049 193.557C32.608 193.536 32.608 193.073 32.7118 192.512C32.8156 191.959 32.9816 191.523 33.0785 191.537Z" fill="#455A64"/>
<path d="M33.8326 187.503C33.9295 187.524 33.9225 187.987 33.8188 188.548C33.715 189.108 33.5489 189.544 33.4521 189.523C33.3552 189.503 33.3621 189.039 33.4659 188.479C33.5697 187.925 33.7357 187.482 33.8326 187.503Z" fill="#455A64"/>
<path d="M34.5868 183.469C34.6836 183.49 34.6767 183.954 34.5729 184.514C34.4691 185.075 34.3031 185.51 34.2062 185.49C34.1094 185.469 34.1163 185.005 34.2201 184.445C34.3238 183.885 34.4899 183.449 34.5868 183.469Z" fill="#455A64"/>
<path d="M35.3548 179.436C35.4516 179.457 35.4447 179.92 35.3409 180.481C35.2371 181.034 35.0711 181.477 34.9742 181.456C34.8774 181.435 34.8843 180.972 34.9881 180.411C35.0918 179.851 35.2579 179.415 35.3548 179.436Z" fill="#455A64"/>
<path d="M36.1296 175.402C36.2265 175.423 36.2196 175.886 36.1158 176.447C36.012 177 35.8459 177.436 35.7422 177.422C35.6453 177.402 35.6522 176.938 35.756 176.378C35.8667 175.824 36.0328 175.388 36.1296 175.402Z" fill="#455A64"/>
<path d="M36.9114 171.375C37.0083 171.396 37.0014 171.86 36.8907 172.42C36.78 172.974 36.6139 173.41 36.5171 173.396C36.4202 173.375 36.4271 172.911 36.5378 172.351C36.6485 171.791 36.8146 171.355 36.9114 171.375Z" fill="#455A64"/>
<path d="M37.7002 167.349C37.7971 167.369 37.7902 167.833 37.6795 168.393C37.5688 168.947 37.4027 169.383 37.3058 169.362C37.209 169.341 37.2159 168.878 37.3266 168.317C37.4373 167.764 37.6033 167.328 37.7002 167.349Z" fill="#455A64"/>
<path d="M38.5027 163.322C38.5996 163.343 38.5927 163.806 38.4751 164.367C38.3644 164.92 38.1983 165.356 38.0945 165.335C37.9977 165.315 38.0046 164.851 38.1222 164.291C38.2398 163.737 38.4059 163.301 38.5027 163.322Z" fill="#455A64"/>
<path d="M39.3192 159.295C39.416 159.316 39.4022 159.78 39.2915 160.34C39.1808 160.894 39.0078 161.329 38.911 161.309C38.8141 161.288 38.8279 160.824 38.9386 160.264C39.0493 159.711 39.2154 159.275 39.3192 159.295Z" fill="#455A64"/>
<path d="M40.1425 155.269C40.2393 155.289 40.2255 155.753 40.1148 156.313C40.0041 156.867 39.8311 157.303 39.7343 157.282C39.6374 157.261 39.6512 156.798 39.7619 156.237C39.8726 155.684 40.0387 155.248 40.1425 155.269Z" fill="#455A64"/>
<path d="M40.7651 152.245C40.862 152.266 40.8966 152.508 40.8343 152.792C40.779 153.075 40.6475 153.283 40.5507 153.262C40.4538 153.242 40.4192 152.999 40.4815 152.716C40.5437 152.432 40.6683 152.224 40.7651 152.245Z" fill="#455A64"/>
<path d="M53.2258 272.417C53.3227 272.424 53.3919 272.659 53.378 272.942C53.3642 273.226 53.2673 273.454 53.1705 273.454C53.0736 273.448 53.0044 273.212 53.0182 272.929C53.0321 272.638 53.122 272.41 53.2258 272.417Z" fill="#455A64"/>
<path d="M53.3918 268.3C53.4887 268.3 53.551 268.77 53.5302 269.338C53.5095 269.905 53.4126 270.362 53.3088 270.362C53.212 270.355 53.1497 269.891 53.1704 269.324C53.1981 268.75 53.295 268.293 53.3918 268.3Z" fill="#455A64"/>
<path d="M53.5233 264.177C53.6202 264.177 53.6893 264.64 53.6755 265.214C53.6617 265.782 53.5648 266.245 53.4679 266.238C53.3711 266.238 53.3019 265.775 53.3157 265.2C53.3296 264.633 53.4195 264.177 53.5233 264.177Z" fill="#455A64"/>
<path d="M53.6271 260.06C53.724 260.06 53.7932 260.523 53.7793 261.098C53.7655 261.665 53.6755 262.128 53.5718 262.122C53.4749 262.122 53.4057 261.658 53.4195 261.084C53.4334 260.516 53.5233 260.053 53.6271 260.06Z" fill="#455A64"/>
<path d="M53.724 255.936C53.8208 255.936 53.89 256.4 53.8762 256.974C53.8624 257.541 53.7724 258.005 53.6686 257.998C53.5718 257.998 53.5026 257.535 53.5164 256.96C53.5302 256.393 53.6271 255.936 53.724 255.936Z" fill="#455A64"/>
<path d="M53.8277 251.813C53.9246 251.813 53.9938 252.276 53.9799 252.851C53.9661 253.418 53.8692 253.881 53.7724 253.875C53.6755 253.875 53.6063 253.411 53.6202 252.837C53.6409 252.269 53.7309 251.813 53.8277 251.813Z" fill="#455A64"/>
<path d="M53.9661 247.689C54.063 247.696 54.1321 248.16 54.1114 248.727C54.0906 249.294 53.9938 249.751 53.8969 249.751C53.8 249.751 53.7309 249.28 53.7516 248.713C53.7724 248.146 53.8692 247.689 53.9661 247.689Z" fill="#455A64"/>
<path d="M54.1391 243.573C54.2359 243.579 54.2982 244.043 54.2775 244.61C54.2567 245.178 54.1529 245.634 54.0561 245.634C53.9592 245.627 53.8969 245.164 53.9177 244.596C53.9384 244.029 54.0422 243.573 54.1391 243.573Z" fill="#455A64"/>
<path d="M54.2982 239.456C54.3951 239.463 54.4573 239.926 54.4366 240.494C54.4158 241.061 54.319 241.518 54.2152 241.518C54.1183 241.511 54.0561 241.047 54.0768 240.48C54.1045 239.912 54.2013 239.449 54.2982 239.456Z" fill="#455A64"/>
<path d="M54.4435 235.339C54.5404 235.339 54.6096 235.81 54.5888 236.377C54.5681 236.944 54.4712 237.401 54.3743 237.401C54.2775 237.401 54.2083 236.93 54.229 236.363C54.2498 235.789 54.3467 235.332 54.4435 235.339Z" fill="#455A64"/>
<path d="M54.568 231.216C54.6649 231.216 54.7341 231.679 54.7202 232.253C54.7064 232.821 54.6095 233.277 54.5127 233.277C54.4158 233.277 54.3466 232.814 54.3605 232.24C54.3743 231.672 54.4712 231.209 54.568 231.216Z" fill="#455A64"/>
<path d="M54.6787 227.092C54.7756 227.092 54.8448 227.556 54.831 228.13C54.8171 228.697 54.7272 229.161 54.6234 229.154C54.5265 229.154 54.4573 228.69 54.4712 228.116C54.485 227.549 54.5819 227.092 54.6787 227.092Z" fill="#455A64"/>
<path d="M54.7687 222.975C54.8655 222.975 54.9416 223.439 54.9278 224.006C54.914 224.574 54.824 225.037 54.7272 225.03C54.6303 225.03 54.5542 224.567 54.568 223.999C54.575 223.432 54.6649 222.975 54.7687 222.975Z" fill="#455A64"/>
<path d="M54.8379 218.852C54.9348 218.852 55.0109 219.315 55.0039 219.883C54.997 220.45 54.9071 220.914 54.8102 220.914C54.7134 220.914 54.6373 220.45 54.6442 219.883C54.6511 219.308 54.7341 218.852 54.8379 218.852Z" fill="#455A64"/>
<path d="M54.8863 214.735C54.9832 214.735 55.0593 215.199 55.0523 215.766C55.0454 216.333 54.9624 216.797 54.8586 216.797C54.7618 216.797 54.6857 216.333 54.6926 215.766C54.6995 215.192 54.7894 214.728 54.8863 214.735Z" fill="#455A64"/>
<path d="M54.914 210.612C55.0108 210.612 55.0938 211.075 55.0869 211.643C55.0869 212.21 54.997 212.673 54.9001 212.673C54.8033 212.673 54.7202 212.21 54.7271 211.643C54.7341 211.068 54.8171 210.612 54.914 210.612Z" fill="#455A64"/>
<path d="M54.9278 206.488C55.0247 206.488 55.1077 206.952 55.1077 207.519C55.1077 208.086 55.0247 208.55 54.9278 208.55C54.8309 208.55 54.7479 208.086 54.7479 207.519C54.741 206.952 54.824 206.488 54.9278 206.488Z" fill="#455A64"/>
<path d="M54.914 202.371C55.0109 202.371 55.0939 202.835 55.1008 203.402C55.1008 203.97 55.0247 204.433 54.9278 204.433C54.831 204.433 54.748 203.97 54.741 203.402C54.7341 202.828 54.8102 202.371 54.914 202.371Z" fill="#455A64"/>
<path d="M54.8794 198.248C54.9763 198.248 55.0662 198.705 55.0662 199.279C55.0731 199.846 54.997 200.31 54.8932 200.31C54.7964 200.31 54.7064 199.853 54.7064 199.279C54.7064 198.711 54.7825 198.248 54.8794 198.248Z" fill="#455A64"/>
<path d="M54.824 194.124C54.9209 194.124 55.0108 194.581 55.0177 195.155C55.0247 195.722 54.9486 196.186 54.8517 196.186C54.7548 196.186 54.6649 195.729 54.658 195.155C54.6511 194.588 54.7272 194.131 54.824 194.124Z" fill="#455A64"/>
<path d="M54.7548 190.008C54.8517 190.008 54.9416 190.464 54.9555 191.032C54.9693 191.599 54.8932 192.063 54.7963 192.063C54.6995 192.063 54.6095 191.606 54.5957 191.039C54.5819 190.471 54.651 190.008 54.7548 190.008Z" fill="#455A64"/>
<path d="M54.658 185.884C54.7549 185.884 54.8517 186.341 54.8656 186.908C54.8794 187.475 54.8102 187.939 54.7134 187.946C54.6165 187.946 54.5196 187.489 54.5058 186.922C54.492 186.348 54.5611 185.891 54.658 185.884Z" fill="#455A64"/>
<path d="M54.5127 181.761C54.6095 181.754 54.7133 182.217 54.7341 182.785C54.7548 183.352 54.6926 183.822 54.5957 183.822C54.4988 183.822 54.395 183.366 54.3743 182.798C54.3535 182.231 54.4158 181.767 54.5127 181.761Z" fill="#455A64"/>
<path d="M54.2774 177.644C54.3743 177.637 54.485 178.094 54.5265 178.661C54.5611 179.228 54.5127 179.699 54.4158 179.699C54.319 179.706 54.2083 179.249 54.1667 178.682C54.1252 178.121 54.1737 177.651 54.2774 177.644Z" fill="#455A64"/>
<path d="M53.8969 173.541C53.9938 173.527 54.1252 173.984 54.1806 174.551C54.2359 175.119 54.2013 175.589 54.1045 175.596C54.0076 175.603 53.8761 175.153 53.8208 174.586C53.7654 174.018 53.8 173.555 53.8969 173.541Z" fill="#455A64"/>
<path d="M53.5026 170.476C53.5994 170.462 53.7101 170.677 53.7516 170.967C53.7932 171.251 53.7447 171.493 53.6479 171.507C53.551 171.521 53.4334 171.299 53.3988 171.016C53.3573 170.732 53.3988 170.49 53.5026 170.476Z" fill="#455A64"/>
<path d="M56.1939 151C56.2216 151 56.2285 151.277 56.2147 151.761C56.2078 152.252 56.1801 152.958 56.1455 153.837C56.0694 155.587 55.9379 158.009 55.7719 160.679C55.6819 162.008 55.5989 163.274 55.5228 164.443C55.4329 165.591 55.419 166.664 55.0731 167.522C54.7479 168.387 54.1045 168.878 53.634 169.051C53.3918 169.141 53.1981 169.162 53.0667 169.162C52.9352 169.162 52.866 169.141 52.866 169.127C52.866 169.092 53.1497 169.127 53.5787 168.919C54.0007 168.719 54.5611 168.234 54.8309 167.432C55.1215 166.629 55.1215 165.585 55.1907 164.422C55.2599 163.253 55.3291 161.987 55.4121 160.658C55.5782 157.988 55.7442 155.573 55.8895 153.823C55.9587 152.951 56.021 152.245 56.0763 151.754C56.1317 151.27 56.1732 151 56.1939 151Z" fill="#455A64"/>
<path d="M54.2913 152.64C54.2913 152.591 54.6026 152.647 54.7133 153.055C54.7618 153.242 54.7549 153.511 54.5611 153.747C54.3674 153.989 53.9869 154.044 53.6963 153.92C53.3988 153.809 53.1705 153.498 53.1981 153.193C53.2189 152.896 53.4057 152.695 53.5717 152.591C53.9384 152.377 54.2014 152.557 54.1668 152.584C54.1529 152.64 53.9384 152.598 53.724 152.792C53.6202 152.889 53.5233 153.041 53.5302 153.193C53.5302 153.345 53.6479 153.505 53.8347 153.581C54.0215 153.657 54.2152 153.622 54.319 153.518C54.4297 153.408 54.4712 153.235 54.4643 153.096C54.4504 152.813 54.2636 152.688 54.2913 152.64Z" fill="#455A64"/>
<path d="M36.8284 155.573C36.8491 155.518 37.4303 155.774 38.4128 155.912C39.3883 156.051 40.7997 156.009 42.1766 155.393C43.5534 154.777 44.5289 153.753 45.0755 152.93C45.629 152.107 45.8227 151.505 45.8781 151.526C45.9127 151.533 45.8089 152.176 45.29 153.069C44.7849 153.954 43.7817 155.068 42.3288 155.718C40.8689 156.369 39.3745 156.369 38.3782 156.154C37.3611 155.954 36.8145 155.601 36.8284 155.573Z" fill="#455A64"/>
<path d="M67.6928 151C67.7551 151 67.7689 151.505 68.0042 152.273C68.2325 153.034 68.7445 154.051 69.6578 154.847C70.571 155.642 71.6434 156.016 72.4253 156.147C73.214 156.286 73.7191 156.23 73.726 156.293C73.7329 156.327 73.2278 156.48 72.3907 156.403C71.5673 156.334 70.3981 155.981 69.4156 155.123C68.4401 154.266 67.9281 153.159 67.7551 152.342C67.5683 151.519 67.6513 151 67.6928 151Z" fill="#455A64"/>
<path d="M78.1056 153.83L37.2089 151L38.6273 131.461L38.648 120.537L34.6767 126.681L22.3337 115.95L35.6038 98.6321C37.8662 96.2866 40.5092 94.55 43.671 93.4084C45.207 92.8549 46.8398 92.5228 48.7286 92.4398C52.8038 93.699 56.872 93.699 60.9471 92.4467C62.6214 92.6543 66.5028 92.9034 72.0517 94.5085L87.5358 98.6943L82.4367 117.714L73.0826 114.566C73.0756 114.559 78.2024 149.879 78.1056 153.83Z" fill="#779FFF"/>
<path d="M38.2468 121.173C38.1637 121.118 38.738 120.066 39.5267 118.828C40.3155 117.589 41.0281 116.621 41.1111 116.676C41.1941 116.725 40.6199 117.776 39.8311 119.022C39.0424 120.26 38.3298 121.222 38.2468 121.173Z" fill="#263238"/>
<g opacity="0.6">
<path d="M86.9615 98.895C86.9615 98.9918 75.4972 99.0749 61.3553 99.0749C47.2134 99.0749 35.7491 98.9918 35.7491 98.895C35.7491 98.7981 47.2134 98.7151 61.3553 98.7151C75.4972 98.7151 86.9615 98.7912 86.9615 98.895Z" fill="white"/>
</g>
<g opacity="0.6">
<path d="M84.4846 107.723C84.4846 107.82 72.107 107.903 56.8512 107.903C41.5816 107.903 29.2109 107.82 29.2109 107.723C29.2109 107.626 41.5816 107.543 56.8512 107.543C72.1139 107.543 84.4846 107.626 84.4846 107.723Z" fill="white"/>
</g>
<g opacity="0.6">
<path d="M73.726 117.437C73.726 117.534 62.656 117.617 48.9984 117.617C35.3409 117.617 24.264 117.534 24.264 117.437C24.264 117.34 35.3339 117.257 48.9984 117.257C62.656 117.257 73.726 117.333 73.726 117.437Z" fill="white"/>
</g>
<g opacity="0.6">
<path d="M75.0405 128.009C75.0405 128.106 66.8972 128.189 56.8512 128.189C46.8052 128.189 38.6619 128.106 38.6619 128.009C38.6619 127.912 46.8052 127.829 56.8512 127.829C66.8972 127.829 75.0405 127.905 75.0405 128.009Z" fill="white"/>
</g>
<g opacity="0.6">
<path d="M76.0853 138.975C76.0853 139.072 67.7274 139.155 57.4185 139.155C47.1027 139.155 38.7449 139.072 38.7449 138.975C38.7449 138.878 47.1027 138.795 57.4185 138.795C67.7274 138.795 76.0853 138.871 76.0853 138.975Z" fill="white"/>
</g>
<g opacity="0.6">
<path d="M77.7734 149.028C77.7734 149.125 68.7237 149.208 57.5638 149.208C46.397 149.208 37.3542 149.125 37.3542 149.028C37.3542 148.931 46.4039 148.848 57.5638 148.848C68.7237 148.848 77.7734 148.931 77.7734 149.028Z" fill="white"/>
</g>
</g>
<defs>
<clipPath id="clip0_1166_2514">
<rect width="284" height="287.674" fill="white" transform="translate(0 0.116211)"/>
</clipPath>
</defs>
</svg>
