<svg width="350" height="267" viewBox="0 0 350 267" fill="none" xmlns="http://www.w3.org/2000/svg">
<g clip-path="url(#clip0_1166_2075)">
<path opacity="0.4" d="M288.715 39.0408C288.715 39.0408 261.574 2.70898 216.511 0.151704C171.448 -2.40557 146.353 28.2986 127.925 51.3225C109.489 74.3464 53.6753 61.0469 19.8758 96.3525C-13.9238 131.658 2.4667 152.125 17.3166 172.6C32.1665 193.075 46.5029 196.137 46.5029 213.028C46.5029 229.911 54.6939 252.431 86.9614 257.545C119.22 262.66 152.506 231.451 175.547 243.219C198.588 254.988 237.254 264.199 260.934 257.545C284.615 250.891 277.451 226.328 303.051 218.143C328.651 209.958 353.233 184.368 349.647 156.743C346.06 129.109 325.579 123.995 316.874 97.3871C308.178 70.7629 295.887 50.2962 288.715 39.0408Z" fill="#779FFF"/>
<path d="M319.559 263.29C319.559 264.771 272.442 265.974 214.33 265.974C156.219 265.974 109.101 264.771 109.101 263.29C109.101 261.81 156.219 260.607 214.33 260.607C272.442 260.607 319.559 261.81 319.559 263.29Z" fill="#263238"/>
<path d="M236.311 63.5702H137.429C134.356 63.5702 131.856 61.0802 131.856 58.0014V19.3814C131.856 16.311 134.348 13.8126 137.429 13.8126H236.311C239.383 13.8126 241.883 16.3026 241.883 19.3814V58.0014C241.883 61.0802 239.392 63.5702 236.311 63.5702Z" fill="#779FFF"/>
<path opacity="0.1" d="M236.311 63.5702H137.429C134.356 63.5702 131.856 61.0802 131.856 58.0014V19.3814C131.856 16.311 134.348 13.8126 137.429 13.8126H236.311C239.383 13.8126 241.883 16.3026 241.883 19.3814V58.0014C241.883 61.0802 239.392 63.5702 236.311 63.5702Z" fill="black"/>
<path d="M131.865 54.8217V72.7899L141.891 61.2485" fill="#779FFF"/>
<path opacity="0.1" d="M131.865 54.8217V72.7899L141.891 61.2485" fill="black"/>
<path d="M216.519 41.1099H145.502C144.408 41.1099 143.515 40.2182 143.515 39.1247C143.515 38.0311 144.399 37.1394 145.502 37.1394H216.519C217.613 37.1394 218.506 38.0311 218.506 39.1247C218.497 40.2182 217.613 41.1099 216.519 41.1099Z" fill="white"/>
<path d="M216.519 50.2286H145.502C144.408 50.2286 143.515 49.3369 143.515 48.2433C143.515 47.1497 144.399 46.2581 145.502 46.2581H216.519C217.613 46.2581 218.506 47.1497 218.506 48.2433C218.497 49.3369 217.613 50.2286 216.519 50.2286Z" fill="white"/>
<path d="M149.467 31.9912C153.41 31.9912 156.606 28.7974 156.606 24.8577C156.606 20.918 153.41 17.7242 149.467 17.7242C145.525 17.7242 142.328 20.918 142.328 24.8577C142.328 28.7974 145.525 31.9912 149.467 31.9912Z" fill="white"/>
<path d="M236.311 130.901H137.429C134.356 130.901 131.856 128.411 131.856 125.332V86.7119C131.856 83.6415 134.348 81.1431 137.429 81.1431H236.311C239.383 81.1431 241.883 83.633 241.883 86.7119V125.34C241.883 128.411 239.392 130.901 236.311 130.901Z" fill="#779FFF"/>
<path opacity="0.1" d="M236.311 130.901H137.429C134.356 130.901 131.856 128.411 131.856 125.332V86.7119C131.856 83.6415 134.348 81.1431 137.429 81.1431H236.311C239.383 81.1431 241.883 83.633 241.883 86.7119V125.34C241.883 128.411 239.392 130.901 236.311 130.901Z" fill="black"/>
<path d="M131.865 122.152V140.12L141.891 128.579" fill="#779FFF"/>
<path opacity="0.1" d="M131.865 122.152V140.12L141.891 128.579" fill="black"/>
<path d="M216.519 108.44H145.502C144.408 108.44 143.515 107.557 143.515 106.455C143.515 105.362 144.399 104.47 145.502 104.47H216.519C217.613 104.47 218.506 105.362 218.506 106.455C218.497 107.557 217.613 108.44 216.519 108.44Z" fill="white"/>
<path d="M216.519 117.559H145.502C144.408 117.559 143.515 116.667 143.515 115.574C143.515 114.48 144.399 113.589 145.502 113.589H216.519C217.613 113.589 218.506 114.48 218.506 115.574C218.497 116.676 217.613 117.559 216.519 117.559Z" fill="white"/>
<path d="M149.467 99.3216C153.41 99.3216 156.606 96.1278 156.606 92.1881C156.606 88.2484 153.41 85.0547 149.467 85.0547C145.525 85.0547 142.328 88.2484 142.328 92.1881C142.328 96.1278 145.525 99.3216 149.467 99.3216Z" fill="white"/>
<path d="M55.4599 179.741C55.3841 179.766 55.0474 174.467 55.0642 174.13C55.2662 170.236 57.9433 162.816 62.1693 161.689C65.2167 160.873 68.02 163.094 68.4998 166.072C68.9881 169.117 67.0098 172.364 64.9894 174.467C62.6154 176.94 55.4599 179.741 55.4599 179.741Z" fill="#263238"/>
<path d="M49.9374 159.426C49.8617 159.443 50.3331 154.152 50.4004 153.824C51.1917 149.996 54.9547 143.073 59.307 142.602C62.4386 142.257 64.8799 144.873 64.9052 147.893C64.9304 150.98 62.4723 153.882 60.1573 155.657C57.4381 157.744 49.9374 159.418 49.9374 159.426Z" fill="#263238"/>
<path d="M48.54 135.435C48.4642 135.452 48.9356 130.16 49.003 129.832C49.7943 126.005 53.5573 119.082 57.9095 118.61C61.0412 118.266 63.4825 120.882 63.5077 123.902C63.533 126.989 61.0748 129.891 58.7598 131.666C56.0407 133.761 48.54 135.435 48.54 135.435Z" fill="#263238"/>
<path d="M46.1239 112.882C46.0482 112.899 46.5196 107.608 46.5869 107.279C47.3783 103.452 51.1413 96.5288 55.4935 96.0578C58.6251 95.7129 61.0665 98.329 61.0917 101.349C61.117 104.436 58.6588 107.338 56.3438 109.113C53.6247 111.2 46.1239 112.882 46.1239 112.882Z" fill="#263238"/>
<path d="M38.9263 94.7539C38.8589 94.7875 37.9077 89.5636 37.8908 89.2271C37.6383 85.3323 39.4482 77.6521 43.5143 76.0538C46.4438 74.8929 49.4913 76.7772 50.3078 79.6794C51.1497 82.6489 49.5502 86.0978 47.7823 88.428C45.7199 91.1535 38.9347 94.7539 38.9263 94.7539Z" fill="#263238"/>
<path d="M53.2543 179.8C53.33 179.792 51.0318 174.997 50.855 174.711C48.7757 171.405 42.8071 166.248 38.5727 167.325C35.5169 168.107 34.1531 171.405 35.197 174.248C36.2577 177.15 39.5745 179.009 42.3694 179.859C45.6357 180.86 53.2458 179.8 53.2543 179.8Z" fill="#263238"/>
<path d="M48.8094 156.701C48.8852 156.675 45.8883 152.293 45.6694 152.04C43.1102 149.088 36.4345 144.89 32.4105 146.598C29.5062 147.834 28.6644 151.3 30.1208 153.95C31.6108 156.65 35.1718 157.988 38.0592 158.408C41.4434 158.904 48.801 156.701 48.8094 156.701Z" fill="#263238"/>
<path d="M47.5382 134.08C47.614 134.055 44.617 129.672 44.3982 129.42C41.839 126.467 35.1633 122.27 31.1393 123.977C28.235 125.214 27.3932 128.68 28.8495 131.33C30.3396 134.03 33.9005 135.367 36.788 135.788C40.1722 136.276 47.5298 134.08 47.5382 134.08Z" fill="#263238"/>
<path d="M45.3579 113.311C45.4337 113.286 42.4367 108.903 42.2179 108.651C39.6587 105.698 32.983 101.5 28.959 103.208C26.0547 104.445 25.2129 107.91 26.6692 110.56C28.1593 113.26 31.7202 114.598 34.6077 115.019C37.9919 115.515 45.3495 113.311 45.3579 113.311Z" fill="#263238"/>
<path d="M38.9684 95.4353C39.0441 95.4016 35.5758 91.3722 35.3316 91.1451C32.461 88.4953 25.3644 85.0547 21.5509 87.1914C18.8065 88.7392 18.3435 92.2807 20.0861 94.7539C21.8623 97.2775 25.5496 98.2113 28.4707 98.3122C31.8885 98.43 38.9599 95.4437 38.9684 95.4353Z" fill="#263238"/>
<path d="M29.784 80.6636C29.8597 80.672 28.6475 75.4985 28.5381 75.1789C27.208 71.5028 22.4937 65.1853 18.1246 65.3283C14.9762 65.4293 12.9305 68.3651 13.3346 71.3598C13.7471 74.4218 16.5925 76.9454 19.1348 78.3755C22.1149 80.0579 29.7756 80.6636 29.784 80.6636Z" fill="#263238"/>
<path d="M62.8175 206.996C62.8175 206.996 61.9167 204.936 60.494 201.327C59.0713 197.71 57.1183 192.511 55.0642 186.185C54.0287 183.022 52.968 179.573 51.9494 175.897C51.4191 174.046 50.9476 172.196 50.4341 170.194C50.2237 169.218 50.0048 168.234 49.7859 167.241C49.5502 166.265 49.4239 165.197 49.2303 164.162C48.5568 159.998 48.1612 155.716 47.9423 151.35C47.7234 146.985 47.6392 142.568 47.5382 138.152C47.4372 133.744 47.3109 129.336 46.9658 125.021C46.6206 120.714 46.0566 116.491 45.1558 112.478C44.2467 108.474 42.8661 104.705 41.4013 101.248C39.9365 97.7654 38.2444 94.6024 36.6197 91.7255C34.9949 88.8401 33.3365 86.3081 31.8465 84.0705C30.3396 81.8413 28.9506 79.9485 27.7888 78.4091C25.4486 75.3303 23.9838 73.6815 23.9838 73.6815C23.9838 73.6815 25.4906 75.3051 27.8983 78.3334C29.1021 79.8476 30.5248 81.7151 32.0906 83.9106C33.6312 86.123 35.3569 88.6298 37.049 91.4899C38.7495 94.3416 40.5089 97.4878 42.0663 100.97C43.6321 104.461 45.1053 108.205 46.1155 112.259C47.1257 116.306 47.7824 120.571 48.2285 124.92C48.6747 129.269 48.902 133.693 49.0956 138.11C49.2976 142.526 49.4744 146.934 49.7775 151.249C50.0806 155.556 50.5772 159.796 51.3096 163.792C51.5201 164.793 51.6464 165.769 51.9073 166.761C52.1515 167.746 52.3872 168.73 52.6229 169.697C53.1448 171.548 53.6752 173.457 54.2308 175.249C55.3167 178.866 56.4364 182.256 57.5308 185.369C59.7027 191.594 61.7568 196.692 63.23 200.242C64.7116 203.791 65.6292 205.76 65.6292 205.76C65.9912 206.525 65.6544 207.442 64.8884 207.804C64.1223 208.166 63.2047 207.829 62.8427 207.064C62.8427 207.055 62.8343 207.047 62.8343 207.039L62.8175 206.996Z" fill="#263238"/>
<path d="M82.6427 174.391C82.5669 174.4 83.7455 169.218 83.8549 168.898C85.1513 165.214 89.8319 158.862 94.201 158.989C97.3495 159.073 99.4119 161.992 99.0247 164.995C98.629 168.057 95.8005 170.606 93.2666 172.044C90.3033 173.743 82.6511 174.391 82.6427 174.391Z" fill="#263238"/>
<path d="M83.1309 153.344C83.0552 153.336 85.0082 148.398 85.1682 148.103C87.0118 144.663 92.5931 139.094 96.9033 139.868C100.001 140.432 101.601 143.628 100.759 146.53C99.9002 149.5 96.7265 151.586 93.999 152.629C90.8 153.857 83.1309 153.344 83.1309 153.344Z" fill="#263238"/>
<path d="M88.6113 129.95C88.5355 129.942 90.4886 125.004 90.6485 124.709C92.4921 121.269 98.0735 115.7 102.384 116.474C105.482 117.037 107.081 120.234 106.239 123.136C105.381 126.106 102.207 128.192 99.4793 129.235C96.2804 130.472 88.6197 129.95 88.6113 129.95Z" fill="#263238"/>
<path d="M92.7109 107.641C92.6267 107.633 94.5882 102.695 94.7481 102.4C96.5917 98.9599 102.173 93.3911 106.483 94.165C109.581 94.7286 111.181 97.9252 110.339 100.827C109.48 103.797 106.306 105.883 103.579 106.926C100.388 108.154 92.7193 107.641 92.7109 107.641Z" fill="#263238"/>
<path d="M90.9683 88.2176C90.8926 88.2345 91.4734 82.9517 91.5492 82.6236C92.4163 78.8129 96.3308 71.9739 100.692 71.5869C103.832 71.3093 106.214 73.976 106.172 76.9959C106.13 80.0831 103.613 82.9348 101.264 84.6593C98.5112 86.6866 90.9768 88.2092 90.9683 88.2176Z" fill="#263238"/>
<path d="M80.5128 173.819C80.5886 173.828 79.7467 168.587 79.6625 168.259C78.6103 164.499 74.359 157.853 69.9815 157.693C66.833 157.575 64.5853 160.351 64.7705 163.371C64.9642 166.45 67.6159 169.176 70.0488 170.782C72.9111 172.675 80.5128 173.819 80.5128 173.819Z" fill="#263238"/>
<path d="M82.8278 150.417C82.912 150.417 81.2788 145.361 81.1442 145.05C79.5278 141.491 74.3253 135.569 69.973 136.066C66.8414 136.427 65.0399 139.515 65.6881 142.467C66.3447 145.479 69.3838 147.775 72.0355 148.995C75.1419 150.434 82.8194 150.417 82.8278 150.417Z" fill="#263238"/>
<path d="M88.0388 128.36C88.1229 128.36 86.4898 123.305 86.3551 122.993C84.7388 119.435 79.5363 113.513 75.184 114.009C72.0524 114.371 70.2508 117.458 70.8991 120.411C71.5557 123.422 74.5947 125.719 77.2465 126.939C80.3528 128.377 88.0388 128.36 88.0388 128.36Z" fill="#263238"/>
<path d="M91.8607 107.835C91.9448 107.835 90.3117 102.779 90.177 102.468C88.5607 98.9095 83.3581 92.9873 79.0059 93.4837C75.8743 93.8454 74.0727 96.9326 74.721 99.8853C75.3776 102.897 78.4166 105.193 81.0684 106.413C84.1747 107.852 91.8522 107.835 91.8607 107.835Z" fill="#263238"/>
<path d="M90.8169 88.8822C90.8926 88.8738 88.7207 84.0284 88.5523 83.734C86.5572 80.3776 80.7317 75.0611 76.4636 76.0285C73.3909 76.7267 71.943 79.9906 72.9027 82.8591C73.8876 85.7865 77.1539 87.7297 79.9236 88.6551C83.1814 89.7402 90.8084 88.8822 90.8169 88.8822Z" fill="#263238"/>
<path d="M86.212 72.1085C86.2877 72.1337 86.5908 66.8341 86.574 66.4976C86.3551 62.6028 83.6275 55.2001 79.3931 54.0982C76.3457 53.3074 73.5508 55.5366 73.0878 58.5229C72.6164 61.5765 74.62 64.8068 76.6488 66.9014C79.0396 69.3493 86.212 72.1 86.212 72.1085Z" fill="#263238"/>
<path d="M81.9523 202.614C81.9523 202.614 81.6745 200.385 81.3378 196.515C81.0094 192.645 80.6054 187.11 80.437 180.448C80.3444 177.125 80.3107 173.516 80.3781 169.697C80.3949 167.779 80.4791 165.861 80.5464 163.8C80.6138 162.808 80.6896 161.798 80.7653 160.789C80.8158 159.779 81.001 158.728 81.1105 157.685C81.6492 153.504 82.4911 149.281 83.5265 145.033C84.562 140.793 85.7405 136.528 86.8938 132.263C88.0556 128.007 89.1836 123.75 90.076 119.511C90.9683 115.279 91.6334 111.073 91.9027 106.968C92.1721 102.872 91.9196 98.8673 91.4987 95.1324C91.0778 91.3722 90.3706 87.8643 89.6214 84.6425C88.889 81.4206 88.0135 78.5101 87.2222 75.9444C86.4056 73.3787 85.6227 71.1747 84.9408 69.3661C83.5686 65.7573 82.6342 63.7468 82.6342 63.7468C82.6342 63.7468 83.6107 65.7321 85.0587 69.3156C85.7742 71.1074 86.616 73.303 87.4831 75.8518C88.3334 78.4091 89.2678 81.3029 90.076 84.5247C90.8925 87.7381 91.6839 91.2544 92.189 95.0398C92.7025 98.8253 93.0392 102.838 92.8624 107.019C92.6772 111.191 92.0964 115.464 91.2882 119.755C90.4801 124.053 89.4362 128.36 88.3671 132.642C87.2979 136.932 86.2204 141.205 85.2859 145.428C84.3515 149.651 83.6191 153.849 83.1814 157.895C83.0972 158.913 82.9372 159.889 82.912 160.915C82.8615 161.933 82.811 162.934 82.7605 163.935C82.7352 165.853 82.6931 167.838 82.7184 169.714C82.7352 173.491 82.8446 177.058 83.0046 180.347C83.3161 186.934 83.8296 192.401 84.2421 196.221C84.6546 200.048 84.9745 202.193 84.9745 202.193C85.1007 203.034 84.5199 203.817 83.6781 203.934C82.8362 204.061 82.0533 203.48 81.9355 202.639C81.9355 202.631 81.9355 202.622 81.9355 202.614H81.9523Z" fill="#263238"/>
<path d="M91.7176 258.243H56.0744L46.0482 199.905H101.735L91.7176 258.243Z" fill="#263238"/>
<path d="M154.501 263.753C197.308 263.753 232.009 229.077 232.009 186.303C232.009 143.528 197.308 108.853 154.501 108.853C111.695 108.853 76.9939 143.528 76.9939 186.303C76.9939 229.077 111.695 263.753 154.501 263.753Z" fill="#779FFF" stroke="#263238" stroke-width="0.9124" stroke-miterlimit="10" stroke-linecap="round" stroke-linejoin="round"/>
<path d="M133.969 237.238C127.15 234.664 121.249 231.038 116.274 226.353C111.299 221.676 107.392 215.787 104.572 208.704C101.752 201.621 100.338 193.789 100.338 185.209C100.338 178.05 101.525 171.363 103.907 165.138C106.29 158.913 109.497 153.571 113.546 149.113C117.595 144.654 122.268 140.802 127.563 137.571C132.858 134.333 138.464 131.935 144.374 130.362C150.284 128.798 156.236 128.007 162.221 128.007C167.373 128.007 172.315 128.596 177.046 129.773C181.777 130.951 186.222 132.785 190.363 135.292C194.505 137.79 198.125 140.852 201.215 144.486C204.304 148.112 206.737 152.511 208.496 157.685C210.264 162.858 211.148 168.528 211.148 174.702C211.148 180.49 210.096 186.059 207.983 191.426C205.87 196.793 203.176 201.327 199.893 205.028C196.61 208.729 192.965 211.682 188.966 213.886C184.967 216.09 181.078 217.192 177.307 217.192C174.411 217.192 171.801 216.334 169.469 214.618C167.137 212.902 165.9 210.479 165.757 207.341C160.95 214.105 154.451 217.486 146.26 217.486C139.584 217.486 134.264 215.207 130.29 210.647C126.317 206.088 124.33 200.477 124.33 193.806C124.33 188.86 125.197 183.905 126.94 178.951C128.682 174.004 131.048 169.512 134.036 165.491C137.025 161.47 140.796 158.198 145.334 155.674C149.871 153.151 154.687 151.889 159.796 151.889C163.475 151.889 166.851 152.713 169.915 154.354C172.98 155.994 175.32 158.383 176.945 161.521L177.61 159.392C178.494 156.65 180.405 155.27 183.351 155.27C184.723 155.27 185.902 155.666 186.887 156.448C187.863 157.23 188.36 158.332 188.36 159.754C188.36 160.343 188.259 160.932 188.065 161.521L177.618 196.229C176.439 200.199 175.85 202.917 175.85 204.389C175.85 206.887 177.121 208.14 179.672 208.14C183.006 208.14 186.281 206.609 189.496 203.547C192.712 200.485 195.322 196.414 197.334 191.342C199.346 186.269 200.348 181.011 200.348 175.569C200.348 170.471 199.657 165.786 198.285 161.521C196.913 157.256 195.044 153.638 192.695 150.677C190.338 147.716 187.543 145.21 184.311 143.174C181.07 141.138 177.618 139.641 173.939 138.69C170.26 137.731 166.405 137.26 162.389 137.26C157.481 137.26 152.616 137.95 147.784 139.321C142.951 140.692 138.355 142.762 133.986 145.529C129.617 148.297 125.753 151.586 122.394 155.38C119.035 159.182 116.358 163.725 114.371 169.016C112.385 174.307 111.391 179.968 111.391 186C111.391 193.453 112.62 200.157 115.07 206.113C117.52 212.069 120.87 216.897 125.113 220.599C129.356 224.3 134.213 227.135 139.685 229.095C145.157 231.055 151.008 232.039 157.237 232.039C163.711 232.039 169.991 231.08 176.077 229.171C176.616 228.977 177.256 228.876 177.988 228.876C179.361 228.876 180.463 229.331 181.297 230.239C182.13 231.148 182.551 232.191 182.551 233.36C182.551 235.513 181.541 236.893 179.537 237.482C171.447 239.879 163.618 241.082 156.067 241.082C148.146 241.099 140.788 239.812 133.969 237.238ZM160.571 203.859C163.879 201.386 166.127 198.307 167.306 194.631L174.074 170.959L173.636 170C173.342 169.411 172.828 168.688 172.087 167.83C171.355 166.972 170.479 166.114 169.478 165.256C168.467 164.398 167.12 163.666 165.428 163.052C163.736 162.438 161.935 162.135 160.024 162.135C157.869 162.135 155.764 162.572 153.735 163.455C151.698 164.339 149.871 165.525 148.255 167.022C146.639 168.52 145.149 170.261 143.802 172.246C142.455 174.231 141.327 176.326 140.418 178.53C139.508 180.734 138.81 183.005 138.321 185.335C137.833 187.665 137.589 189.903 137.589 192.065C137.589 193.63 137.673 195.076 137.85 196.406C138.018 197.726 138.304 198.98 138.7 200.157C139.096 201.335 139.593 202.378 140.207 203.278C140.822 204.187 141.554 204.961 142.413 205.592C143.271 206.231 144.29 206.719 145.468 207.064C146.647 207.409 147.969 207.577 149.442 207.577C153.542 207.577 157.254 206.332 160.571 203.859Z" fill="white"/>
<path d="M259.907 121.168C259.907 121.168 257.407 125.862 257.011 126.526C256.616 127.191 255.285 130.766 255.69 131.557C256.085 132.348 256.481 132.877 257.281 133.012C258.072 133.147 258.737 134.602 260.067 134.863C261.389 135.124 262.584 135.124 262.584 135.124C262.584 135.124 263.249 135.653 264.041 135.384C264.832 135.124 265.497 134.72 266.027 132.474C266.558 130.219 266.288 129.033 266.288 129.033L266.052 124.491L259.907 121.168Z" fill="white" stroke="#263238" stroke-width="0.9124" stroke-miterlimit="10" stroke-linecap="round" stroke-linejoin="round"/>
<path d="M274.496 247.56C274.496 247.56 270.901 253.414 270.901 254.828C270.901 256.241 275.851 258.832 277.973 259.774C280.094 260.716 283.866 261.423 286.93 261.894C289.994 262.365 296.358 263.543 294.473 261.187C292.587 258.832 281.273 252.472 280.801 251.766C280.33 251.059 278.848 249.865 278.848 249.865L274.496 247.56Z" fill="white" stroke="#263238" stroke-width="0.9124" stroke-miterlimit="10" stroke-linecap="round" stroke-linejoin="round"/>
<path d="M280.136 256.771L281.399 258.664C282.771 260.716 284.598 262.424 286.77 263.593C290.137 265.41 295.323 267.488 299.852 266.243C307.277 264.199 288.588 252.935 288.588 252.935C288.588 252.935 281.921 257.536 280.136 256.771Z" fill="white" stroke="#263238" stroke-width="0.9124" stroke-miterlimit="10" stroke-linecap="round" stroke-linejoin="round"/>
<path d="M282.275 257.663C282.275 257.663 284.893 262.239 290.996 263.98C297.099 265.721 298.842 265.284 300.155 263.543" stroke="#263238" stroke-width="0.6843" stroke-miterlimit="10" stroke-linecap="round" stroke-linejoin="round"/>
<path d="M271.373 253.743C271.373 253.743 278.116 258.563 281.391 258.655" stroke="#263238" stroke-width="0.6843" stroke-miterlimit="10" stroke-linecap="round" stroke-linejoin="round"/>
<path d="M256.75 122.783C256.75 122.783 262.727 132.684 264.007 134.981C265.287 137.285 281.416 155.708 287.822 171.565C294.22 187.43 300.366 201.756 300.113 206.357C299.861 210.959 278.865 249.848 278.865 249.848L274.513 247.543C274.513 247.543 281.172 210.959 280.406 207.114C279.64 203.278 256.085 165.155 256.085 165.155C256.085 165.155 245.074 157.483 240.469 148.524" fill="#263238"/>
<path d="M257.601 147.523C257.601 147.523 254.275 154.69 254.275 155.708C254.275 156.734 272.964 211.741 278.343 224.275C283.723 236.809 287.309 248.838 287.309 248.838C287.309 248.838 289.354 251.396 287.822 253.953C286.29 256.51 280.145 258.302 278.857 255.997C277.577 253.692 265.034 241.671 259.655 229.642C254.275 217.621 246.598 197.146 242.246 189.474C237.893 181.802 232.514 172.33 226.882 159.031C221.25 145.723 215.442 131.313 215.442 131.313C215.442 131.313 226.192 132.592 237.969 128.756C249.746 124.92 254.78 117.576 254.78 117.576C254.78 117.576 257.777 125.231 258.552 126.711" fill="#263238"/>
<path d="M259.352 168.839L253.459 153.521L260.059 147.868" stroke="white" stroke-width="0.6843" stroke-miterlimit="10" stroke-linecap="round" stroke-linejoin="round"/>
<path d="M265.716 153.05L253.459 153.521C253.459 153.521 253.459 148.81 251.337 145.748C249.216 142.686 248.745 142.215 248.509 141.273C248.273 140.331 248.509 138.682 248.509 138.682" stroke="white" stroke-width="0.6843" stroke-miterlimit="10" stroke-linecap="round" stroke-linejoin="round"/>
<path d="M281.281 204.406C281.281 204.406 289.06 208.41 294.481 207.939" stroke="white" stroke-width="0.6843" stroke-miterlimit="10" stroke-linecap="round" stroke-linejoin="round"/>
<path d="M282.696 206.769C282.696 206.769 288.117 211.245 292.831 212.422" stroke="white" stroke-width="0.6843" stroke-miterlimit="10" stroke-linecap="round" stroke-linejoin="round"/>
<path d="M251.573 136.091C251.337 136.798 252.516 140.095 253.223 141.744C253.93 143.393 256.287 144.57 256.287 145.748C256.287 146.926 253.223 149.046 253.223 149.046" stroke="white" stroke-width="0.6843" stroke-miterlimit="10" stroke-linecap="round" stroke-linejoin="round"/>
<path d="M231.302 142.215C231.302 142.215 229.887 146.926 227.53 148.81C225.173 150.694 225.173 150.694 225.173 150.694" stroke="white" stroke-width="0.6843" stroke-miterlimit="10" stroke-linecap="round" stroke-linejoin="round"/>
<path d="M221.865 141.273C221.865 141.273 225.872 154.463 231.765 164.6C237.658 174.728 251.093 196.641 251.565 200.881C252.036 205.121 251.565 209.36 254.865 211.48C258.165 213.6 257.929 214.542 258.4 217.369C258.872 220.195 260.286 223.257 260.286 223.257C260.286 223.257 269.715 239.274 273.015 245.162C276.315 251.051 281.121 256.847 281.121 256.847" stroke="white" stroke-width="0.6843" stroke-miterlimit="10" stroke-linecap="round" stroke-linejoin="round"/>
<path d="M215.442 131.313C215.442 131.313 215.98 137.269 218.338 139.153C220.695 141.037 227.766 142.686 237.43 140.802C247.095 138.917 257.702 130.673 258.644 127.847C259.587 125.021 254.78 117.584 254.78 117.584C254.78 117.584 249.208 125.492 233.65 128.083C218.093 130.673 215.442 131.313 215.442 131.313Z" fill="white" stroke="#263238" stroke-width="0.9124" stroke-miterlimit="10" stroke-linecap="round" stroke-linejoin="round"/>
<path d="M277.569 73.5806C273.73 71.0233 243.769 47.7386 240.958 46.7123C238.138 45.6861 232.506 46.7123 232.506 46.7123C232.506 46.7123 215.147 48.8238 211.51 50.2959C211.174 50.4305 203.345 54.9226 203.058 55.1581C200.238 57.463 187.922 63.1328 184.589 70.2999C180.826 78.4091 213.893 127.225 215.433 131.321C216.965 135.418 225.047 136.411 232.472 135.393C239.897 134.366 246.413 132.861 251.792 126.72C252.71 125.668 253.577 124.087 254.225 122.724C254.991 121.126 255.193 119.317 254.781 117.593C252.861 109.601 247.962 86.5605 244.729 71.3093C250.117 74.7835 261.313 81.8413 267.837 84.3313C276.542 87.654 283.201 85.3575 283.201 82.5395C283.209 79.7214 281.416 76.1379 277.569 73.5806Z" fill="white"/>
<mask id="mask0_1166_2075" style="mask-type:luminance" maskUnits="userSpaceOnUse" x="184" y="46" width="100" height="90">
<path d="M277.569 73.5806C273.73 71.0233 243.769 47.7386 240.958 46.7123C238.138 45.6861 232.506 46.7123 232.506 46.7123C232.506 46.7123 215.147 48.8238 211.51 50.2959C211.174 50.4305 203.345 54.9226 203.058 55.1581C200.238 57.463 187.922 63.1328 184.589 70.2999C180.826 78.4091 213.893 127.225 215.433 131.321C216.965 135.418 225.047 136.411 232.472 135.393C239.897 134.366 246.413 132.861 251.792 126.72C252.71 125.668 253.577 124.087 254.225 122.724C254.991 121.126 255.193 119.317 254.781 117.593C252.861 109.601 247.962 86.5605 244.729 71.3093C250.117 74.7835 261.313 81.8413 267.837 84.3313C276.542 87.654 283.201 85.3575 283.201 82.5395C283.209 79.7214 281.416 76.1379 277.569 73.5806Z" fill="white"/>
</mask>
<g mask="url(#mask0_1166_2075)">
<path opacity="0.5" d="M244.392 65.2526C244.392 65.2526 248.492 66.7836 251.565 66.7836C254.637 66.7836 252.844 68.0622 251.565 68.5753C250.285 69.0885 259.756 67.8098 259.503 69.3408C259.251 70.8718 252.592 73.9423 252.592 73.9423C252.592 73.9423 258.224 77.5258 267.189 78.5437C276.155 79.57 270.514 84.9369 270.514 84.9369C270.514 84.9369 256.102 79.6457 244.746 71.2925L244.392 65.2526Z" fill="#779FFF"/>
</g>
<mask id="mask1_1166_2075" style="mask-type:luminance" maskUnits="userSpaceOnUse" x="184" y="46" width="100" height="90">
<path d="M277.569 73.5806C273.73 71.0233 243.769 47.7386 240.958 46.7123C238.138 45.6861 232.506 46.7123 232.506 46.7123C232.506 46.7123 215.147 48.8238 211.51 50.2959C211.174 50.4305 203.345 54.9226 203.058 55.1581C200.238 57.463 187.922 63.1328 184.589 70.2999C180.826 78.4091 213.893 127.225 215.433 131.321C216.965 135.418 225.047 136.411 232.472 135.393C239.897 134.366 246.413 132.861 251.792 126.72C252.71 125.668 253.577 124.087 254.225 122.724C254.991 121.126 255.193 119.317 254.781 117.593C252.861 109.601 247.962 86.5605 244.729 71.3093C250.117 74.7835 261.313 81.8413 267.837 84.3313C276.542 87.654 283.201 85.3575 283.201 82.5395C283.209 79.7214 281.416 76.1379 277.569 73.5806Z" fill="white"/>
</mask>
<g mask="url(#mask1_1166_2075)">
<g opacity="0.5">
<path d="M199.068 82.6488C199.068 82.6488 197.022 85.9716 198.041 86.2324C199.068 86.4847 209.566 82.1357 205.979 85.7192C202.393 89.3028 198.041 89.3028 199.834 90.3206C201.627 91.3469 206.232 91.3469 204.7 92.3648C203.168 93.3911 206.232 97.9925 213.918 107.204C221.595 116.415 224.929 122.808 233.381 127.157C241.833 131.506 247.465 131.506 242.347 132.785C237.228 134.064 231.849 134.829 231.596 137.134C231.596 137.134 231.849 138.926 228.776 140.204C225.704 141.483 223.91 141.231 221.604 140.204C219.297 139.178 218.531 139.178 218.018 137.899C217.504 136.621 215.442 131.304 215.442 131.304L211.771 123.456L210.593 121.782L209.566 121.016L191.643 90.3122L199.068 82.6488Z" fill="#779FFF"/>
</g>
</g>
<path d="M277.569 73.5806C273.73 71.0233 243.769 47.7386 240.958 46.7123C238.138 45.6861 232.506 46.7123 232.506 46.7123C232.506 46.7123 215.147 48.8238 211.51 50.2959C211.174 50.4305 203.345 54.9226 203.058 55.1581C200.238 57.463 187.922 63.1328 184.589 70.2999C180.826 78.4091 213.893 127.225 215.433 131.321C216.965 135.418 225.047 136.411 232.472 135.393C239.897 134.366 246.413 132.861 251.792 126.72C252.71 125.668 253.577 124.087 254.225 122.724C254.991 121.126 255.193 119.317 254.781 117.593C252.861 109.601 247.962 86.5605 244.729 71.3093C250.117 74.7835 261.313 81.8413 267.837 84.3313C276.542 87.654 283.201 85.3575 283.201 82.5395C283.209 79.7214 281.416 76.1379 277.569 73.5806Z" stroke="#263238" stroke-width="0.9124" stroke-miterlimit="10" stroke-linecap="round" stroke-linejoin="round"/>
<path d="M188.713 65.0591C188.713 65.0591 185.641 68.4408 184.445 69.9802C178.031 78.2156 157.616 104.604 157.389 106.733C157.17 108.752 158.138 110.299 163.13 112.217C168.122 114.135 201.509 80.6888 201.509 80.6888" fill="white"/>
<mask id="mask2_1166_2075" style="mask-type:luminance" maskUnits="userSpaceOnUse" x="157" y="65" width="45" height="48">
<path d="M188.713 65.0591C188.713 65.0591 185.641 68.4408 184.445 69.9802C178.031 78.2156 157.616 104.604 157.389 106.733C157.17 108.752 158.138 110.299 163.13 112.217C168.122 114.135 201.509 80.6888 201.509 80.6888" fill="white"/>
</mask>
<g mask="url(#mask2_1166_2075)">
<g opacity="0.5">
<path opacity="0.8" d="M190.616 64.4871L166.035 98.7748C166.035 98.7748 168.594 101.593 171.666 104.402C174.739 107.221 180.118 109.004 176.019 108.752C171.919 108.499 164.241 105.429 164.241 105.429C164.241 105.429 161.935 107.221 164.755 109.012C167.575 110.804 168.08 109.525 176.28 113.614C184.471 117.71 197.586 120.352 197.586 120.352L196.526 122.505L161.691 113.614C161.691 113.614 156.623 111.082 157.364 106.85C158.104 102.619 169.848 89.2018 169.848 89.2018L186.676 67.1537C186.668 67.1453 188.25 64.8151 190.616 64.4871Z" fill="#779FFF"/>
</g>
</g>
<path d="M188.713 65.0591C188.713 65.0591 185.641 68.4408 184.445 69.9802C178.031 78.2156 157.616 104.604 157.389 106.733C157.17 108.752 158.138 110.299 163.13 112.217C168.122 114.135 201.509 80.6888 201.509 80.6888" stroke="#263238" stroke-width="0.9124" stroke-miterlimit="10" stroke-linecap="round" stroke-linejoin="round"/>
<path d="M256.287 63.5281L244.737 71.3009C246.387 71.0653 254.402 68.2389 254.402 68.2389" stroke="#263238" stroke-width="0.6843" stroke-miterlimit="10" stroke-linecap="round" stroke-linejoin="round"/>
<path d="M255.816 68.0033L258.409 67.5322" stroke="#263238" stroke-width="0.6843" stroke-miterlimit="10" stroke-linecap="round" stroke-linejoin="round"/>
<path d="M170.244 98.5897C170.244 98.5897 167.887 98.3962 165.05 99.5739" stroke="#263238" stroke-width="0.9124" stroke-miterlimit="10" stroke-linecap="round" stroke-linejoin="round"/>
<path d="M195.414 87.0315C195.414 87.0315 201.897 85.0463 203.622 83.7256" stroke="#263238" stroke-width="0.6843" stroke-miterlimit="10" stroke-linecap="round" stroke-linejoin="round"/>
<path d="M205.213 83.0694C205.213 83.0694 206.274 82.144 206.67 82.144" stroke="#263238" stroke-width="0.6843" stroke-miterlimit="10" stroke-linecap="round" stroke-linejoin="round"/>
<path d="M244.737 71.3093L243.685 60.4913" stroke="#263238" stroke-width="0.9124" stroke-miterlimit="10" stroke-linecap="round" stroke-linejoin="round"/>
<path d="M157.364 106.842C157.364 106.842 155.874 112.537 165.428 114.901C169.966 116.02 199.994 123.347 199.994 123.347C199.994 123.347 202.679 117.593 201.147 117.593C199.615 117.593 171.961 99.1702 171.961 99.1702" fill="white"/>
<mask id="mask3_1166_2075" style="mask-type:luminance" maskUnits="userSpaceOnUse" x="157" y="99" width="45" height="25">
<path d="M157.364 106.842C157.364 106.842 155.874 112.537 165.428 114.901C169.966 116.02 199.994 123.347 199.994 123.347C199.994 123.347 202.679 117.593 201.147 117.593C199.615 117.593 171.961 99.1702 171.961 99.1702" fill="white"/>
</mask>
<g mask="url(#mask3_1166_2075)">
<path opacity="0.5" d="M190.616 64.4871L166.034 98.7748C166.034 98.7748 168.594 101.593 171.666 104.402C174.739 107.221 180.118 109.004 176.019 108.752C171.919 108.499 164.241 105.429 164.241 105.429C164.241 105.429 161.935 107.221 164.755 109.012C167.575 110.804 168.08 109.525 176.28 113.614C184.471 117.71 197.586 120.335 197.586 120.335L196.66 122.539L161.682 113.614C161.682 113.614 155.057 110.484 157.355 106.85C159.965 102.728 169.84 89.2018 169.84 89.2018L187.038 67.2967C187.038 67.2967 187.552 64.7394 190.616 64.4871Z" fill="#779FFF"/>
</g>
<path d="M157.364 106.842C157.364 106.842 155.874 112.537 165.428 114.901C169.966 116.02 199.994 123.347 199.994 123.347C199.994 123.347 202.679 117.593 201.147 117.593C199.615 117.593 171.961 99.1702 171.961 99.1702" stroke="#263238" stroke-width="0.9124" stroke-miterlimit="10" stroke-linecap="round" stroke-linejoin="round"/>
<path d="M201.147 117.584C201.147 117.584 211.005 122.186 211.771 123.473C212.537 124.751 214.33 131.405 214.33 133.449C214.33 135.494 214.078 135.494 212.798 135.494C211.519 135.494 208.193 130.631 207.419 129.605C206.653 128.579 204.86 128.579 202.553 127.048C200.247 125.517 199.994 123.338 199.994 123.338L201.147 117.584Z" fill="white" stroke="#263238" stroke-width="0.9124" stroke-miterlimit="10" stroke-linecap="round" stroke-linejoin="round"/>
<path d="M196.938 122.354L198.47 117.601" stroke="#263238" stroke-width="0.9124" stroke-miterlimit="10" stroke-linecap="round" stroke-linejoin="round"/>
<path opacity="0.4" d="M219.988 72.0159C219.988 72.0159 204.195 63.0402 198.529 63.8478C192.864 64.6553 188.006 65.4629 188.006 65.4629L198.521 58.1107C203.723 60.6007 211.317 66.119 219.988 72.0159Z" fill="#779FFF"/>
<path d="M271.684 81.7655C271.684 81.7655 269.125 90.4636 268.098 95.5782C267.071 100.693 259.907 121.159 259.907 121.159L266.052 124.995C266.052 124.995 279.623 96.8484 282.182 90.7076C284.741 84.5668 283.975 79.9653 281.416 77.3997" fill="white"/>
<path d="M271.684 81.7655C271.684 81.7655 269.125 90.4636 268.098 95.5782C267.071 100.693 259.907 121.159 259.907 121.159L266.052 124.995C266.052 124.995 279.623 96.8484 282.182 90.7076C284.741 84.5668 283.975 79.9653 281.416 77.3997" stroke="#263238" stroke-width="0.9124" stroke-miterlimit="10" stroke-linecap="round" stroke-linejoin="round"/>
<path d="M261.069 118.215C261.532 118.215 267.357 121.437 267.357 121.437L261.069 118.215Z" fill="#263238"/>
<path d="M220.686 72.0161C219.272 71.7806 211.729 66.8342 206.543 62.8301C201.358 58.8259 198.529 58.1193 198.529 58.1193L194.994 60.4747C194.994 60.4747 194.051 57.8838 195.465 55.2928C196.879 52.7019 201.829 50.111 206.779 48.2267C211.729 46.3424 217.386 44.6936 220.922 44.6936C224.458 44.6936 225.401 46.1068 225.401 47.9911C225.401 49.8755 225.401 55.7639 224.222 60.2392C223.043 64.706 220.686 72.0161 220.686 72.0161Z" fill="white"/>
<mask id="mask4_1166_2075" style="mask-type:luminance" maskUnits="userSpaceOnUse" x="194" y="44" width="32" height="29">
<path d="M220.686 72.0161C219.272 71.7806 211.729 66.8342 206.543 62.8301C201.358 58.8259 198.529 58.1193 198.529 58.1193L194.994 60.4747C194.994 60.4747 194.051 57.8838 195.465 55.2928C196.879 52.7019 201.829 50.111 206.779 48.2267C211.729 46.3424 217.386 44.6936 220.922 44.6936C224.458 44.6936 225.401 46.1068 225.401 47.9911C225.401 49.8755 225.401 55.7639 224.222 60.2392C223.043 64.706 220.686 72.0161 220.686 72.0161Z" fill="white"/>
</mask>
<g mask="url(#mask4_1166_2075)">
<g opacity="0.5">
<path d="M218.464 47.4443C218.464 47.4443 216.283 53.9721 214.111 55.9321C211.931 57.8922 208.665 59.6335 208.665 59.6335C208.665 59.6335 207.36 55.0657 204.094 55.0657C200.827 55.0657 195.818 57.2444 195.818 57.2444C195.818 57.2444 195.818 55.5031 199.952 53.3244C204.085 51.1457 204.085 51.1457 204.085 51.1457L213.665 47.4443H218.464Z" fill="#779FFF"/>
</g>
</g>
<path d="M220.686 72.0161C219.272 71.7806 211.729 66.8342 206.543 62.8301C201.358 58.8259 198.529 58.1193 198.529 58.1193L194.994 60.4747C194.994 60.4747 194.051 57.8838 195.465 55.2928C196.879 52.7019 201.829 50.111 206.779 48.2267C211.729 46.3424 217.386 44.6936 220.922 44.6936C224.458 44.6936 225.401 46.1068 225.401 47.9911C225.401 49.8755 225.401 55.7639 224.222 60.2392C223.043 64.706 220.686 72.0161 220.686 72.0161Z" stroke="#263238" stroke-width="0.9124" stroke-miterlimit="10" stroke-linecap="round" stroke-linejoin="round"/>
<path d="M199.733 42.111C199.733 42.111 203.833 46.2077 205.365 52.8533C206.897 59.5073 216.536 67.3305 218.834 67.3305C221.132 67.3305 220.981 55.9237 220.215 52.6009C219.449 49.2782 216.376 40.3193 216.376 40.3193C216.376 40.3193 204.085 34.4308 199.733 42.111Z" fill="white"/>
<mask id="mask5_1166_2075" style="mask-type:luminance" maskUnits="userSpaceOnUse" x="199" y="38" width="22" height="30">
<path d="M199.733 42.111C199.733 42.111 203.833 46.2077 205.365 52.8533C206.897 59.5073 216.536 67.3305 218.834 67.3305C221.132 67.3305 220.981 55.9237 220.215 52.6009C219.449 49.2782 216.376 40.3193 216.376 40.3193C216.376 40.3193 204.085 34.4308 199.733 42.111Z" fill="white"/>
</mask>
<g mask="url(#mask5_1166_2075)">
<g opacity="0.5">
<path d="M218.464 47.4443C218.464 47.4443 216.283 53.9721 214.111 55.9321C211.931 57.8922 208.665 59.6335 208.665 59.6335C208.665 59.6335 207.36 55.0657 204.094 55.0657C200.827 55.0657 195.818 57.2444 195.818 57.2444C195.818 57.2444 195.818 55.5031 199.952 53.3244C204.085 51.1457 204.085 51.1457 204.085 51.1457L213.665 47.4443H218.464Z" fill="#779FFF"/>
</g>
</g>
<path d="M199.733 42.111C199.733 42.111 203.833 46.2077 205.365 52.8533C206.897 59.5073 216.536 67.3305 218.834 67.3305C221.132 67.3305 220.981 55.9237 220.215 52.6009C219.449 49.2782 216.376 40.3193 216.376 40.3193C216.376 40.3193 204.085 34.4308 199.733 42.111Z" stroke="#263238" stroke-width="0.9124" stroke-miterlimit="10" stroke-linecap="round" stroke-linejoin="round"/>
<path d="M191.618 29.7788C191.618 29.7788 194.396 37.56 198.293 43.9448C202.183 50.338 209.692 53.9468 213.859 52.2812C218.026 50.6156 220.863 45.2486 219.752 36.9123C219.508 35.0784 217.908 34.3297 217.395 32.6726C215.559 26.7757 213.682 21.1143 213.026 18.944C212.192 16.168 205.516 13.3836 198.571 15.3352C191.618 17.27 190.506 23.108 191.618 29.7788Z" fill="white"/>
<mask id="mask6_1166_2075" style="mask-type:luminance" maskUnits="userSpaceOnUse" x="191" y="14" width="29" height="39">
<path d="M191.618 29.7788C191.618 29.7788 194.396 37.56 198.293 43.9448C202.183 50.338 209.692 53.9468 213.859 52.2812C218.026 50.6156 220.863 45.2486 219.752 36.9123C219.508 35.0784 217.908 34.3297 217.395 32.6726C215.559 26.7757 213.682 21.1143 213.026 18.944C212.192 16.168 205.516 13.3836 198.571 15.3352C191.618 17.27 190.506 23.108 191.618 29.7788Z" fill="white"/>
</mask>
<g mask="url(#mask6_1166_2075)">
<path opacity="0.5" d="M214.692 24.6811C214.692 24.6811 212.158 26.5654 206.493 25.4718C200.836 24.3867 196.913 24.6054 197.132 26.128C197.351 27.6506 197.788 29.6106 197.788 29.6106C197.788 29.6106 190.978 23.7389 197.149 22.149C201.593 21.005 204.161 22.7547 205.255 22.9734C206.333 23.1837 214.692 24.6811 214.692 24.6811Z" fill="#779FFF"/>
</g>
<path d="M191.618 29.7788C191.618 29.7788 194.396 37.56 198.293 43.9448C202.183 50.338 209.692 53.9468 213.859 52.2812C218.026 50.6156 220.863 45.2486 219.752 36.9123C219.508 35.0784 217.908 34.3297 217.395 32.6726C215.559 26.7757 213.682 21.1143 213.026 18.944C212.192 16.168 205.516 13.3836 198.571 15.3352C191.618 17.27 190.506 23.108 191.618 29.7788Z" stroke="#263238" stroke-width="0.9124" stroke-miterlimit="10" stroke-linecap="round" stroke-linejoin="round"/>
<path d="M196.618 38.9396C196.618 38.9396 192.173 36.9964 191.896 38.9396C191.618 40.8828 193.562 42.2708 195.507 43.1036C197.452 43.9364 198.563 42.826 198.563 42.826" fill="white"/>
<path d="M196.618 38.9396C196.618 38.9396 192.173 36.9964 191.896 38.9396C191.618 40.8828 193.562 42.2708 195.507 43.1036C197.452 43.9364 198.563 42.826 198.563 42.826" stroke="#263238" stroke-width="0.9124" stroke-miterlimit="10" stroke-linecap="round" stroke-linejoin="round"/>
<path d="M214.793 27.9618C214.793 27.9618 209.843 26.7841 211.965 33.3792C212.386 34.6831 215.265 36.2057 215.265 36.2057C215.265 36.2057 215.029 38.3255 213.851 38.5611" fill="white"/>
<path d="M214.793 27.9618C214.793 27.9618 209.843 26.7841 211.965 33.3792C212.386 34.6831 215.265 36.2057 215.265 36.2057C215.265 36.2057 215.029 38.3255 213.851 38.5611" stroke="#263238" stroke-width="0.9124" stroke-miterlimit="10" stroke-linecap="round" stroke-linejoin="round"/>
<path d="M211.258 43.2719C211.258 43.2719 207.722 43.9785 206.308 42.3297L211.258 43.2719Z" fill="white"/>
<path d="M211.258 43.2719C211.258 43.2719 207.722 43.9785 206.308 42.3297" stroke="#263238" stroke-width="0.9124" stroke-miterlimit="10" stroke-linecap="round" stroke-linejoin="round"/>
<path d="M206.072 32.2015C206.072 32.2015 203.479 31.2594 202.065 32.4371C200.651 33.6148 200.415 34.5569 200.415 34.5569" fill="white"/>
<path d="M206.072 32.2015C206.072 32.2015 203.479 31.2594 202.065 32.4371C200.651 33.6148 200.415 34.5569 200.415 34.5569" stroke="#263238" stroke-width="0.9124" stroke-miterlimit="10" stroke-linecap="round" stroke-linejoin="round"/>
<path d="M206.005 36.2309C206.341 37.0049 206.266 37.7872 205.853 37.9638C205.432 38.1405 204.826 37.661 204.489 36.8787C204.153 36.1048 204.228 35.3224 204.641 35.1458C205.062 34.9691 205.676 35.457 206.005 36.2309Z" fill="#263238"/>
<path d="M214.482 32.1173C214.819 32.8913 214.743 33.6736 214.33 33.8502C213.909 34.0269 213.303 33.5474 212.967 32.7651C212.63 31.9912 212.706 31.2088 213.118 31.0322C213.539 30.8555 214.145 31.335 214.482 32.1173Z" fill="#263238"/>
<path d="M195.381 40.0668C195.381 40.0668 198.201 38.0227 197.687 36.2309C197.174 34.4392 196.155 34.4392 197.174 33.4129C198.201 32.3866 198.967 31.8819 198.706 30.3425C198.453 28.8115 194.354 26.2458 195.633 24.7148C196.913 23.1838 196.399 21.392 206.897 23.9493C217.395 26.5065 224.054 22.4183 220.981 18.5739C217.908 14.738 215.349 14.2249 215.349 14.2249C215.349 14.2249 221.242 11.6676 216.376 9.11033C211.51 6.55305 200.499 6.55305 194.354 11.4152C188.208 16.2774 189.488 20.3741 189.488 20.3741C189.488 20.3741 186.163 20.8873 185.902 26.0018C185.658 31.108 195.381 40.0668 195.381 40.0668Z" fill="#263238"/>
<path d="M195.313 22.5781C195.313 22.5781 196.18 19.9703 200.524 19.9703C204.868 19.9703 208.774 23.6633 214.642 22.3594C220.501 21.0555 217.252 17.5897 217.252 17.5897" stroke="white" stroke-width="0.6843" stroke-miterlimit="10" stroke-linecap="round" stroke-linejoin="round"/>
<path d="M193.36 21.9304C193.36 21.9304 193.781 16.5467 198.563 15.3353C203.344 14.124 209.641 16.513 211.384 15.8569" stroke="white" stroke-width="0.6843" stroke-miterlimit="10" stroke-linecap="round" stroke-linejoin="round"/>
<path d="M190.97 22.149C190.97 22.149 188.36 22.149 188.149 25.6232C187.931 29.0974 190.102 30.6116 190.102 30.6116" stroke="white" stroke-width="0.6843" stroke-miterlimit="10" stroke-linecap="round" stroke-linejoin="round"/>
<path d="M193.36 24.3195C193.36 24.3195 190.54 25.4046 191.837 28.2227" stroke="white" stroke-width="0.6843" stroke-miterlimit="10" stroke-linecap="round" stroke-linejoin="round"/>
<path d="M191.407 31.2594L192.493 32.782" stroke="white" stroke-width="0.6843" stroke-miterlimit="10" stroke-linecap="round" stroke-linejoin="round"/>
</g>
<defs>
<clipPath id="clip0_1166_2075">
<rect width="350" height="267" fill="white"/>
</clipPath>
</defs>
</svg>
