<svg width="385" height="287" viewBox="0 0 385 287" fill="none" xmlns="http://www.w3.org/2000/svg">
<g clip-path="url(#clip0_1166_1913)">
<path d="M346.423 264.526H320.921V264.718H346.423V264.526Z" fill="#EBEBEB"/>
<path d="M255.039 266.62H248.348V266.813H255.039V266.62Z" fill="#EBEBEB"/>
<path d="M320.151 257.38H305.374V257.573H320.151V257.38Z" fill="#EBEBEB"/>
<path d="M73.6505 258.674H40.3942V258.866H73.6505V258.674Z" fill="#EBEBEB"/>
<path d="M85.3853 258.674H80.5112V258.866H85.3853V258.674Z" fill="#EBEBEB"/>
<path d="M173.366 261.923H101.232V262.116H173.366V261.923Z" fill="#EBEBEB"/>
<path d="M183.568 217.795H34.881C32.4555 217.795 30.4843 215.823 30.4843 213.398V4.3967C30.4843 1.9712 32.4555 0 34.881 0H183.568C185.993 0 187.965 1.9712 187.965 4.3967V213.398C187.965 215.823 185.993 217.795 183.568 217.795ZM34.881 0.1925C32.5633 0.1925 30.6768 2.079 30.6768 4.3967V213.398C30.6768 215.716 32.5633 217.602 34.881 217.602H183.568C185.886 217.602 187.772 215.716 187.772 213.398V4.3967C187.772 2.079 185.886 0.1925 183.568 0.1925H34.881Z" fill="#EBEBEB"/>
<path d="M350.119 217.795H201.432C199.006 217.795 197.035 215.823 197.035 213.398V4.3967C197.035 1.9712 199.006 0 201.432 0H350.119C352.544 0 354.516 1.9712 354.516 4.3967V213.398C354.516 215.823 352.544 217.795 350.119 217.795ZM201.432 0.1925C199.114 0.1925 197.228 2.079 197.228 4.3967V213.398C197.228 215.716 199.114 217.602 201.432 217.602H350.119C352.437 217.602 354.323 215.716 354.323 213.398V4.3967C354.323 2.079 352.437 0.1925 350.119 0.1925H201.432Z" fill="#EBEBEB"/>
<path d="M385 252.136H0V252.329H385V252.136Z" fill="#EBEBEB"/>
<path d="M269.556 247.667H342.845V150.154H269.556V247.667Z" fill="#F5F5F5"/>
<path d="M255.571 247.667H269.554V150.154H255.571V247.667Z" fill="#E6E6E6"/>
<path d="M274.315 181.065H337.709V157.38H274.315V181.065Z" fill="#FAFAFA"/>
<path d="M314.276 157.38L313.998 160.537C313.906 161.577 313.036 162.378 311.989 162.378H300.023C298.976 162.378 298.106 161.577 298.013 160.537L297.736 157.38H314.276Z" fill="#EBEBEB"/>
<path d="M274.315 207.329H337.709V183.644H274.315V207.329Z" fill="#FAFAFA"/>
<path d="M314.276 183.653L313.998 186.81C313.906 187.849 313.036 188.65 311.989 188.65H300.023C298.976 188.65 298.106 187.849 298.013 186.81L297.736 183.653H314.276Z" fill="#EBEBEB"/>
<path d="M274.315 233.601H337.709V209.916H274.315V233.601Z" fill="#FAFAFA"/>
<path d="M314.276 209.917L313.998 213.074C313.906 214.114 313.036 214.915 311.989 214.915H300.023C298.976 214.915 298.106 214.114 298.013 213.074L297.736 209.917H314.276Z" fill="#EBEBEB"/>
<path d="M274.312 252.529H336.937L337.707 247.655H274.312V252.529Z" fill="#E6E6E6"/>
<path d="M261.223 252.529H274.313V247.655H260.453L261.223 252.529Z" fill="#E0E0E0"/>
<path d="M303.75 150.25H328.775L326.003 118.518H300.978L303.75 150.25Z" fill="#FAFAFA"/>
<path d="M303.75 150.25H302.556L299.776 118.518H300.978L303.75 150.25Z" fill="#EBEBEB"/>
<path d="M306.021 147.016H325.941L323.731 121.752H303.811L306.021 147.016Z" fill="#F0F0F0"/>
<path d="M307.476 144.937H324.116L322.276 123.831H305.628L307.476 144.937Z" fill="#E6E6E6"/>
<path d="M296.719 150.25L298.437 130.607H273.527L271.81 150.25H296.719Z" fill="#F0F0F0"/>
<path d="M296.719 150.25L298.437 130.607H299.776L298.059 150.25H296.719Z" fill="#E0E0E0"/>
<path d="M294.356 148.248L295.726 132.609H275.891L274.52 148.248H294.356Z" fill="#EBEBEB"/>
<path d="M292.831 146.962L293.978 133.895H277.408L276.268 146.962H292.831Z" fill="#F5F5F5"/>
<path d="M239.193 239.331C239.193 244.537 238.377 247.901 236.998 250.065C235.966 251.69 234.103 252.606 232.178 252.606H224.64C222.715 252.606 220.859 251.69 219.82 250.065C218.441 247.901 217.625 244.537 217.625 239.331C217.625 231.785 220.913 225.741 221.991 220.913C222.376 219.173 221.09 213.852 221.09 213.852H235.72C235.72 213.852 234.434 219.18 234.819 220.913C235.905 225.733 239.193 231.778 239.193 239.331Z" fill="#EBEBEB"/>
<path d="M264.11 208.77C264.11 202.217 253.83 204.935 251.243 194.764C250.265 190.914 258.62 182.19 258.62 182.19H232.555C232.555 182.19 240.917 190.914 239.932 194.764C237.345 204.935 227.065 202.21 227.065 208.77C227.065 215.993 241.564 231.023 242.257 247.948C242.319 249.457 239.531 252.598 239.531 252.598H251.636C251.636 252.598 248.848 249.465 248.91 247.948C249.611 231.031 264.11 215.993 264.11 208.77Z" fill="#F5F5F5"/>
<path d="M256.233 225.81C257.75 222.622 254.616 211.788 254.616 211.788H265.912C265.912 211.788 262.778 222.622 264.295 225.81C265.365 228.059 267.798 229.498 267.798 232.155V248.148C267.798 252.29 264.41 252.598 260.268 252.598C256.125 252.598 252.737 252.29 252.737 248.148V232.155C252.729 229.491 255.162 228.059 256.233 225.81Z" fill="#F0F0F0"/>
<path d="M127.165 131.347C120.674 128.536 116.978 122.607 118.911 118.126C120.851 113.644 127.704 112.289 134.196 115.1C140.687 117.91 144.39 123.839 142.45 128.32C140.51 132.794 133.657 134.149 127.165 131.347ZM132.332 119.412C129.291 118.095 126.08 118.734 125.171 120.828C124.263 122.93 125.995 125.702 129.037 127.019C132.078 128.336 135.289 127.697 136.198 125.602C137.106 123.508 135.374 120.728 132.332 119.412Z" fill="#E6E6E6"/>
<path d="M134.804 119.666L131.724 118.334L150.358 75.2598C150.727 74.4051 151.713 74.0201 152.568 74.382C153.422 74.7516 153.807 75.7372 153.446 76.5919L134.804 119.666Z" fill="#E6E6E6"/>
<path d="M154.862 80.7575L148.941 78.1703L150.281 75.0903L156.194 77.6698L154.862 80.7575Z" fill="#E6E6E6"/>
<path d="M151.944 84.2072L147.709 82.3669L149.041 79.2792L153.276 81.1195L151.944 84.2072Z" fill="#E6E6E6"/>
<path d="M147.333 85.1691L145.999 88.25L150.748 90.3063L152.082 87.2254L147.333 85.1691Z" fill="#E6E6E6"/>
<path d="M135.997 115.069L134.303 114.337C133.456 113.975 133.071 112.99 133.433 112.15L133.441 112.127C133.803 111.28 134.788 110.895 135.628 111.257L137.322 111.989C138.169 112.351 138.554 113.336 138.192 114.176L138.184 114.199C137.822 115.046 136.844 115.431 135.997 115.069Z" fill="#E6E6E6"/>
<path d="M268.322 100.262C273.465 103.688 274.79 110.765 271.279 116.031C267.767 121.298 260.73 122.8 255.586 119.381C250.442 115.954 249.118 108.878 252.629 103.611C256.14 98.3367 263.178 96.8352 268.322 100.262ZM258.966 114.299C261.376 115.9 264.672 115.2 266.32 112.728C267.968 110.256 267.344 106.945 264.934 105.336C262.524 103.734 259.228 104.435 257.58 106.907C255.94 109.379 256.564 112.69 258.966 114.299Z" fill="#E6E6E6"/>
<path d="M257.727 112.928L260.914 115.053L238.115 149.95C237.529 150.828 236.336 151.066 235.458 150.481C234.58 149.896 234.342 148.71 234.927 147.825L257.727 112.928Z" fill="#E6E6E6"/>
<path d="M235.066 140.217L241.772 144.722L238.423 149.75L231.701 145.237C230.738 144.591 230.476 143.282 231.123 142.319L232.132 140.802C232.779 139.824 234.095 139.57 235.066 140.217Z" fill="#E6E6E6"/>
<path d="M175.206 33.572L171.664 42.7427C171.348 43.5666 170.416 43.9824 169.592 43.659C168.769 43.3433 168.353 42.4116 168.676 41.5877L172.218 32.417C173.358 29.4525 171.879 26.1184 168.923 24.9711L165.642 23.7083C162.678 22.5687 159.344 24.0471 158.196 27.0039L156.749 30.7461L153.754 29.5911L155.201 25.8489C156.98 21.2366 162.185 18.9343 166.79 20.713L170.07 21.9758C174.682 23.7622 176.984 28.9597 175.206 33.572Z" fill="#F0F0F0"/>
<path d="M174.644 35.0196C174.405 34.7193 174.089 34.4652 173.704 34.3189L155.84 27.4197C155.44 27.2657 155.024 27.2349 154.631 27.3119C153.915 27.4505 153.284 27.9433 153.007 28.6748L146.107 46.5388C145.669 47.6707 146.231 48.9335 147.363 49.3724L165.227 56.2716C166.358 56.7105 167.621 56.1484 168.06 55.0165L174.959 37.1525C175.244 36.4133 175.106 35.6048 174.644 35.0196ZM161.076 48.8257L155.409 46.6389L158.404 41.4106C158.027 40.6483 157.958 39.7397 158.289 38.885C158.913 37.268 160.73 36.4595 162.354 37.0832C163.971 37.7069 164.78 39.5318 164.156 41.1488C163.825 42.0035 163.163 42.6272 162.37 42.9352L161.076 48.8257Z" fill="#E6E6E6"/>
<path d="M53.2484 242.169L195.798 242.169V165.454H53.2484V242.169Z" fill="#E6E6E6"/>
<path d="M184.372 252.122H193.335V245.354H184.372V252.122Z" fill="#E6E6E6"/>
<path d="M42.3618 252.122H51.3246L51.3246 159.745H42.3618L42.3618 252.122Z" fill="#E6E6E6"/>
<path d="M51.2203 159.744V252.121H56.002V246.947H193.332V252.121H198.113V159.744H195.726H193.339H56.002H53.615H51.2203ZM56.002 168.106H122.276V200.192H56.002V168.106ZM193.332 238.585H127.058V168.106H193.332V238.585ZM56.002 238.585V204.966H122.276V238.585H56.002Z" fill="#F0F0F0"/>
<path d="M127.049 238.585H188.849V171.556H127.049V238.585Z" fill="#F5F5F5"/>
<path d="M129.853 203.064C129.853 204.651 131.139 205.937 132.725 205.937C134.311 205.937 135.597 204.651 135.597 203.064C135.597 201.478 134.311 200.192 132.725 200.192C131.139 200.192 129.853 201.478 129.853 203.064Z" fill="#FAFAFA"/>
<path d="M132.725 205.937C133.88 205.937 134.873 205.244 135.327 204.258C135.497 204.62 135.597 205.028 135.597 205.451C135.597 207.038 134.311 208.324 132.725 208.324C131.139 208.324 129.853 207.038 129.853 205.451C129.853 205.02 129.953 204.62 130.122 204.258C130.577 205.244 131.57 205.937 132.725 205.937Z" fill="#E0E0E0"/>
<path d="M164.888 238.585H150.142L143.097 171.556H157.842L164.888 238.585Z" fill="#FAFAFA"/>
<path d="M146.369 238.585H143.428L136.39 171.556H139.324L146.369 238.585Z" fill="#FAFAFA"/>
<path d="M107.345 200.163H113.182V171.496H107.345V200.163Z" fill="#FAFAFA"/>
<path d="M83.126 200.163H88.9626V171.496H83.126V200.163Z" fill="#F5F5F5"/>
<path d="M101.502 200.161H107.338V173.503H101.502V200.161Z" fill="#F5F5F5"/>
<path d="M88.9696 200.161H94.8062V173.503H88.9696V200.161Z" fill="#FAFAFA"/>
<path d="M94.8105 200.163H98.5835V171.496H94.8105V200.163Z" fill="#EBEBEB"/>
<path d="M98.5783 200.161H101.497V173.503H98.5783V200.161Z" fill="#FAFAFA"/>
<path d="M77.2904 200.163H83.127V171.496H77.2904V200.163Z" fill="#EBEBEB"/>
<path d="M71.447 200.161H77.2836V173.503H71.447V200.161Z" fill="#E6E6E6"/>
<path d="M58.9149 200.161H64.7515V173.503H58.9149V200.161Z" fill="#E6E6E6"/>
<path d="M64.7557 200.163H68.5287V171.496H64.7557V200.163Z" fill="#FAFAFA"/>
<path d="M68.5313 200.161H71.4496V173.503H68.5313V200.161Z" fill="#EBEBEB"/>
<path d="M55.9914 200.157H58.9097V172.167H55.9914V200.157Z" fill="#EBEBEB"/>
<path d="M61.831 209.917H55.9944V238.585H61.831V209.917Z" fill="#EBEBEB"/>
<path d="M86.0397 209.917H80.2031V238.585H86.0397V209.917Z" fill="#FAFAFA"/>
<path d="M67.6675 211.927H61.8309V238.585H67.6675V211.927Z" fill="#FAFAFA"/>
<path d="M80.2032 211.927H74.3666V238.585H80.2032V211.927Z" fill="#EBEBEB"/>
<path d="M74.3665 209.917H70.5935V238.585H74.3665V209.917Z" fill="#FAFAFA"/>
<path d="M70.5936 211.927H67.6753V238.585H70.5936V211.927Z" fill="#F5F5F5"/>
<path d="M91.8841 209.917H86.0475V238.585H91.8841V209.917Z" fill="#EBEBEB"/>
<path d="M97.7206 211.927H91.884V238.585H97.7206V211.927Z" fill="#F5F5F5"/>
<path d="M110.256 211.927H104.42V238.585H110.256V211.927Z" fill="#E6E6E6"/>
<path d="M104.42 209.917H100.647V238.585H104.42V209.917Z" fill="#FAFAFA"/>
<path d="M116.955 209.917H113.182V238.585H116.955V209.917Z" fill="#FAFAFA"/>
<path d="M100.647 211.927H97.7284V238.585H100.647V211.927Z" fill="#EBEBEB"/>
<path d="M113.175 210.595H110.256V238.585H113.175V210.595Z" fill="#EBEBEB"/>
<path d="M62.5085 110.372C62.5085 110.372 61.5306 110.826 61.084 111.735C60.6374 112.643 62.0234 114.33 62.0234 114.33C62.0234 114.33 63.1938 115.146 64.3488 114.615C65.5115 114.091 65.5115 114.091 65.5115 114.091C65.5115 114.091 63.5326 110.649 62.5701 110.618L62.5085 110.372Z" fill="#E6E6E6"/>
<path d="M67.475 110.341C67.6136 111.973 66.6049 114.029 65.1496 114.16C63.6943 114.283 62.3391 112.435 62.2005 110.803C62.0619 109.171 63.2323 109.009 64.6953 108.886C66.1429 108.755 67.3287 108.709 67.475 110.341Z" fill="#E6E6E6"/>
<path d="M63.2015 109.864C63.2015 109.864 64.318 110.749 66.6126 110.233C66.6126 110.233 62.9936 112.643 63.2015 109.864Z" fill="#E6E6E6"/>
<path d="M64.1871 109.54C64.1871 109.54 65.473 109.317 65.4884 109.856C65.4884 109.856 66.5741 109.794 66.4278 109.34C66.2815 108.878 64.1871 109.54 64.1871 109.54Z" fill="#E6E6E6"/>
<g opacity="0.2">
<path d="M63.2015 109.864C63.2015 109.864 64.318 110.749 66.6126 110.233C66.6126 110.233 62.9936 112.643 63.2015 109.864Z" fill="#FAFAFA"/>
</g>
<g opacity="0.2">
<path d="M64.1871 109.54C64.1871 109.54 65.473 109.317 65.4884 109.856C65.4884 109.856 66.5741 109.794 66.4278 109.34C66.2815 108.878 64.1871 109.54 64.1871 109.54Z" fill="#FAFAFA"/>
</g>
<path d="M62.701 114.676C63.163 115.431 64.1102 115.816 64.988 115.708C65.8658 115.6 66.6512 115.053 67.1594 114.33C67.6676 113.606 67.9063 112.72 67.9602 111.842C67.9756 111.611 67.991 111.042 67.6907 110.957C67.4135 110.88 67.244 111.265 67.1208 111.442C66.7512 111.958 66.3663 112.443 65.8966 112.874C65.4423 113.29 64.9417 113.66 64.4027 113.96C64.2487 114.045 62.7857 114.807 62.701 114.676Z" fill="#E6E6E6"/>
<path d="M68.9534 111.419C69.2306 112.081 69.1305 112.882 68.6993 113.46C68.4144 113.837 68.014 114.106 67.6136 114.345C67.3364 114.514 66.9745 114.676 66.6973 114.499C66.397 114.307 66.4278 113.875 66.4971 113.521C66.6049 112.99 66.7204 112.459 66.8513 111.927C66.9591 111.496 67.0284 110.772 67.2825 110.403C67.5212 110.056 67.86 110.264 68.2219 110.51C68.5376 110.741 68.7994 111.049 68.9534 111.419Z" fill="#E6E6E6"/>
<g opacity="0.2">
<path d="M63.0707 113.768C62.5086 113.744 61.9773 113.359 61.7694 112.836C61.6154 112.451 61.6231 111.465 62.1236 111.334C62.3469 112.22 62.5394 113.013 63.0707 113.768Z" fill="#FAFAFA"/>
</g>
<g opacity="0.2">
<path d="M66.8667 113.729C67.398 113.575 67.8369 113.144 67.9986 112.612C68.091 112.32 67.9755 110.826 67.5289 111.457C67.3826 111.665 67.4134 112.32 67.3364 112.582C67.2286 112.982 67.0746 113.367 66.8667 113.729Z" fill="#FAFAFA"/>
</g>
<g opacity="0.2">
<path d="M64.8339 114.653C65.242 114.999 65.9042 115.023 66.3277 114.691C66.2738 114.976 65.3652 115.223 65.0803 115.307C64.3488 115.523 63.9638 115.2 63.2477 114.899C63.2554 114.899 64.3796 115.069 64.8339 114.653Z" fill="#FAFAFA"/>
</g>
<path d="M63.5635 144.645L63.6328 122.43L64.7724 115.669L65.2036 115.746L64.0717 122.469L63.987 145.068L63.5635 144.645Z" fill="#E0E0E0"/>
<path d="M64.0254 122.315L63.6789 122.584C63.3324 122.13 63.0167 121.537 62.6548 120.852C62.0927 119.789 61.4536 118.588 60.4834 117.525L60.8068 117.233C61.8155 118.341 62.4623 119.566 63.0398 120.651C63.394 121.314 63.6943 121.891 64.0254 122.315Z" fill="#E0E0E0"/>
<path d="M64.295 119.335C64.8879 119.181 65.4192 118.803 65.758 118.295C66.143 117.718 66.2816 117.017 66.4048 116.332C65.6348 116.563 64.8109 116.185 64.0178 116.278C63.3864 116.347 62.7934 116.74 62.47 117.286C62.0542 118.003 61.8849 118.811 62.2545 119.142C62.5548 119.412 63.5019 119.543 64.295 119.335Z" fill="#E6E6E6"/>
<path d="M61.3382 117.802C60.6298 118.249 59.7212 118.364 58.9204 118.103C58.1196 117.841 57.8886 116.647 57.5806 115.862C58.3044 115.716 60.137 115.816 60.5528 115.862C60.9686 115.9 61.3921 116.093 61.6154 116.447C61.8387 116.801 61.8002 117.333 61.4614 117.571C61.446 117.556 61.3382 117.802 61.3382 117.802Z" fill="#E6E6E6"/>
<path d="M57.696 119.096C58.1811 118.503 59.3823 118.079 60.1369 118.218C60.8915 118.357 61.5306 118.873 61.8001 119.489C61.5999 119.966 61.0686 120.235 60.5527 120.274C60.0368 120.312 59.5286 120.158 59.0358 120.004C58.543 119.85 58.0348 119.704 57.5189 119.735L57.696 119.096Z" fill="#E6E6E6"/>
<path d="M72.5187 115.277C72.5187 115.277 73.3195 115.993 73.4812 117.002C73.6429 118.003 71.818 119.204 71.818 119.204C71.818 119.204 70.4628 119.635 69.508 118.796C68.5532 117.949 68.5532 117.949 68.5532 117.949C68.5532 117.949 71.4561 115.246 72.3878 115.492L72.5187 115.277Z" fill="#E6E6E6"/>
<path d="M67.7754 113.791C67.1594 115.308 67.5213 117.571 68.8765 118.126C70.2317 118.672 72.0643 117.302 72.6803 115.785C73.2963 114.268 72.2183 113.768 70.8631 113.221C69.5156 112.666 68.3914 112.274 67.7754 113.791Z" fill="#E6E6E6"/>
<path d="M72.0027 114.591C72.0027 114.591 70.6783 115.115 68.6378 113.945C68.6301 113.937 71.379 117.31 72.0027 114.591Z" fill="#E6E6E6"/>
<path d="M71.1557 113.991C71.1557 113.991 69.993 113.398 69.8159 113.906C69.8159 113.906 68.7918 113.529 69.069 113.136C69.3539 112.743 71.1557 113.991 71.1557 113.991Z" fill="#E6E6E6"/>
<g opacity="0.2">
<path d="M72.0027 114.591C72.0027 114.591 70.6783 115.115 68.6378 113.945C68.6301 113.937 71.379 117.31 72.0027 114.591Z" fill="#FAFAFA"/>
</g>
<g opacity="0.2">
<path d="M71.1557 113.991C71.1557 113.991 69.993 113.398 69.8159 113.906C69.8159 113.906 68.7918 113.529 69.069 113.136C69.3539 112.743 71.1557 113.991 71.1557 113.991Z" fill="#FAFAFA"/>
</g>
<path d="M71.0634 119.335C70.4012 119.92 69.3848 120.005 68.5763 119.65C67.7678 119.296 67.1749 118.534 66.9054 117.695C66.6359 116.855 66.6667 115.939 66.8669 115.077C66.9208 114.853 67.0671 114.307 67.3828 114.307C67.6677 114.314 67.7216 114.73 67.7909 114.938C67.9911 115.539 68.2221 116.116 68.5378 116.67C68.8458 117.202 69.2231 117.702 69.6466 118.149C69.7698 118.28 70.9479 119.442 71.0634 119.335Z" fill="#E6E6E6"/>
<path d="M66.0507 114.384C65.5964 114.938 65.4501 115.731 65.6965 116.409C65.8582 116.855 66.1585 117.225 66.4742 117.579C66.6898 117.825 66.9901 118.08 67.3058 117.995C67.6446 117.902 67.7447 117.471 67.7832 117.125C67.8371 116.586 67.8833 116.039 67.9064 115.5C67.9295 115.053 68.0758 114.345 67.9449 113.914C67.8217 113.513 67.4367 113.606 67.0209 113.744C66.6436 113.86 66.3048 114.083 66.0507 114.384Z" fill="#E6E6E6"/>
<g opacity="0.2">
<path d="M70.9786 118.364C71.5253 118.503 72.1413 118.303 72.4955 117.856C72.7573 117.533 73.0422 116.586 72.5956 116.324C72.1259 117.094 71.7101 117.795 70.9786 118.364Z" fill="#FAFAFA"/>
</g>
<g opacity="0.2">
<path d="M67.3597 117.209C66.8977 116.909 66.5974 116.362 66.6051 115.808C66.6051 115.5 67.1518 114.114 67.3905 114.838C67.4675 115.077 67.2519 115.693 67.2442 115.97C67.2365 116.386 67.275 116.809 67.3597 117.209Z" fill="#FAFAFA"/>
</g>
<g opacity="0.2">
<path d="M69.0306 118.688C68.5378 118.903 67.8987 118.726 67.5907 118.287C67.5599 118.58 68.3607 119.08 68.5994 119.242C69.2385 119.666 69.7005 119.465 70.4705 119.396C70.4705 119.388 69.3463 119.219 69.0306 118.688Z" fill="#FAFAFA"/>
</g>
<path d="M62.9321 141.326L63.2093 140.417L63.5789 139.193L64.0101 137.761L67.4674 126.388L67.8986 123.123L68.2836 120.228L68.3606 119.627L68.5762 119.65V119.658L68.7995 119.681L68.7918 119.735L68.7148 120.305L68.3067 123.4L67.9679 125.918L67.8986 126.472L67.8678 126.565L64.0101 139.27L63.5712 140.694L63.371 141.357L63.1015 142.257L62.9321 141.326Z" fill="#E0E0E0"/>
<path d="M67.5521 126.249L67.8062 126.603C68.2759 126.272 68.7456 125.795 69.3 125.248C70.147 124.401 71.1095 123.439 72.3492 122.707L72.1259 122.33C70.84 123.092 69.8544 124.078 68.992 124.94C68.453 125.479 67.991 125.941 67.5521 126.249Z" fill="#E0E0E0"/>
<path d="M68.1758 123.323C67.6599 123 67.2595 122.484 67.0824 121.899C66.8822 121.236 66.9592 120.52 67.0362 119.835C67.6984 120.282 68.5993 120.166 69.3308 120.49C69.916 120.744 70.3626 121.29 70.5089 121.906C70.6937 122.715 70.6167 123.539 70.1701 123.739C69.8082 123.908 68.8688 123.754 68.1758 123.323Z" fill="#E6E6E6"/>
<path d="M71.4483 122.73C71.995 123.369 72.8343 123.747 73.6659 123.731C74.5052 123.716 75.0827 122.638 75.6063 121.983C74.9595 121.629 73.1731 121.19 72.765 121.106C72.3569 121.021 71.8949 121.075 71.5792 121.352C71.2635 121.622 71.148 122.145 71.3944 122.476C71.4175 122.461 71.4483 122.73 71.4483 122.73Z" fill="#E6E6E6"/>
<path d="M74.5514 125.04C74.2588 124.332 73.2347 123.57 72.4801 123.485C71.7178 123.393 70.9555 123.701 70.5166 124.209C70.5628 124.725 70.994 125.14 71.4791 125.325C71.9642 125.51 72.4955 125.518 73.0114 125.518C73.5273 125.518 74.0586 125.525 74.5437 125.71L74.5514 125.04Z" fill="#E6E6E6"/>
<path d="M56.9183 114.391C56.9183 114.391 56.0328 115.015 55.7556 115.985C55.4784 116.963 57.1493 118.372 57.1493 118.372C57.1493 118.372 58.4429 118.965 59.4901 118.234C60.5373 117.51 60.5373 117.51 60.5373 117.51C60.5373 117.51 57.9655 114.484 57.0184 114.622L56.9183 114.391Z" fill="#E6E6E6"/>
<path d="M61.8001 113.475C62.2313 115.053 61.6076 117.263 60.1985 117.648C58.7894 118.033 57.1262 116.455 56.695 114.876C56.2638 113.298 57.388 112.928 58.8048 112.543C60.2062 112.151 61.3689 111.896 61.8001 113.475Z" fill="#E6E6E6"/>
<path d="M57.5112 113.768C57.5112 113.768 58.7663 114.437 60.93 113.521C60.93 113.521 57.8115 116.54 57.5112 113.768Z" fill="#E6E6E6"/>
<path d="M58.4198 113.275C58.4198 113.275 59.6441 112.82 59.7596 113.352C59.7596 113.352 60.8222 113.098 60.5912 112.674C60.3602 112.243 58.4198 113.275 58.4198 113.275Z" fill="#E6E6E6"/>
<g opacity="0.2">
<path d="M57.5112 113.768C57.5112 113.768 58.7663 114.437 60.93 113.521C60.93 113.521 57.8115 116.54 57.5112 113.768Z" fill="#FAFAFA"/>
</g>
<g opacity="0.2">
<path d="M58.4198 113.275C58.4198 113.275 59.6441 112.82 59.7596 113.352C59.7596 113.352 60.8222 113.098 60.5912 112.674C60.3602 112.243 58.4198 113.275 58.4198 113.275Z" fill="#FAFAFA"/>
</g>
<path d="M57.8809 118.595C58.4738 119.25 59.4748 119.466 60.3141 119.204C61.1611 118.942 61.8387 118.264 62.2006 117.464C62.5702 116.663 62.6472 115.746 62.5394 114.869C62.5163 114.645 62.4239 114.076 62.1159 114.045C61.831 114.014 61.7309 114.422 61.6385 114.622C61.369 115.2 61.0764 115.746 60.6914 116.255C60.3218 116.747 59.8906 117.194 59.4209 117.594C59.2977 117.695 57.9887 118.711 57.8809 118.595Z" fill="#E6E6E6"/>
<path d="M63.448 114.26C63.8407 114.861 63.8869 115.669 63.5635 116.309C63.3556 116.732 63.0091 117.063 62.6549 117.379C62.4085 117.594 62.0851 117.818 61.7771 117.695C61.4537 117.556 61.3998 117.125 61.3998 116.771C61.4075 116.224 61.4306 115.685 61.4691 115.138C61.4999 114.692 61.4383 113.968 61.6154 113.56C61.7848 113.175 62.1544 113.321 62.5548 113.498C62.9167 113.675 63.2324 113.937 63.448 114.26Z" fill="#E6E6E6"/>
<g opacity="0.2">
<path d="M58.0887 117.633C57.5343 117.71 56.9414 117.433 56.6411 116.955C56.4255 116.601 56.2484 115.631 56.7181 115.415C57.0954 116.239 57.4265 116.986 58.0887 117.633Z" fill="#FAFAFA"/>
</g>
<g opacity="0.2">
<path d="M61.8156 116.917C62.3084 116.67 62.6703 116.162 62.7319 115.616C62.7704 115.315 62.3854 113.868 62.062 114.561C61.9542 114.792 62.1005 115.431 62.0774 115.7C62.0389 116.116 61.9465 116.524 61.8156 116.917Z" fill="#FAFAFA"/>
</g>
<g opacity="0.2">
<path d="M59.983 118.187C60.4527 118.457 61.0995 118.357 61.4614 117.956C61.4614 118.249 60.6067 118.649 60.3449 118.78C59.6596 119.127 59.2284 118.873 58.4738 118.711C58.4661 118.711 59.6057 118.68 59.983 118.187Z" fill="#FAFAFA"/>
</g>
<path d="M64.1102 147.917L60.1909 126.049L60.0985 119.204L60.5374 119.196L60.6298 126.018L64.6107 148.256L64.1102 147.917Z" fill="#E0E0E0"/>
<path d="M60.5605 125.872L60.2679 126.195C59.8444 125.81 59.4286 125.287 58.9435 124.671C58.1966 123.731 57.3573 122.661 56.21 121.783L56.4795 121.437C57.6653 122.345 58.5277 123.439 59.29 124.401C59.752 125.002 60.1601 125.51 60.5605 125.872Z" fill="#E0E0E0"/>
<path d="M60.2832 122.892C60.8376 122.63 61.2919 122.168 61.5383 121.606C61.8155 120.967 61.8232 120.251 61.8232 119.558C61.1071 119.92 60.2293 119.704 59.467 119.935C58.8587 120.12 58.3428 120.605 58.1272 121.206C57.85 121.983 57.8269 122.815 58.2427 123.069C58.5969 123.285 59.544 123.239 60.2832 122.892Z" fill="#E6E6E6"/>
<path d="M57.1032 121.914C56.4872 122.484 55.6094 122.761 54.7778 122.646C53.9462 122.53 53.4996 121.398 53.0607 120.682C53.746 120.405 55.5709 120.182 55.9867 120.143C56.4025 120.112 56.8491 120.22 57.134 120.528C57.4189 120.836 57.4728 121.36 57.1802 121.668C57.1648 121.652 57.1032 121.914 57.1032 121.914Z" fill="#E6E6E6"/>
<path d="M53.7536 123.847C54.1232 123.177 55.232 122.546 55.9943 122.546C56.7566 122.546 57.4804 122.938 57.8577 123.5C57.7499 124.009 57.2725 124.37 56.772 124.494C56.2715 124.625 55.7402 124.563 55.232 124.501C54.7161 124.44 54.1925 124.386 53.692 124.509L53.7536 123.847Z" fill="#E6E6E6"/>
<path d="M65.7194 134.504H61.1148C60.7683 134.496 60.4603 134.719 60.3602 135.05C59.9829 136.244 59.1744 139.385 59.1744 144.337C59.1744 149.773 60.5912 156.988 61.0378 159.121C61.1148 159.482 61.4305 159.737 61.7924 159.744H64.9956C65.3652 159.744 65.6732 159.482 65.7502 159.121C66.1968 156.988 67.6136 149.773 67.6136 144.337C67.6136 139.385 66.8051 136.252 66.4278 135.05C66.3431 134.735 66.0505 134.511 65.7194 134.504Z" fill="#F0F0F0"/>
<path d="M192.5 286.486C274.954 286.486 341.795 282.584 341.795 277.77C341.795 272.956 274.954 269.053 192.5 269.053C110.047 269.053 43.2047 272.956 43.2047 277.77C43.2047 282.584 110.047 286.486 192.5 286.486Z" fill="#F5F5F5"/>
<path d="M93.0007 247.801C92.7389 247.786 92.531 247.563 92.5387 247.301C93.1085 224.671 94.2789 187.549 94.3405 187.341C94.4175 187.079 94.6947 186.941 94.9488 187.01C95.2106 187.087 95.3569 187.364 95.2799 187.618C95.2645 187.664 94.0864 224.917 93.5243 247.316C93.5166 247.586 93.2933 247.801 93.0238 247.794C93.0161 247.801 93.0084 247.801 93.0007 247.801Z" fill="#263238"/>
<path d="M89.9592 172.234C90.1517 173.974 92.2384 180.018 93.9786 179.833C95.7188 179.641 96.458 173.296 96.2732 171.548C96.0807 169.808 94.5176 168.545 92.7774 168.738C91.0295 168.923 89.7744 170.493 89.9592 172.234Z" fill="#779FFF"/>
<path d="M98.4215 191.291C98.229 189.551 96.1423 183.506 94.4021 183.699C92.6619 183.891 91.9227 190.236 92.1075 191.984C92.3 193.724 93.8631 194.987 95.6033 194.795C97.3512 194.602 98.614 193.039 98.4215 191.291Z" fill="#779FFF"/>
<path d="M84.6616 185.993C86.4018 185.801 92.4463 183.714 92.2538 181.974C92.0613 180.234 85.7165 179.495 83.9686 179.679C82.2284 179.872 80.9656 181.435 81.1581 183.175C81.3506 184.923 82.9214 186.186 84.6616 185.993Z" fill="#779FFF"/>
<path d="M103.719 177.531C101.979 177.724 95.9343 179.81 96.1191 181.551C96.3116 183.291 102.656 184.03 104.404 183.845C106.145 183.653 107.407 182.09 107.215 180.349C107.03 178.601 105.467 177.346 103.719 177.531Z" fill="#779FFF"/>
<path d="M84.4613 178.016C85.8319 179.117 91.5761 181.913 92.6772 180.542C93.7783 179.171 89.8051 174.159 88.4422 173.065C87.0793 171.964 85.0773 172.187 83.9762 173.55C82.8751 174.921 83.0984 176.915 84.4613 178.016Z" fill="#779FFF"/>
<path d="M103.919 185.508C102.556 184.407 96.8045 181.612 95.7034 182.983C94.6023 184.346 98.5755 189.358 99.9384 190.459C101.301 191.561 103.303 191.337 104.404 189.974C105.506 188.611 105.29 186.609 103.919 185.508Z" fill="#779FFF"/>
<path d="M90.4443 191.491C91.5454 190.128 94.3405 184.377 92.9699 183.275C91.607 182.174 86.5943 186.148 85.4932 187.51C84.3921 188.873 84.6154 190.875 85.9783 191.976C87.3489 193.078 89.3432 192.862 90.4443 191.491Z" fill="#779FFF"/>
<path d="M97.9364 172.033C96.8353 173.396 94.0402 179.148 95.4108 180.249C96.7737 181.35 101.786 177.377 102.888 176.014C103.989 174.651 103.765 172.649 102.402 171.548C101.04 170.447 99.0375 170.663 97.9364 172.033Z" fill="#779FFF"/>
<g opacity="0.6">
<path d="M89.9592 172.234C90.1517 173.974 92.2384 180.018 93.9786 179.833C95.7188 179.641 96.458 173.296 96.2732 171.548C96.0807 169.808 94.5176 168.545 92.7774 168.738C91.0295 168.923 89.7744 170.493 89.9592 172.234Z" fill="white"/>
<path d="M98.4215 191.291C98.229 189.551 96.1423 183.506 94.4021 183.699C92.6619 183.891 91.9227 190.236 92.1075 191.984C92.3 193.724 93.8631 194.987 95.6033 194.795C97.3512 194.602 98.614 193.039 98.4215 191.291Z" fill="white"/>
<path d="M84.6616 185.993C86.4018 185.801 92.4463 183.714 92.2538 181.974C92.0613 180.234 85.7165 179.495 83.9686 179.679C82.2284 179.872 80.9656 181.435 81.1581 183.175C81.3506 184.923 82.9214 186.186 84.6616 185.993Z" fill="white"/>
<path d="M103.719 177.531C101.979 177.724 95.9343 179.81 96.1191 181.551C96.3116 183.291 102.656 184.03 104.404 183.845C106.145 183.653 107.407 182.09 107.215 180.349C107.03 178.601 105.467 177.346 103.719 177.531Z" fill="white"/>
<path d="M84.4613 178.016C85.8319 179.117 91.5761 181.913 92.6772 180.542C93.7783 179.171 89.8051 174.159 88.4422 173.065C87.0793 171.964 85.0773 172.187 83.9762 173.55C82.8751 174.921 83.0984 176.915 84.4613 178.016Z" fill="white"/>
<path d="M103.919 185.508C102.556 184.407 96.8045 181.612 95.7034 182.983C94.6023 184.346 98.5755 189.358 99.9384 190.459C101.301 191.561 103.303 191.337 104.404 189.974C105.506 188.611 105.29 186.609 103.919 185.508Z" fill="white"/>
<path d="M90.4443 191.491C91.5454 190.128 94.3405 184.377 92.9699 183.275C91.607 182.174 86.5943 186.148 85.4932 187.51C84.3921 188.873 84.6154 190.875 85.9783 191.976C87.3489 193.078 89.3432 192.862 90.4443 191.491Z" fill="white"/>
<path d="M97.9364 172.033C96.8353 173.396 94.0402 179.148 95.4108 180.249C96.7737 181.35 101.786 177.377 102.888 176.014C103.989 174.651 103.765 172.649 102.402 171.548C101.04 170.447 99.0375 170.663 97.9364 172.033Z" fill="white"/>
</g>
<path d="M90.4519 182.167C90.6752 184.23 92.5309 185.724 94.5945 185.501C96.6581 185.277 98.1519 183.422 97.9286 181.358C97.7053 179.294 95.8496 177.801 93.786 178.024C91.7224 178.247 90.2286 180.103 90.4519 182.167Z" fill="#779FFF"/>
<path d="M90.8215 231.223C86.4864 231.316 79.0636 227.312 76.1376 223.4C73.1731 219.435 81.4891 221.876 80.6267 218.757C79.7643 215.639 69.531 217.972 67.6291 213.506C65.7272 209.04 73.1192 210.041 72.8189 207.761C72.5186 205.475 64.8648 205.96 62.3931 201.216C59.9214 196.466 66.6589 199.114 65.5963 197.143C64.5337 195.172 56.0714 186.902 59.598 185.162C63.1246 183.422 71.0556 192.038 73.7121 192.993C76.3686 193.948 76.9692 187.98 80.4265 190.821C83.8838 193.663 81.3351 206.152 85.4007 207.785C88.4268 209.001 87.1255 203.295 90.6136 204.728C96.7197 207.23 92.5848 231.185 90.8215 231.223Z" fill="#779FFF"/>
<g opacity="0.2">
<path d="M90.8215 231.223C86.4864 231.316 79.0636 227.312 76.1376 223.4C73.1731 219.435 81.4891 221.876 80.6267 218.757C79.7643 215.639 69.531 217.972 67.6291 213.506C65.7272 209.04 73.1192 210.041 72.8189 207.761C72.5186 205.475 64.8648 205.96 62.3931 201.216C59.9214 196.466 66.6589 199.114 65.5963 197.143C64.5337 195.172 56.0714 186.902 59.598 185.162C63.1246 183.422 71.0556 192.038 73.7121 192.993C76.3686 193.948 76.9692 187.98 80.4265 190.821C83.8838 193.663 81.3351 206.152 85.4007 207.785C88.4268 209.001 87.1255 203.295 90.6136 204.728C96.7197 207.23 92.5848 231.185 90.8215 231.223Z" fill="white"/>
</g>
<path d="M97.0585 225.718C97.1278 225.841 96.481 226.457 98.6216 226.542C103.896 226.757 113.221 226.403 116.724 221.606C121.722 214.761 110.195 215.384 111.311 211.611C112.435 207.838 124.825 210.918 127.243 205.528C129.66 200.138 120.651 201.193 121.067 198.414C121.483 195.642 130.939 199.237 134.057 193.516C137.176 187.795 128.913 190.86 130.253 188.488C131.593 186.117 142.08 176.253 137.83 174.058C133.58 171.864 123.731 182.159 120.482 183.26C117.233 184.361 116.478 174.266 112.212 177.639C107.939 181.019 110.741 196.265 105.76 198.152C102.048 199.561 104.073 194.102 99.4917 194.309C93.2778 194.602 91.2296 215.97 97.0585 225.718Z" fill="#779FFF"/>
<g opacity="0.3">
<path d="M97.0585 225.718C97.1278 225.841 96.481 226.457 98.6216 226.542C103.896 226.757 113.221 226.403 116.724 221.606C121.722 214.761 110.195 215.384 111.311 211.611C112.435 207.838 124.825 210.918 127.243 205.528C129.66 200.138 120.651 201.193 121.067 198.414C121.483 195.642 130.939 199.237 134.057 193.516C137.176 187.795 128.913 190.86 130.253 188.488C131.593 186.117 142.08 176.253 137.83 174.058C133.58 171.864 123.731 182.159 120.482 183.26C117.233 184.361 116.478 174.266 112.212 177.639C107.939 181.019 110.741 196.265 105.76 198.152C102.048 199.561 104.073 194.102 99.4917 194.309C93.2778 194.602 91.2296 215.97 97.0585 225.718Z" fill="white"/>
</g>
<path d="M93.1084 244.383C93.1007 244.383 93.093 244.383 93.0776 244.383C92.8928 244.359 92.7542 244.19 92.7773 243.998C97.1047 208.562 117.517 194.163 117.725 194.025C117.879 193.917 118.095 193.955 118.203 194.117C118.31 194.271 118.272 194.487 118.118 194.594C117.918 194.733 97.7515 208.978 93.4626 244.09C93.4395 244.259 93.2778 244.39 93.1084 244.383Z" fill="#263238"/>
<path d="M113.074 198.945C112.936 198.937 112.805 198.845 112.759 198.706C112.697 198.529 112.797 198.329 112.982 198.275C113.105 198.236 116.147 197.274 121.129 198.329C121.313 198.367 121.429 198.552 121.39 198.737C121.352 198.922 121.167 199.045 120.982 198.999C116.193 197.982 113.221 198.914 113.19 198.922C113.159 198.945 113.121 198.945 113.074 198.945Z" fill="#263238"/>
<path d="M109.309 203.249C109.124 203.241 108.986 203.095 108.978 202.91C108.87 192.192 115.076 183.822 115.138 183.737C115.254 183.583 115.469 183.553 115.615 183.668C115.769 183.784 115.8 183.999 115.685 184.145C115.623 184.23 109.556 192.423 109.663 202.895C109.663 203.087 109.509 203.241 109.325 203.241C109.317 203.249 109.309 203.249 109.309 203.249Z" fill="#263238"/>
<path d="M103.226 212.32C103.141 212.32 103.057 212.281 102.987 212.212C102.857 212.073 102.864 211.858 103.003 211.727C103.049 211.681 107.638 207.438 113.652 209.594C113.829 209.656 113.921 209.856 113.86 210.033C113.798 210.21 113.598 210.302 113.421 210.241C107.8 208.223 103.511 212.189 103.473 212.227C103.403 212.289 103.319 212.32 103.226 212.32Z" fill="#263238"/>
<path d="M100.046 218.641C99.9152 218.634 99.7997 218.557 99.7458 218.433C99.6457 218.21 97.3973 212.82 98.637 205.143C98.6678 204.958 98.8372 204.828 99.0297 204.858C99.2145 204.889 99.3454 205.066 99.3146 205.251C98.1057 212.72 100.354 218.11 100.377 218.164C100.454 218.341 100.37 218.541 100.192 218.611C100.146 218.641 100.1 218.649 100.046 218.641Z" fill="#263238"/>
<path d="M93.2394 257.041C93.0623 257.034 92.916 256.887 92.9083 256.71L92.4617 247.324C91.145 216.124 69.7467 194.895 69.5311 194.687C69.3925 194.556 69.3925 194.34 69.5234 194.202C69.6543 194.063 69.8699 194.063 70.0085 194.194C70.2241 194.41 91.8226 215.808 93.147 247.301L93.5936 256.687C93.6013 256.88 93.4473 257.034 93.2625 257.041C93.2625 257.041 93.2471 257.041 93.2394 257.041Z" fill="#263238"/>
<path d="M78.363 206.406C78.3476 206.406 78.3245 206.406 78.3091 206.398C78.2783 206.391 78.2398 206.375 78.209 206.36L78.1012 206.314C75.2984 205.151 72.1645 204.543 69.2847 204.612C69.0922 204.62 68.9382 204.466 68.9305 204.273C68.9228 204.081 69.0768 203.927 69.2693 203.919C72.2415 203.857 75.4755 204.473 78.363 205.675L78.4785 205.721C78.5016 205.729 78.517 205.736 78.5401 205.752C78.671 205.821 78.7557 205.975 78.7172 206.129C78.6787 206.298 78.5247 206.414 78.363 206.406Z" fill="#263238"/>
<path d="M81.3891 210.426C81.3814 210.426 81.3814 210.426 81.3737 210.426C81.1812 210.41 81.0426 210.241 81.0657 210.056C81.8973 200.847 77.1233 193.27 77.0771 193.193C76.977 193.031 77.0232 192.823 77.1849 192.716C77.3466 192.615 77.5545 192.662 77.6623 192.823C77.7085 192.9 82.6057 200.67 81.7587 210.118C81.7279 210.295 81.5739 210.433 81.3891 210.426Z" fill="#263238"/>
<path d="M84.5152 215.762C84.4305 215.762 84.3458 215.723 84.2842 215.662C84.2457 215.623 80.773 212.197 75.6833 213.552C75.4985 213.606 75.3137 213.49 75.2598 213.305C75.2136 213.121 75.3214 212.936 75.5062 212.882C80.9886 211.419 84.6153 215.022 84.7693 215.176C84.9002 215.315 84.9002 215.531 84.7693 215.662C84.7 215.731 84.6076 215.762 84.5152 215.762Z" fill="#263238"/>
<path d="M88.4808 224.555C88.4346 224.555 88.3807 224.54 88.3345 224.516C88.1651 224.432 88.1035 224.224 88.1882 224.055C88.2113 224.008 90.5675 219.404 90.0285 212.759C90.0131 212.566 90.1517 212.404 90.3442 212.389C90.5367 212.366 90.6984 212.512 90.7138 212.705C91.2682 219.558 88.8966 224.178 88.7965 224.37C88.7349 224.493 88.604 224.555 88.4808 224.555Z" fill="#263238"/>
<path d="M112.543 258.52C112.543 269.462 107.623 278.34 92.7158 278.34C78.4862 278.34 72.8883 269.462 72.8883 258.52C72.8883 254.393 74.1588 250.55 76.3148 247.378H109.125C111.273 250.55 112.543 254.385 112.543 258.52Z" fill="#779FFF"/>
<path opacity="0.7" d="M112.543 258.52C112.543 269.462 107.623 278.34 92.7158 278.34C78.4862 278.34 72.8883 269.462 72.8883 258.52C72.8883 254.393 74.1588 250.55 76.3148 247.378H109.125C111.273 250.55 112.543 254.385 112.543 258.52Z" fill="white"/>
<path d="M226.457 268.661L234.126 267.544L232.194 249.595L224.517 250.72L226.457 268.661Z" fill="#E8BFBF"/>
<path d="M240.025 267.814C240.694 267.767 241.318 267.49 241.811 267.036C242.019 266.774 242.088 266.42 241.988 266.097C241.942 265.896 241.795 265.727 241.603 265.665C240.579 265.296 237.776 267.367 237.46 267.598C237.399 267.644 237.376 267.729 237.391 267.806C237.414 267.875 237.483 267.929 237.56 267.929C238.384 267.96 239.208 267.921 240.025 267.814ZM241.102 266.012C241.218 265.981 241.341 265.989 241.449 266.02C241.526 266.043 241.588 266.112 241.611 266.197C241.672 266.412 241.634 266.643 241.495 266.813C241.103 267.305 239.847 267.583 238.1 267.583C239.008 266.89 240.032 266.351 241.118 265.997L241.102 266.012Z" fill="#779FFF"/>
<path d="M237.607 267.929L237.668 267.898C238.523 267.336 240.055 265.388 239.763 264.541C239.678 264.349 239.516 264.11 239 264.141C238.631 264.148 238.277 264.31 238.03 264.595C237.199 265.55 237.368 267.652 237.368 267.737C237.368 267.798 237.391 267.86 237.445 267.898C237.491 267.937 237.553 267.945 237.607 267.929ZM238.893 264.526L238.993 264.48C239.331 264.464 239.37 264.587 239.378 264.634C239.555 265.142 238.538 266.643 237.691 267.336C237.614 266.451 237.815 265.565 238.277 264.811C238.438 264.641 238.662 264.533 238.9 264.518L238.893 264.526Z" fill="#779FFF"/>
<path d="M233.341 264.364L226.542 265.989C226.234 266.05 226.026 266.335 226.057 266.651L226.28 276.492C226.372 277.185 227.011 277.662 227.697 277.57C227.743 277.562 227.789 277.554 227.835 277.539C230.784 276.807 232.17 276.307 235.92 275.444C238.215 274.913 245.491 274.366 248.471 273.042C251.451 271.718 250.289 268.691 248.933 268.984C244.56 269.923 238.946 268.052 235.759 265.203C235.327 264.98 233.811 264.241 233.341 264.364Z" fill="#263238"/>
<path opacity="0.2" d="M232.194 249.595L233.187 258.851L225.518 259.975L224.517 250.727L232.194 249.595Z" fill="black"/>
<path d="M236.29 255.039L222.099 257.688C222.099 257.688 215.207 247.848 213.906 240.864C212.551 233.587 213.998 208.824 213.906 208.493C209.894 194.941 198.983 159.829 193.724 146.908C190.806 139.747 188.758 134.927 188.758 134.927L190.229 134.596L201.809 129.853L210.249 131.447C210.249 131.447 235.897 183.314 238.592 202.826C240.602 217.394 236.29 255.039 236.29 255.039Z" fill="#779FFF"/>
<path opacity="0.3" d="M236.29 255.039L222.099 257.688C222.099 257.688 215.207 247.848 213.906 240.864C212.551 233.587 213.998 208.824 213.906 208.493C209.894 194.941 198.983 159.829 193.724 146.908C190.806 139.747 188.758 134.927 188.758 134.927L190.229 134.596L201.809 129.853L210.249 131.447C210.249 131.447 235.897 183.314 238.592 202.826C240.602 217.394 236.29 255.039 236.29 255.039Z" fill="white"/>
<path opacity="0.2" d="M210.564 196.766C206.553 183.214 198.452 162.662 193.185 149.742L189.697 137.43L189.027 135.058L190.252 137.299L203.996 167.752C210.064 179.402 210.657 197.089 210.564 196.766Z" fill="black"/>
<path d="M148.279 264.433L155.117 267.313L162.408 251.667L155.579 248.787L148.279 264.433Z" fill="#E8BFBF"/>
<path d="M159.567 270.593C160.106 270.932 160.753 271.078 161.384 271.001C161.692 270.917 161.946 270.686 162.046 270.378C162.123 270.201 162.108 269.985 161.993 269.823C161.407 268.961 158.073 268.969 157.704 268.976C157.627 268.976 157.565 269.03 157.534 269.092C157.511 269.161 157.542 269.238 157.596 269.284C158.22 269.785 158.874 270.216 159.567 270.593ZM161.415 269.816C161.523 269.862 161.615 269.931 161.677 270.023C161.723 270.085 161.731 270.177 161.7 270.247C161.631 270.447 161.469 270.601 161.261 270.663C160.676 270.817 159.559 270.324 158.204 269.338C159.298 269.315 160.391 269.477 161.43 269.823L161.415 269.816Z" fill="#779FFF"/>
<path d="M157.634 269.323L157.696 269.338C158.666 269.384 160.961 268.745 161.215 267.929C161.253 267.737 161.269 267.459 160.853 267.19C160.56 266.982 160.198 266.913 159.852 266.99C158.674 267.259 157.611 268.969 157.565 269.038C157.527 269.084 157.511 269.153 157.534 269.207C157.542 269.254 157.58 269.3 157.634 269.323ZM160.553 267.421L160.66 267.444C160.93 267.621 160.891 267.744 160.876 267.783C160.73 268.276 159.097 268.861 158.05 268.922C158.489 268.199 159.151 267.629 159.929 267.305C160.152 267.267 160.383 267.313 160.576 267.436L160.553 267.421Z" fill="#779FFF"/>
<path d="M156.356 264.156L150.189 261.561C149.919 261.438 149.596 261.538 149.442 261.8L144.052 269.523C143.736 270.108 143.952 270.84 144.537 271.155C144.575 271.179 144.621 271.194 144.66 271.217C147.347 272.318 148.702 272.719 152.09 274.166C154.162 275.059 160.091 278.74 163.14 279.402C166.189 280.064 166.998 277.077 165.789 276.522C161.885 274.774 158.605 270.162 157.75 266.158C157.542 265.75 156.787 264.326 156.356 264.156Z" fill="#263238"/>
<path opacity="0.2" d="M162.709 251.852L158.751 259.821L151.99 256.787L155.933 248.81L162.709 251.852Z" fill="black"/>
<path d="M164.133 260.537L150.52 253.284C150.52 253.284 147.909 243.589 150.52 237.406C155.54 225.51 168.615 208.015 168.699 207.684C172.187 193.986 178.301 156.487 180.396 142.689C181.558 135.043 182.236 133.395 182.236 133.395L183.676 133.864L204.504 133.903C204.504 133.903 208.431 165.45 193.37 214.291C189.62 226.442 183.345 236.544 173.011 250.219C169.092 255.409 164.133 260.537 164.133 260.537Z" fill="#779FFF"/>
<path opacity="0.3" d="M164.133 260.537L150.52 253.284C150.52 253.284 147.909 243.589 150.52 237.406C155.54 225.51 168.615 208.015 168.699 207.684C172.187 193.986 178.301 156.487 180.396 142.689C181.558 135.043 182.236 133.395 182.236 133.395L183.676 133.864L204.504 133.903C204.504 133.903 208.431 165.45 193.37 214.291C189.62 226.442 183.345 236.544 173.011 250.219C169.092 255.409 164.133 260.537 164.133 260.537Z" fill="white"/>
<path d="M222.961 108.131C223.115 105.79 224.663 102.78 226.003 101.386C226.434 100.939 228.059 100.262 228.975 99.6611C233.495 96.6966 242.55 92.9929 242.55 92.9929L245.345 95.4261C245.345 95.4261 239.832 100.755 236.552 103.311C235.905 103.811 235.158 104.42 234.373 105.067C232.948 106.26 226.226 110.688 224.948 111.796L222.961 108.131Z" fill="#E8BFBF"/>
<path d="M250.512 91.6223L245.345 95.4415L242.45 93.3086C242.45 93.3086 243.636 91.7994 244.845 90.6367C245.376 90.1208 245.668 89.4201 245.676 88.6809C245.684 87.5413 245.861 86.2246 246.477 85.2544C246.492 85.2313 246.5 85.2082 246.515 85.1928C247.632 83.5065 250.258 84.0147 250.781 85.9628L251.528 88.7194C251.821 89.7974 251.42 90.9524 250.512 91.6223Z" fill="#E8BFBF"/>
<path d="M224.609 109.163L223.246 110.41C222.823 110.071 222.145 109.525 221.298 108.824C214.661 103.311 198.021 89.9514 204.658 86.1322C210.341 82.8597 216.385 92.8697 219.396 95.8727C220.012 96.4964 221.691 98.4291 223.046 100.862C224.463 103.411 225.51 106.499 224.609 109.163Z" fill="#263238"/>
<path d="M223.038 99.6687C220.682 101.394 218.672 103.58 217.155 106.075C218.249 109.694 220.998 112.836 224.463 114.345C226.365 109.941 227.242 105.197 226.873 100.416C225.672 100.154 224.239 99.9228 223.038 99.6687Z" fill="#263238"/>
<path d="M186.502 85.3544C184.13 86.1167 181.412 85.5084 179.887 87.4796C178.363 89.4508 177.908 92.0611 177.908 94.5559C177.908 98.0209 178.702 101.44 179.495 104.812C180.449 108.909 181.404 113.005 182.367 117.102C183.021 119.904 182.336 132.917 183.029 133.141C183.029 133.141 204.797 132.717 210.256 131.947C210.256 131.947 210.734 118.565 211.165 114.006C211.265 112.997 212.797 108.701 212.974 107.623C213.821 102.541 212.158 98.9526 210.395 94.1093C210.395 94.1093 206.537 86.3477 204.658 86.1398C201.309 85.7625 193.116 83.2292 186.502 85.3544Z" fill="#263238"/>
<path d="M185.585 91.7762C185.508 91.3219 181.643 83.5218 177.939 88.9734C172.788 96.5656 172.442 106.098 172.442 106.098C172.442 106.098 169.277 115.369 171.479 117.394C173.689 119.419 176.068 120.721 177.608 119.573C179.148 118.426 180.149 116.131 180.149 116.131C180.149 116.131 186.941 99.7226 185.585 91.7762Z" fill="#263238"/>
<path d="M185.331 82.4593C183.707 83.7298 183.922 86.6635 185.709 87.6876C185.262 89.2584 185.786 91.0756 187.01 92.1613C188.234 93.247 190.098 93.555 191.607 92.9236C190.952 94.094 191.692 95.634 192.816 96.3578C193.94 97.0816 195.334 97.2125 196.658 97.3896C197.982 97.5667 199.384 97.8516 200.354 98.7833C201.725 96.8121 203.095 94.8332 204.474 92.862C205.005 92.092 205.559 91.2681 205.605 90.3364C205.644 89.4047 204.936 88.3729 204.004 88.4422C204.951 87.4566 204.974 85.7164 204.042 84.7077C203.118 83.699 201.386 83.5681 200.316 84.4305C200.508 83.6374 200.046 82.7981 199.376 82.3361C198.706 81.8741 197.875 81.7124 197.066 81.6354L185.331 82.4593Z" fill="#263238"/>
<path d="M187.803 72.4108C188.873 76.3378 190.175 83.5835 187.572 86.4479C187.572 86.4479 194.926 89.3893 200.146 95.3029C202.579 92.939 202.325 90.2825 201.578 88.3421C201.001 86.8406 199.761 85.7241 198.275 85.0927C195.411 83.8761 195.388 81.0579 195.865 78.3629L187.803 72.4108Z" fill="#E8BFBF"/>
<path opacity="0.2" d="M189.405 79.1021L192.107 79.8335C193.262 80.1492 194.479 80.2185 195.665 80.0414C195.657 80.6266 195.549 81.8587 195.919 82.5132C194.363 83.2601 191.738 82.7518 190.583 81.3812C190.098 80.85 189.666 79.772 189.405 79.1021Z" fill="black"/>
<path d="M182.559 69.0689C185.424 75.1057 186.502 77.7237 190.914 79.6487C197.551 82.5516 204.327 77.7006 203.318 70.9323C202.418 64.8416 197.882 55.9866 190.837 55.9558C185.801 55.9096 181.681 59.9444 181.628 64.9802C181.62 66.3893 181.936 67.7907 182.559 69.0689Z" fill="#E8BFBF"/>
<path d="M185.701 57.5343C183.614 56.5641 181.027 57.3572 179.287 58.8818C177.523 60.4372 176.445 62.6086 175.414 64.7261C174.852 65.8734 174.289 67.0438 174.028 68.2912C173.766 69.5463 173.843 70.9169 174.505 72.0103C175.152 73.0806 176.361 73.789 177.608 73.8583C178.324 73.8968 179.164 74.4204 179.402 75.098C179.618 75.7294 179.518 76.4147 179.418 77.0692C179.318 77.7083 179.225 78.3705 179.425 78.9788C179.756 79.9952 180.842 80.6112 181.912 80.719C182.975 80.8191 184.03 80.5111 185.062 80.2108C185.709 80.0183 186.363 80.1261 186.871 80.5804C186.994 80.6959 187.102 80.8268 187.179 80.9808C187.495 81.5891 188.419 81.489 188.688 80.8576C189.62 78.64 188.265 75.1057 186.248 72.403C185.177 70.9708 185.231 71.3327 184.815 69.5925C184.461 68.1449 184.992 66.6357 185.647 65.2959C186.509 63.5095 187.626 61.7616 187.279 59.6287C187.118 58.7278 186.532 57.9193 185.701 57.5343Z" fill="#263238"/>
<path d="M182.736 75.2444C183.683 76.2531 185 76.846 186.386 76.8922C188.226 76.9307 188.688 75.1751 187.803 73.6813C187.002 72.3338 185.077 70.6937 183.414 71.3405C181.751 71.995 181.581 73.9893 182.736 75.2444Z" fill="#E8BFBF"/>
<path d="M194.063 67.9909C194.279 68.5222 194.695 68.7994 195.026 68.6608C195.357 68.5222 195.441 68.0217 195.257 67.5058C195.072 66.9899 194.625 66.705 194.294 66.8359C193.963 66.9745 193.863 67.4904 194.063 67.9909Z" fill="#263238"/>
<path d="M199.7 65.5654C199.907 66.0967 200.331 66.3739 200.662 66.243C200.985 66.1121 201.078 65.6039 200.893 65.088C200.708 64.5721 200.262 64.2872 199.931 64.4104C199.599 64.5336 199.499 65.0649 199.7 65.5654Z" fill="#263238"/>
<path d="M199.784 64.5106L200.854 63.6713C200.854 63.6713 200.623 64.8648 199.784 64.5106Z" fill="#263238"/>
<path d="M198.237 66.6973C199.546 67.9909 200.531 68.2219 201.948 69.1151C201.909 70.3702 200.724 70.6628 200.724 70.6628L198.237 66.6973Z" fill="#ED847E"/>
<path d="M200.123 73.1268C200.369 73.0344 200.6 72.9266 200.831 72.7957C200.908 72.7572 200.931 72.6648 200.893 72.5878C200.893 72.5878 200.893 72.5801 200.885 72.5801C200.839 72.5031 200.747 72.48 200.67 72.5108C199.476 73.2038 198.021 73.2808 196.758 72.7187C196.681 72.6802 196.581 72.7033 196.542 72.788C196.504 72.865 196.527 72.9651 196.612 73.0036C197.721 73.5118 198.983 73.558 200.123 73.1268Z" fill="#263238"/>
<path d="M193.855 63.8021C193.848 63.9484 193.747 64.0716 193.609 64.1101C192.13 64.549 191.476 66.4201 191.476 66.4355C191.414 66.6126 191.23 66.705 191.052 66.6434C190.875 66.5818 190.783 66.397 190.845 66.2199C190.898 66.1506 191.615 64.0023 193.416 63.4633C193.593 63.4171 193.778 63.5172 193.832 63.6866C193.848 63.7251 193.855 63.7636 193.855 63.8021Z" fill="#263238"/>
<path d="M200.67 62.8935C200.547 62.9705 200.393 62.9551 200.277 62.8627C199.076 61.9002 197.159 62.4315 197.151 62.4315C196.974 62.4854 196.789 62.3853 196.735 62.2082C196.681 62.0311 196.781 61.8463 196.958 61.7924C197.051 61.8001 199.222 61.161 200.693 62.3314C200.831 62.4469 200.855 62.6548 200.747 62.8011C200.724 62.8396 200.701 62.8704 200.67 62.8935Z" fill="#263238"/>
<path d="M194.163 66.9283L195.234 66.0967C195.234 66.0967 194.987 67.2902 194.163 66.9283Z" fill="#263238"/>
<path d="M186.163 56.5256C184.484 56.6565 182.883 57.619 181.974 59.0358C181.366 59.9906 181.15 61.4382 182.051 62.1158C182.475 62.4315 183.037 62.4931 183.56 62.5393C185.901 62.7472 188.796 60.9377 188.796 60.9377C187.895 57.1108 195.919 54.1463 199.877 60.0753C201.039 61.8155 200.724 63.0783 202.656 63.8868C203.565 64.2641 204.766 64.164 205.351 64.9571C206.321 66.2738 204.458 68.5068 205.644 69.6387C206.452 70.4164 208.285 70.1161 208.393 71.2326C208.447 71.7562 208.1 72.5108 208.608 72.6648C208.886 72.7495 209.14 72.4954 209.324 72.2644C209.763 71.71 210.21 71.1325 210.356 70.4472C210.503 69.7619 210.264 68.9303 209.617 68.6377C209.124 68.4144 207.823 68.6608 207.915 69.1998C208.023 69.8389 207.469 66.6896 207.715 65.5038C207.931 64.472 208.916 63.5711 208.616 62.5547C208.293 61.469 207.007 61.0378 205.89 60.8761C204.774 60.7144 203.503 60.5758 202.818 59.6826C202.056 58.6816 202.402 57.2494 202.156 56.0174C201.84 54.4466 200.531 53.2223 199.06 52.5832C194.602 50.6428 187.695 50.9123 186.163 56.5256Z" fill="#263238"/>
<path d="M198.845 77.0692L183.453 84.8C178.394 87.341 176.099 93.3239 178.17 98.5984L185.593 117.533C187.664 122.807 193.409 125.641 198.853 124.07L215.408 119.296C221.614 117.51 224.932 110.772 222.576 104.758L213.991 82.8596C211.627 76.8613 204.612 74.174 198.845 77.0692ZM196.296 109.594C192.862 110.941 188.989 109.247 187.641 105.813C186.294 102.379 187.988 98.506 191.422 97.1662C194.856 95.8187 198.729 97.5127 200.077 100.947C201.424 104.373 199.73 108.246 196.296 109.594Z" fill="#779FFF"/>
<path d="M198.845 77.0692L183.453 84.8C178.394 87.341 176.099 93.3239 178.17 98.5984L185.593 117.533C187.664 122.807 193.409 125.641 198.853 124.07L215.408 119.296C221.614 117.51 224.932 110.772 222.576 104.758L213.991 82.8596C211.627 76.8613 204.612 74.174 198.845 77.0692ZM196.296 109.594C192.862 110.941 188.989 109.247 187.641 105.813C186.294 102.379 187.988 98.506 191.422 97.1662C194.856 95.8187 198.729 97.5127 200.077 100.947C201.424 104.373 199.73 108.246 196.296 109.594Z" fill="#779FFF"/>
<path opacity="0.1" d="M222.568 104.774L213.975 82.875C211.619 76.8613 204.604 74.174 198.837 77.0692L194.363 79.3176L191.36 80.8268L183.445 84.8077C178.378 87.3487 176.091 93.3316 178.155 98.6061L185.578 117.54C187.649 122.815 193.393 125.649 198.837 124.078L215.4 119.304C216.755 118.911 217.972 118.28 219.026 117.471C219.843 116.847 220.559 116.124 221.152 115.315C223.331 112.389 224.008 108.447 222.568 104.774ZM196.296 109.594C192.87 110.942 188.989 109.248 187.649 105.813C186.301 102.387 187.995 98.506 191.43 97.1662C194.856 95.8187 198.737 97.5127 200.077 100.939C201.417 104.373 199.73 108.247 196.296 109.594Z" fill="white"/>
<path d="M198.999 78.5091L184.561 85.7625C179.81 88.1495 177.67 93.7551 179.602 98.6985L186.563 116.455C188.504 121.398 193.894 124.062 198.999 122.584L214.53 118.102C220.351 116.424 223.462 110.11 221.252 104.473L213.198 83.9376C210.995 78.3166 204.412 75.791 198.999 78.5091ZM187.641 105.813C186.294 102.379 187.988 98.506 191.422 97.1662C194.856 95.8187 198.729 97.5127 200.077 100.947C201.424 104.381 199.73 108.254 196.296 109.594C192.862 110.934 188.989 109.24 187.641 105.813Z" fill="#779FFF"/>
<path opacity="0.1" d="M198.999 78.5091L184.561 85.7625C179.81 88.1495 177.67 93.7551 179.602 98.6985L186.563 116.455C188.504 121.398 193.894 124.062 198.999 122.584L214.53 118.102C220.351 116.424 223.462 110.11 221.252 104.473L213.198 83.9376C210.995 78.3166 204.412 75.791 198.999 78.5091ZM187.641 105.813C186.294 102.379 187.988 98.506 191.422 97.1662C194.856 95.8187 198.729 97.5127 200.077 100.947C201.424 104.381 199.73 108.254 196.296 109.594C192.862 110.934 188.989 109.24 187.641 105.813Z" fill="#779FFF"/>
<path d="M270.747 71.6638L270.308 72.4723L270.062 72.9189L269.369 74.1894L269.662 77.4465C269.677 77.5851 269.662 77.7237 269.615 77.8546C269.523 78.1395 269.307 78.3705 269.023 78.486L262.94 80.8653C262.655 80.9808 262.339 80.95 262.077 80.8037C261.992 80.7575 261.915 80.6959 261.846 80.6266L258.404 77.1308L258.397 77.1231L253.507 79.0404L254.215 80.8499L249.326 82.7672L250.496 85.7471L246.893 87.1562C246.6 87.2717 246.269 87.2486 246 87.11C245.907 87.0638 245.83 87.0022 245.753 86.9329L243.674 84.9771L238.785 86.8944L239.955 89.8743L234.811 91.8917L235.982 94.8793C236.174 95.3644 235.936 95.9188 235.443 96.1113L221.352 101.624L215.238 86.032L266.204 66.0813L267.005 66.4894L269.592 67.8138C270.971 68.5299 271.51 70.2778 270.747 71.6638Z" fill="#779FFF"/>
<g opacity="0.1">
<path d="M270.747 71.6638L270.308 72.4723L270.062 72.9189L269.369 74.1894L269.662 77.4465C269.677 77.5851 269.662 77.7237 269.615 77.8546C269.523 78.1395 269.307 78.3705 269.023 78.486L262.94 80.8653C262.655 80.9808 262.339 80.95 262.077 80.8037C261.992 80.7575 261.915 80.6959 261.846 80.6266L258.404 77.1308L258.397 77.1231L253.507 79.0404L254.215 80.8499L249.326 82.7672L250.496 85.7471L246.893 87.1562C246.6 87.2717 246.269 87.2486 246 87.11C245.907 87.0638 245.83 87.0022 245.753 86.9329L243.674 84.9771L238.785 86.8944L239.955 89.8743L234.811 91.8917L235.982 94.8793C236.174 95.3644 235.936 95.9188 235.443 96.1113L221.352 101.624L215.238 86.032L266.204 66.0813L267.005 66.4894L269.592 67.8138C270.971 68.5299 271.51 70.2778 270.747 71.6638Z" fill="white"/>
</g>
<path d="M270.547 69.8851L216.062 91.2141L214.476 87.2101L266.42 66.8821L269.007 68.2065C269.993 68.707 270.555 69.1767 270.547 69.8851Z" fill="#779FFF"/>
<path opacity="0.1" d="M270.547 69.8851L216.062 91.2141L214.476 87.2101L266.42 66.8821L269.007 68.2065C269.993 68.707 270.555 69.1767 270.547 69.8851Z" fill="black"/>
<path d="M269.469 72.8958L268.946 74.0816C268.938 74.1047 268.93 74.1201 268.938 74.1432L269.231 77.3695C269.238 77.485 269.231 77.6005 269.2 77.716C269.192 77.7545 269.161 77.7853 269.123 77.8007L262.508 80.4033C262.47 80.4187 262.431 80.4187 262.401 80.3956C262.339 80.3571 262.277 80.3109 262.224 80.2493L258.435 76.4455C258.397 76.407 258.35 76.3993 258.304 76.4147L252.93 78.5322C252.868 78.5553 252.837 78.6323 252.86 78.6939L253.499 80.3109C253.523 80.3725 253.492 80.4495 253.43 80.4726L248.849 82.2744C248.787 82.2975 248.756 82.3745 248.779 82.4361L249.88 85.2312C249.904 85.2928 249.873 85.3698 249.811 85.3929L246.454 86.7173C246.423 86.7327 246.377 86.7327 246.346 86.7096C246.277 86.6711 246.208 86.6172 246.146 86.5633L243.69 84.2995C243.651 84.2687 243.605 84.261 243.559 84.2764L238.223 86.3785C238.161 86.4016 238.13 86.4786 238.153 86.5402L239.285 89.4046C239.308 89.4662 239.278 89.5432 239.216 89.5663L218.726 97.6282C218.665 97.6513 218.588 97.6205 218.565 97.5589L216.516 92.4307C216.493 92.3691 216.524 92.2921 216.586 92.269L269.977 71.2557C270.078 71.2172 270.185 71.3173 270.139 71.4251L269.469 72.8958Z" fill="#779FFF"/>
<path opacity="0.1" d="M269.469 72.8958L268.946 74.0816C268.938 74.1047 268.93 74.1201 268.938 74.1432L269.231 77.3695C269.238 77.485 269.231 77.6005 269.2 77.716C269.192 77.7545 269.161 77.7853 269.123 77.8007L262.508 80.4033C262.47 80.4187 262.431 80.4187 262.401 80.3956C262.339 80.3571 262.277 80.3109 262.224 80.2493L258.435 76.4455C258.397 76.407 258.35 76.3993 258.304 76.4147L252.93 78.5322C252.868 78.5553 252.837 78.6323 252.86 78.6939L253.499 80.3109C253.523 80.3725 253.492 80.4495 253.43 80.4726L248.849 82.2744C248.787 82.2975 248.756 82.3745 248.779 82.4361L249.88 85.2312C249.904 85.2928 249.873 85.3698 249.811 85.3929L246.454 86.7173C246.423 86.7327 246.377 86.7327 246.346 86.7096C246.277 86.6711 246.208 86.6172 246.146 86.5633L243.69 84.2995C243.651 84.2687 243.605 84.261 243.559 84.2764L238.223 86.3785C238.161 86.4016 238.13 86.4786 238.153 86.5402L239.285 89.4046C239.308 89.4662 239.278 89.5432 239.216 89.5663L218.726 97.6282C218.665 97.6513 218.588 97.6205 218.565 97.5589L216.516 92.4307C216.493 92.3691 216.524 92.2921 216.586 92.269L269.977 71.2557C270.078 71.2172 270.185 71.3173 270.139 71.4251L269.469 72.8958Z" fill="black"/>
<path opacity="0.3" d="M191.014 95.4954C186.71 97.1817 184.584 102.04 186.271 106.345C187.957 110.649 192.816 112.774 197.128 111.088C201.432 109.402 203.557 104.543 201.871 100.239C200.185 95.9343 195.326 93.8091 191.014 95.4954ZM196.296 109.594C192.862 110.942 188.989 109.248 187.641 105.813C186.294 102.379 187.988 98.5061 191.422 97.1663C194.856 95.8188 198.729 97.5128 200.077 100.947C201.424 104.373 199.73 108.247 196.296 109.594Z" fill="white"/>
<path opacity="0.1" d="M221.152 115.307C220.551 116.116 219.843 116.847 219.026 117.463L191.36 80.8191L191.337 80.7883C191.337 80.7883 193.77 79.564 194.325 79.2021C194.325 79.2329 194.34 79.2714 194.363 79.3176C195.58 81.9048 217.325 110.133 221.152 115.307Z" fill="white"/>
<path opacity="0.1" d="M217.155 118.618C216.978 118.703 208.924 121.152 208.924 121.152L199.938 109.255C202.264 106.976 203.134 103.449 201.871 100.231C200.185 95.9265 195.326 93.8013 191.014 95.4876C190.637 95.6339 190.282 95.8033 189.936 96.0035L181.99 85.4776C181.99 85.4776 188.973 82.1512 189.751 81.6661C189.959 83.1368 217.155 118.31 217.155 118.618Z" fill="white"/>
<path d="M184.176 60.8222C183.275 61.8925 182.906 63.394 183.214 64.7569C183.514 66.1198 184.484 67.321 185.755 67.9139C186.409 68.2219 187.133 68.3682 187.788 68.6839C188.434 69.0073 189.043 69.5694 189.112 70.2932C189.189 71.094 188.604 71.8332 188.658 72.634C188.712 73.3655 189.281 73.943 189.859 74.3973C190.436 74.8516 191.083 75.2751 191.399 75.9373C191.715 76.5995 191.514 77.5774 190.806 77.7699C190.66 78.0009 190.598 78.5476 190.791 78.7401C190.983 78.9326 191.314 78.9788 191.545 78.8325C192.631 78.1626 193.378 76.9075 193.386 75.6293C193.393 74.3511 192.592 73.1114 191.43 72.5878C191.222 72.1643 191.384 71.6253 191.561 71.1864C191.915 70.3086 192.269 69.4231 192.616 68.5453C192.754 68.1988 192.631 67.5674 192.392 67.2825C192.154 66.9976 191.799 66.8359 191.453 66.6896L189.181 65.7194C188.327 65.3498 185.778 61.9464 188.796 60.9531C188.404 60.0753 187.718 59.8058 186.779 59.6287C185.84 59.4516 184.792 60.083 184.176 60.8222Z" fill="#263238"/>
<path d="M188.296 57.1571C188.219 58.0503 188.142 58.9512 188.073 59.8444C188.827 58.6124 190.221 56.2177 190.167 56.3101C189.574 56.6258 188.889 56.8337 188.296 57.1571Z" fill="#263238"/>
<path d="M189.312 58.6277C190.367 57.6575 191.414 56.6796 192.469 55.7094C191.661 55.4091 190.675 55.6324 190.082 56.2638C190.098 56.1945 189.605 57.6883 189.312 58.6277Z" fill="#263238"/>
<path d="M182.898 131.477C178.794 136.575 180.157 140.479 174.49 149.503C181.635 154.801 189.474 155.678 199.222 154.924C200.377 152.883 200.955 150.758 202.11 148.718C203.757 150.766 205.09 152.491 206.737 154.539C211.842 153.738 217.91 152.306 221.945 149.703C218.38 145.615 216.162 140.509 213.883 135.997C212.813 133.887 213.259 132.994 210.418 130.222C201.37 130.638 192.4 130.861 183.352 131.277C183.599 131.285 182.659 131.462 182.898 131.477Z" fill="#263238"/>
<path d="M184.022 130.623L183.453 133.002C183.368 133.187 183.591 133.364 183.899 133.349L208.832 132.247C209.07 132.255 209.263 132.109 209.271 131.963L209.402 129.599C209.402 129.437 209.194 129.306 208.932 129.321L184.43 130.399C184.276 130.399 184.115 130.484 184.022 130.623Z" fill="#779FFF"/>
<path d="M184.022 130.623L183.453 133.002C183.368 133.187 183.591 133.364 183.899 133.349L208.832 132.247C209.07 132.255 209.263 132.109 209.271 131.963L209.402 129.599C209.402 129.437 209.194 129.306 208.932 129.321L184.43 130.399C184.276 130.399 184.115 130.484 184.022 130.623Z" fill="#779FFF"/>
<path d="M189.52 133.356L188.796 133.387C188.658 133.387 188.542 133.325 188.55 133.241L188.742 130.168C188.742 130.084 188.866 130.007 189.012 129.999L189.736 129.961C189.874 129.961 189.99 130.022 189.982 130.115L189.79 133.179C189.782 133.264 189.659 133.349 189.52 133.356Z" fill="#263238"/>
<path d="M207.523 132.579L206.799 132.609C206.66 132.609 206.545 132.548 206.552 132.463L206.745 129.398C206.745 129.306 206.868 129.229 207.007 129.221L207.731 129.191C207.869 129.191 207.985 129.252 207.977 129.337L207.784 132.401C207.784 132.494 207.669 132.571 207.523 132.579Z" fill="#263238"/>
<path d="M192.739 118.403C192.785 118.626 194.725 121.714 196.242 121.498C196.258 121.498 196.265 121.498 196.281 121.491C196.72 121.429 197.166 121.606 197.436 121.96C198.044 122.753 198.414 123.208 198.822 123.731C199.492 124.578 200.654 124.848 201.624 124.394C201.917 124.263 202.202 124.109 202.487 123.962C203.426 123.462 203.904 122.384 203.65 121.352C203.372 120.22 202.933 119.127 202.356 118.11C202.156 117.764 201.932 117.417 201.586 117.217C201.239 117.017 197.898 116.008 196.604 116.047C195.257 116.085 193.978 117.856 192.739 118.403Z" fill="#E8BFBF"/>
<path d="M196.643 115.947C196.643 115.947 176.176 109.748 171.756 113.875C169.161 116.301 170.386 118.595 171.841 120.066C172.919 121.167 175.275 120.898 176.807 120.821L192.931 119.242L196.643 115.947Z" fill="#E8BFBF"/>
<path d="M184.877 113.113C184.769 112.004 183.907 111.088 182.913 110.587C181.92 110.095 180.788 109.941 179.687 109.802C177.115 109.479 174.544 109.147 171.972 108.824C170.663 110.472 169.723 112.743 169.77 114.853C169.808 116.955 170.601 119.042 171.972 120.644C173.204 118.264 174.828 115.816 177.231 114.63C179.626 113.444 182.244 112.636 184.877 113.113Z" fill="#263238"/>
<path opacity="0.1" d="M179.603 75.7295C179.579 75.6833 179.579 75.6602 179.603 75.6525C179.764 75.6063 179.741 75.6371 179.603 75.7295Z" fill="white"/>
<path d="M230.453 42.5887L236.159 53.1608L259.428 33.4026C259.636 33.2255 259.398 32.9098 259.174 33.0638L237.36 47.4628L233.995 40.9024L230.453 42.5887Z" fill="#779FFF"/>
<path d="M267.167 42.6425C267.167 52.0673 257.272 59.7057 245.076 59.7057C240.394 59.7057 236.051 58.5892 232.478 56.6565L219.504 62.2929L227.689 53.1761C224.74 50.2886 222.977 46.6311 222.977 42.6502C222.977 33.2254 232.871 25.587 245.068 25.587C257.272 25.5793 267.167 33.2177 267.167 42.6425Z" stroke="#779FFF" stroke-width="1.3" stroke-miterlimit="10"/>
</g>
<defs>
<clipPath id="clip0_1166_1913">
<rect width="385" height="286.486" fill="white"/>
</clipPath>
</defs>
</svg>
