<svg width="28" height="28" viewBox="0 0 28 28" fill="none" xmlns="http://www.w3.org/2000/svg">
<path d="M22.3333 2H7.33333C6.89131 2 6.46738 2.18061 6.15482 2.5021C5.84226 2.82359 5.66667 3.25963 5.66667 3.71429V7.14286H4V8.85714H5.66667V13.1429H4V14.8571H5.66667V19.1429H4V20.8571H5.66667V24.2857C5.66667 24.7404 5.84226 25.1764 6.15482 25.4979C6.46738 25.8194 6.89131 26 7.33333 26H22.3333C22.7754 26 23.1993 25.8194 23.5118 25.4979C23.8244 25.1764 24 24.7404 24 24.2857V3.71429C24 3.25963 23.8244 2.82359 23.5118 2.5021C23.1993 2.18061 22.7754 2 22.3333 2ZM22.3333 24.2857H7.33333V20.8571H9V19.1429H7.33333V14.8571H9V13.1429H7.33333V8.85714H9V7.14286H7.33333V3.71429H22.3333V24.2857Z" fill="#939393"/>
<path d="M12 7H19V8.75H12V7ZM12 13.125H19V14.875H12V13.125ZM12 19.25H19V21H12V19.25Z" fill="#939393"/>
</svg>
