<svg width="14" height="14" viewBox="0 0 14 14" fill="none" xmlns="http://www.w3.org/2000/svg">
<g clip-path="url(#clip0_1116_892)">
<path d="M6.99982 13.5559C10.4647 13.5559 13.2736 10.7471 13.2736 7.28217C13.2736 3.81728 10.4647 1.00842 6.99982 1.00842C3.53493 1.00842 0.726074 3.81728 0.726074 7.28217C0.726074 10.7471 3.53493 13.5559 6.99982 13.5559Z" fill="#D68F30"/>
<path d="M1.15283 8.91186V9.5528C1.21846 9.72233 1.29174 9.88967 1.37158 10.0515V8.91186H1.15283ZM1.86814 10.1183V10.8883C1.95564 11.0119 2.04643 11.1333 2.14158 11.2503V10.1183H1.86814ZM2.81533 11.1245V11.9547C2.92143 12.0498 3.0308 12.1406 3.14346 12.2281V11.1245H2.81533ZM3.98127 11.889V12.7815C4.08846 12.8406 4.19783 12.8964 4.30939 12.95V11.889H3.98127ZM5.30361 12.3758V13.3208C5.41189 13.3514 5.52127 13.3787 5.63174 13.4039V12.3758H5.30361ZM6.85127 12.5442V13.5515C6.90049 13.5526 6.94971 13.5548 7.00002 13.5548C7.06018 13.5548 7.12033 13.5515 7.17939 13.5505V12.5442H6.85127ZM8.39893 12.3681V13.3962C8.50939 13.3711 8.61877 13.3426 8.72705 13.312V12.3681H8.39893ZM9.71799 11.8748V12.9369C9.82955 12.8833 9.93893 12.8253 10.0461 12.7651V11.8748H9.71799ZM10.8806 11.1037V12.2084C10.9932 12.1204 11.1027 12.0285 11.2088 11.9328V11.1037H10.8806ZM12.1505 10.0942H11.8771V11.2262C11.9722 11.1081 12.0641 10.9867 12.1505 10.862V10.0942ZM12.8614 8.88342H12.6427V10.0253C12.7225 9.86014 12.7958 9.69061 12.8614 9.51889V8.88342Z" fill="#BC6F00"/>
<path d="M6.99982 12.9916C10.4647 12.9916 13.2736 10.1827 13.2736 6.71784C13.2736 3.25295 10.4647 0.444092 6.99982 0.444092C3.53493 0.444092 0.726074 3.25295 0.726074 6.71784C0.726074 10.1827 3.53493 12.9916 6.99982 12.9916Z" fill="#FFF176"/>
<path d="M7 12.4326C10.1562 12.4326 12.7148 9.87399 12.7148 6.71777C12.7148 3.56155 10.1562 1.00293 7 1.00293C3.84378 1.00293 1.28516 3.56155 1.28516 6.71777C1.28516 9.87399 3.84378 12.4326 7 12.4326Z" fill="#F2BC1A"/>
<path d="M1.27435 6.9366C1.23389 6.1841 1.36404 5.42066 1.62654 4.70535C1.89998 3.99222 2.31889 3.33269 2.84717 2.77269C3.9081 1.6505 5.4481 0.999722 7.00013 0.992065C8.55217 1.00082 10.0933 1.6505 11.152 2.77378C11.6814 3.33269 12.0992 3.99332 12.3726 4.70535C12.6362 5.42175 12.7664 6.1841 12.7248 6.9366H12.7029C12.7008 6.18591 12.5522 5.44286 12.2654 4.7491C11.9782 4.05611 11.5588 3.42569 11.0306 2.893C10.5021 2.36084 9.87401 1.93791 9.18217 1.64832C8.49055 1.35955 7.74852 1.21086 6.99904 1.21086C6.24956 1.21086 5.50753 1.35955 4.81592 1.64832C4.12407 1.93791 3.49599 2.36084 2.96748 2.893C2.43894 3.4254 2.01947 4.0559 1.73264 4.7491C1.4459 5.44286 1.29729 6.18591 1.29514 6.9366H1.27435Z" fill="#E08F00"/>
<path d="M6.99982 0.44519C3.53482 0.44519 0.726074 3.25394 0.726074 6.71894C0.726074 10.1839 3.53482 12.9927 6.99982 12.9927C10.4648 12.9927 13.2736 10.1839 13.2736 6.71894C13.2736 3.25394 10.4648 0.44519 6.99982 0.44519ZM6.99982 12.4338C3.84326 12.4338 1.28498 9.8755 1.28498 6.71894C1.28498 3.56128 3.84326 1.003 6.99982 1.003C10.1564 1.003 12.7147 3.56128 12.7147 6.71785C12.7147 9.87441 10.1564 12.4338 6.99982 12.4338Z" fill="#FFF176"/>
<path d="M4.1551 2.33521L4.294 2.76505L4.74682 2.59224V2.76505L4.38041 3.03083L4.52041 3.28677V3.46067L4.1551 3.19489L3.78869 3.46067V3.28677L3.92869 3.03083L3.56338 2.76505V2.59224L4.0151 2.76505L4.1551 2.33521ZM2.40729 4.80271L2.54729 5.23255L2.999 5.05974V5.23255L2.63369 5.49833L2.77369 5.75536V5.92817L2.40729 5.66239L2.04197 5.92817V5.75536L2.18197 5.49833L1.81557 5.23255V5.05974L2.26838 5.23255L2.40729 4.80271ZM2.35588 7.84442L2.49588 8.27427L2.9476 8.10146V8.27427L2.58229 8.54005L2.72229 8.79708V8.96989L2.35588 8.70411L1.99057 8.96989V8.79708L2.13057 8.54005L1.76416 8.27427V8.10146L2.21697 8.27427L2.35588 7.84442ZM4.22182 10.2594L4.36182 10.6893L4.81353 10.5165V10.6893L4.44822 10.955L4.58822 11.211V11.3849L4.22182 11.1191L3.8565 11.3849V11.211L3.9965 10.955L3.6301 10.6893V10.5165L4.08291 10.6893L4.22182 10.2594ZM9.84478 2.33521L9.70588 2.76505L9.25307 2.59224V2.76505L9.61947 3.03083L9.47947 3.28677V3.46067L9.84478 3.19489L10.2112 3.46067V3.28677L10.0712 3.03083L10.4365 2.76505V2.59224L9.98479 2.76505L9.84478 2.33521ZM11.5926 4.80271L11.4526 5.23255L11.0009 5.05974V5.23255L11.3662 5.49833L11.2262 5.75536V5.92817L11.5926 5.66239L11.9579 5.92817V5.75536L11.8179 5.49833L12.1843 5.23255V5.05974L11.7315 5.23255L11.5926 4.80271ZM11.644 7.84442L11.504 8.27427L11.0523 8.10146V8.27427L11.4176 8.54005L11.2776 8.79708V8.96989L11.644 8.70411L12.0093 8.96989V8.79708L11.8693 8.54005L12.2357 8.27427V8.10146L11.7829 8.27427L11.644 7.84442ZM9.77807 10.2594L9.63807 10.6893L9.18635 10.5165V10.6893L9.55166 10.955L9.41166 11.211V11.3849L9.77807 11.1191L10.1434 11.3849V11.211L10.0034 10.955L10.3698 10.6893V10.5165L9.91697 10.6893L9.77807 10.2594Z" fill="#D38200"/>
<path d="M9.77824 10.0855L9.91715 10.5153H10.37L10.0036 10.7811L10.1436 11.2109L9.77824 10.9452L9.41184 11.2109L9.55184 10.7811L9.18652 10.5153H9.63824L9.77824 10.0855ZM11.6442 7.67157L11.7831 8.10141H12.2359L11.8695 8.36719L12.0095 8.79704L11.6442 8.53125L11.2778 8.79704L11.4178 8.36719L11.0525 8.10141H11.5042L11.6442 7.67157ZM11.5928 4.62985L11.7317 5.05969H12.1845L11.8181 5.32547L11.9581 5.75532L11.5928 5.48954L11.2264 5.75532L11.3664 5.32547L11.0011 5.05969H11.4528L11.5928 4.62985ZM9.84496 2.16125L9.98496 2.5911H10.4367L10.0714 2.85688L10.2114 3.28672L9.84496 3.02094L9.47965 3.28672L9.61965 2.85688L9.25324 2.5911H9.70605L9.84496 2.16125Z" fill="#FFF176"/>
<path d="M7.00529 11.2109L7.14529 11.6408L7.59701 11.468V11.6408L7.2317 11.9066L7.3717 12.1636V12.3364L7.00529 12.0706L6.63998 12.3364V12.1636L6.77998 11.9066L6.41357 11.6408V11.468L6.86639 11.6408L7.00529 11.2109Z" fill="#D38200"/>
<path d="M7.00529 10.9812L7.14529 11.411H7.59701L7.2317 11.6768L7.3717 12.1067L7.00529 11.8409L6.63998 12.1067L6.77998 11.6768L6.41357 11.411H6.86639L7.00529 10.9812Z" fill="#FFF176"/>
<path d="M7.00529 1.40979L7.14529 1.83963L7.59701 1.66682V1.83963L7.2317 2.10541L7.3717 2.36245V2.53526L7.00529 2.26948L6.63998 2.53526V2.36245L6.77998 2.10541L6.41357 1.83963V1.66682L6.86639 1.83963L7.00529 1.40979Z" fill="#D38200"/>
<path d="M7.00541 1.23706L7.14541 1.6669H7.59713L7.23182 1.93269L7.37182 2.36253L7.00541 2.09675L6.6401 2.36253L6.7801 1.93269L6.41369 1.6669H6.8665L7.00541 1.23706ZM4.22182 10.0855L4.08291 10.5153H3.6301L3.9965 10.7811L3.8565 11.211L4.22182 10.9452L4.58822 11.211L4.44822 10.7811L4.81354 10.5153H4.36182L4.22182 10.0855ZM2.35588 7.67159L2.21697 8.10144H1.76416L2.13057 8.36722L1.99057 8.79706L2.35588 8.53128L2.72229 8.79706L2.58229 8.36722L2.9476 8.10144H2.49588L2.35588 7.67159ZM2.40729 4.62987L2.26838 5.05972H1.81557L2.18197 5.3255L2.04197 5.75534L2.40729 5.48956L2.77369 5.75534L2.63369 5.3255L2.999 5.05972H2.54729L2.40729 4.62987ZM4.1551 2.16128L4.0151 2.59112H3.56338L3.92869 2.8569L3.78869 3.28675L4.1551 3.02097L4.52041 3.28675L4.38041 2.8569L4.74682 2.59112H4.294L4.1551 2.16128Z" fill="#FFF176"/>
<path d="M10.4149 5.2719C10.4149 5.23362 3.59209 5.2719 3.59209 5.2719L3.53084 5.45565V5.76955C3.53084 5.82643 3.57678 5.87237 3.63365 5.87237H10.3668C10.4237 5.87237 10.4696 5.82643 10.4696 5.76955V5.4644L10.4149 5.2719ZM10.4247 9.35158H3.62053L3.16553 9.58018L3.171 9.8744C3.17209 9.90612 3.19834 9.93237 3.23115 9.93237H10.7704C10.8021 9.93237 10.8294 9.90721 10.8305 9.8744L10.836 9.58565L10.4247 9.35158Z" fill="#D38200"/>
<path d="M4.71752 8.45692H4.32596C4.26143 8.45692 4.20893 8.25349 4.20893 8.18896L4.83346 8.16927C4.83346 8.2338 4.78096 8.45692 4.71752 8.45692ZM4.85096 6.34489H4.19143C4.14221 6.34489 4.09955 6.31208 4.08533 6.26505L4.03393 5.83521H4.99971L4.95596 6.26505C4.94283 6.31208 4.90018 6.34489 4.85096 6.34489ZM4.19143 8.58708H4.85096C4.90018 8.58708 4.99752 8.61771 5.01064 8.66474C5.01064 8.66474 5.00736 8.86927 5.00736 8.95021C5.00736 9.03114 4.97455 9.09021 4.90127 9.09021H4.14111C4.06783 9.09021 4.03502 9.02458 4.03502 8.95021C4.03502 8.87583 4.03174 8.66692 4.03174 8.66692C4.04596 8.61989 4.14221 8.58708 4.19143 8.58708ZM9.80346 8.45692H9.4119C9.34736 8.45692 9.29486 8.25349 9.29486 8.18896L9.91939 8.16927C9.91939 8.2338 9.86799 8.45692 9.80346 8.45692ZM9.93689 6.34489H9.27736C9.22814 6.34489 9.18549 6.31208 9.17127 6.26505L9.11986 5.83521H10.0856L10.0419 6.26505C10.0288 6.31208 9.98611 6.34489 9.93689 6.34489ZM9.27736 8.58708H9.93689C9.98611 8.58708 10.0835 8.61771 10.0966 8.66474C10.0966 8.66474 10.0933 8.86927 10.0933 8.95021C10.0933 9.03114 10.0605 9.09021 9.98721 9.09021H9.22705C9.15377 9.09021 9.12096 9.02458 9.12096 8.95021C9.12096 8.87583 9.11768 8.66692 9.11768 8.66692C9.1319 8.61989 9.22814 8.58708 9.27736 8.58708ZM8.10814 8.45692H7.71658C7.65205 8.45692 7.59955 8.25349 7.59955 8.18896L8.22408 8.16927C8.22408 8.2338 8.17268 8.45692 8.10814 8.45692ZM8.24158 6.34489H7.58205C7.53283 6.34489 7.49018 6.31208 7.47596 6.26505L7.42455 5.83521H8.39033L8.34658 6.26505C8.33346 6.31208 8.2908 6.34489 8.24158 6.34489ZM7.58205 8.58708H8.24158C8.2908 8.58708 8.38814 8.61771 8.40127 8.66474C8.40127 8.66474 8.39799 8.86927 8.39799 8.95021C8.39799 9.03114 8.36518 9.09021 8.29189 9.09021H7.53174C7.45846 9.09021 7.42564 9.02458 7.42564 8.95021C7.42564 8.87583 7.42236 8.66692 7.42236 8.66692C7.43658 8.61989 7.53283 8.58708 7.58205 8.58708ZM6.41283 8.45692H6.02127C5.95674 8.45692 5.90424 8.25349 5.90424 8.18896L6.52877 8.16927C6.52877 8.2338 6.47736 8.45692 6.41283 8.45692ZM6.54627 6.34489H5.88674C5.83752 6.34489 5.79486 6.31208 5.78064 6.26505L5.72924 5.83521H6.69502L6.65127 6.26505C6.63814 6.31208 6.59549 6.34489 6.54627 6.34489ZM5.88674 8.58708H6.54627C6.59549 8.58708 6.69283 8.61771 6.70596 8.66474C6.70596 8.66474 6.70268 8.86927 6.70268 8.95021C6.70268 9.03114 6.66986 9.09021 6.59658 9.09021H5.83643C5.76314 9.09021 5.73033 9.02458 5.73033 8.95021C5.73033 8.87583 5.72705 8.66692 5.72705 8.66692C5.74127 8.61989 5.83752 8.58708 5.88674 8.58708Z" fill="#D38200"/>
<path d="M10.464 4.97874C10.464 4.94046 10.4444 4.90437 10.4148 4.88687L7.00451 2.95093L3.58982 4.88468C3.55701 4.90437 3.53623 4.94046 3.53623 4.97874L3.53076 5.45671C3.53076 5.51687 3.57998 5.56608 3.64014 5.56608H10.359C10.4192 5.56608 10.4684 5.51687 10.4684 5.45671L10.464 4.97874Z" fill="#FFF176"/>
<path d="M9.60758 4.84862L7.00008 3.36877L4.39258 4.84862H9.60758Z" fill="#F2BC1A"/>
<path d="M8.6482 4.66818L6.99992 3.73193L5.35164 4.66818H8.6482ZM10.2145 8.971H3.78539C3.72195 8.971 3.6618 8.99834 3.61914 9.04537L3.17727 9.53865C3.14664 9.57256 3.1707 9.62615 3.21664 9.62615H10.7832C10.828 9.62615 10.8521 9.57256 10.8226 9.53865L10.3796 9.04537C10.338 8.99834 10.2768 8.971 10.2145 8.971ZM9.8032 8.25897H9.41164C9.34711 8.25897 9.29461 8.20647 9.29461 8.14193V6.39412C9.29461 6.32959 9.34711 6.27709 9.41164 6.27709H9.8032C9.86774 6.27709 9.92024 6.32959 9.92024 6.39412V8.14303C9.92024 8.20756 9.86774 8.25897 9.8032 8.25897ZM9.93774 6.14693H9.2782C9.22899 6.14693 9.18633 6.11412 9.17211 6.06709L9.1218 5.89318C9.10102 5.82318 9.15461 5.75318 9.22789 5.75318H9.98805C10.0613 5.75318 10.1138 5.82318 10.0941 5.89318L10.0438 6.06709C10.0296 6.11412 9.98586 6.14693 9.93774 6.14693ZM9.27711 8.39022H9.93664C9.98586 8.39022 10.0285 8.42303 10.0427 8.47006L10.093 8.64397C10.1138 8.71396 10.0602 8.78397 9.98695 8.78397H9.2268C9.15352 8.78397 9.10102 8.71396 9.1207 8.64397L9.17102 8.47006C9.18524 8.42193 9.22899 8.39022 9.27711 8.39022ZM4.71727 8.25897H4.3257C4.26117 8.25897 4.20867 8.20647 4.20867 8.14193V6.39412C4.20867 6.32959 4.26117 6.27709 4.3257 6.27709H4.71727C4.7818 6.27709 4.8343 6.32959 4.8343 6.39412V8.14303C4.8332 8.20756 4.7807 8.25897 4.71727 8.25897ZM4.8507 6.14693H4.19117C4.14195 6.14693 4.0993 6.11412 4.08508 6.06709L4.03477 5.89318C4.01399 5.82318 4.06758 5.75318 4.14086 5.75318H4.90102C4.9743 5.75318 5.0268 5.82318 5.00711 5.89318L4.9568 6.06709C4.94258 6.11412 4.89992 6.14693 4.8507 6.14693ZM4.19117 8.39022H4.8507C4.89992 8.39022 4.94258 8.42303 4.9568 8.47006L5.00711 8.64397C5.02789 8.71396 4.9743 8.78397 4.90102 8.78397H4.14086C4.06758 8.78397 4.01508 8.71396 4.03477 8.64397L4.08508 8.47006C4.0993 8.42193 4.14195 8.39022 4.19117 8.39022ZM6.41258 8.25897H6.02102C5.95649 8.25897 5.90399 8.20647 5.90399 8.14193V6.39412C5.90399 6.32959 5.95649 6.27709 6.02102 6.27709H6.41258C6.47711 6.27709 6.52961 6.32959 6.52961 6.39412V8.14303C6.52932 8.17388 6.51687 8.20336 6.49495 8.22508C6.47303 8.24679 6.44343 8.25897 6.41258 8.25897ZM6.54602 6.14693H5.88649C5.83727 6.14693 5.79461 6.11412 5.78039 6.06709L5.73008 5.89318C5.7093 5.82318 5.76289 5.75318 5.83617 5.75318H6.59633C6.66961 5.75318 6.72211 5.82318 6.70242 5.89318L6.65211 6.06709C6.63789 6.11412 6.59524 6.14693 6.54602 6.14693ZM5.88649 8.39022H6.54602C6.59524 8.39022 6.63789 8.42303 6.65211 8.47006L6.70242 8.64397C6.7232 8.71396 6.66961 8.78397 6.59633 8.78397H5.83617C5.76289 8.78397 5.71039 8.71396 5.73008 8.64397L5.78039 8.47006C5.79461 8.42193 5.83727 8.39022 5.88649 8.39022ZM8.10789 8.25897H7.71633C7.6518 8.25897 7.5993 8.20647 7.5993 8.14193V6.39412C7.5993 6.32959 7.6518 6.27709 7.71633 6.27709H8.10789C8.17242 6.27709 8.22492 6.32959 8.22492 6.39412V8.14303C8.22463 8.17388 8.21218 8.20336 8.19026 8.22508C8.16834 8.24679 8.13874 8.25897 8.10789 8.25897ZM8.24133 6.14693H7.5818C7.53258 6.14693 7.48992 6.11412 7.4757 6.06709L7.42539 5.89318C7.40461 5.82318 7.4582 5.75318 7.53149 5.75318H8.29164C8.36492 5.75318 8.41742 5.82318 8.39774 5.89318L8.34742 6.06709C8.3332 6.11412 8.29055 6.14693 8.24133 6.14693ZM7.5818 8.39022H8.24133C8.29055 8.39022 8.3332 8.42303 8.34742 8.47006L8.39774 8.64397C8.41852 8.71396 8.36492 8.78397 8.29164 8.78397H7.53149C7.4582 8.78397 7.4057 8.71396 7.42539 8.64397L7.4757 8.47006C7.48992 8.42193 7.53367 8.39022 7.5818 8.39022Z" fill="#FFF176"/>
</g>
<defs>
<clipPath id="clip0_1116_892">
<rect width="14" height="14" fill="white"/>
</clipPath>
</defs>
</svg>
