<svg width="28" height="28" viewBox="0 0 28 28" fill="none" xmlns="http://www.w3.org/2000/svg">
<path d="M3.71429 5H12.2857C12.7404 5 13.1764 5.18964 13.4979 5.52721C13.8194 5.86477 14 6.32261 14 6.8C14 7.27739 13.8194 7.73523 13.4979 8.07279C13.1764 8.41036 12.7404 8.6 12.2857 8.6H3.71429C3.25963 8.6 2.82359 8.41036 2.5021 8.07279C2.18061 7.73523 2 7.27739 2 6.8C2 6.32261 2.18061 5.86477 2.5021 5.52721C2.82359 5.18964 3.25963 5 3.71429 5ZM15.7143 19.4H24.2857C24.7404 19.4 25.1764 19.5896 25.4979 19.9272C25.8194 20.2648 26 20.7226 26 21.2C26 21.6774 25.8194 22.1352 25.4979 22.4728C25.1764 22.8104 24.7404 23 24.2857 23H15.7143C15.2596 23 14.8236 22.8104 14.5021 22.4728C14.1806 22.1352 14 21.6774 14 21.2C14 20.7226 14.1806 20.2648 14.5021 19.9272C14.8236 19.5896 15.2596 19.4 15.7143 19.4ZM3.71429 12.2H24.2857C24.7404 12.2 25.1764 12.3896 25.4979 12.7272C25.8194 13.0648 26 13.5226 26 14C26 14.4774 25.8194 14.9352 25.4979 15.2728C25.1764 15.6104 24.7404 15.8 24.2857 15.8H3.71429C3.25963 15.8 2.82359 15.6104 2.5021 15.2728C2.18061 14.9352 2 14.4774 2 14C2 13.5226 2.18061 13.0648 2.5021 12.7272C2.82359 12.3896 3.25963 12.2 3.71429 12.2Z" fill="black"/>
</svg>
