<svg width="15" height="16" viewBox="0 0 15 16" fill="none" xmlns="http://www.w3.org/2000/svg">
<path d="M13.6354 0.125H0.802083C0.589358 0.125 0.385345 0.209505 0.234925 0.359925C0.0845051 0.510345 0 0.714358 0 0.927083V3.00448C0 3.42397 0.170844 3.83624 0.467615 4.13301L4.8125 8.4779V14.5625C4.81266 14.6992 4.84769 14.8335 4.91428 14.9528C4.98088 15.0722 5.07682 15.1725 5.19304 15.2444C5.30926 15.3163 5.4419 15.3573 5.57841 15.3636C5.71492 15.3699 5.85077 15.3413 5.97311 15.2804L9.18145 13.6762C9.45335 13.5398 9.625 13.2623 9.625 12.9583V8.4779L13.9699 4.13301C14.2667 3.83624 14.4375 3.42397 14.4375 3.00448V0.927083C14.4375 0.714358 14.353 0.510345 14.2026 0.359925C14.0522 0.209505 13.8481 0.125 13.6354 0.125ZM8.25584 7.57876C8.18122 7.65312 8.12203 7.7415 8.0817 7.83882C8.04137 7.93615 8.02068 8.04048 8.02083 8.14583V12.4626L6.41667 13.2647V8.14583C6.41682 8.04048 6.39613 7.93615 6.3558 7.83882C6.31547 7.7415 6.25628 7.65312 6.18166 7.57876L1.60417 3.00448V1.72917H12.8341L12.8357 2.99886L8.25584 7.57876Z" fill="white"/>
</svg>
