<svg width="32" height="32" viewBox="0 0 32 32" fill="none" xmlns="http://www.w3.org/2000/svg">
<g clip-path="url(#clip0_1281_1493)">
<circle cx="16" cy="16" r="15.75" fill="#FFA831" stroke="#EE8F0F" stroke-width="0.5"/>
<circle cx="16" cy="16" r="13.75" fill="url(#paint0_linear_1281_1493)" stroke="#FDBD4D" stroke-width="0.5"/>
<g filter="url(#filter0_dd_1281_1493)">
<path d="M12.936 8.608C13.9081 8.20796 14.9488 8.00143 16 8C17.048 8 18.088 8.208 19.064 8.608C20.032 9.008 20.912 9.6 21.656 10.344C22.4 11.088 22.992 11.968 23.392 12.936C23.792 13.912 24 14.952 24 16C24 18.12 23.16 20.16 21.656 21.656C20.914 22.3998 20.0324 22.9898 19.0618 23.3921C18.0912 23.7943 17.0507 24.0009 16 24C14.9488 23.9986 13.9081 23.792 12.936 23.392C11.9662 22.9895 11.0854 22.3996 10.344 21.656C9.60016 20.914 9.01018 20.0324 8.60794 19.0618C8.20569 18.0912 7.99909 17.0507 8 16C8 13.88 8.84 11.84 10.344 10.344C11.088 9.6 11.968 9.008 12.936 8.608ZM16 20L17.248 17.264L20 16L17.248 14.752L16 12L14.744 14.752L12 16L14.744 17.264L16 20Z" fill="#FDE194"/>
</g>
</g>
<defs>
<filter id="filter0_dd_1281_1493" x="6.5" y="7" width="19" height="19" filterUnits="userSpaceOnUse" color-interpolation-filters="sRGB">
<feFlood flood-opacity="0" result="BackgroundImageFix"/>
<feColorMatrix in="SourceAlpha" type="matrix" values="0 0 0 0 0 0 0 0 0 0 0 0 0 0 0 0 0 0 127 0" result="hardAlpha"/>
<feOffset dy="0.5"/>
<feGaussianBlur stdDeviation="0.75"/>
<feColorMatrix type="matrix" values="0 0 0 0 0 0 0 0 0 0 0 0 0 0 0 0 0 0 0.12 0"/>
<feBlend mode="normal" in2="BackgroundImageFix" result="effect1_dropShadow_1281_1493"/>
<feColorMatrix in="SourceAlpha" type="matrix" values="0 0 0 0 0 0 0 0 0 0 0 0 0 0 0 0 0 0 127 0" result="hardAlpha"/>
<feOffset/>
<feGaussianBlur stdDeviation="0.5"/>
<feColorMatrix type="matrix" values="0 0 0 0 0 0 0 0 0 0 0 0 0 0 0 0 0 0 0.039 0"/>
<feBlend mode="normal" in2="effect1_dropShadow_1281_1493" result="effect2_dropShadow_1281_1493"/>
<feBlend mode="normal" in="SourceGraphic" in2="effect2_dropShadow_1281_1493" result="shape"/>
</filter>
<linearGradient id="paint0_linear_1281_1493" x1="27.375" y1="23.875" x2="3.5" y2="10" gradientUnits="userSpaceOnUse">
<stop stop-color="#FEC258"/>
<stop offset="0.493004" stop-color="#F8AA1E"/>
<stop offset="0.978599" stop-color="#FEC258"/>
</linearGradient>
<clipPath id="clip0_1281_1493">
<path d="M0 16C0 7.16344 7.16344 0 16 0C24.8366 0 32 7.16344 32 16C32 24.8366 24.8366 32 16 32C7.16344 32 0 24.8366 0 16Z" fill="white"/>
</clipPath>
</defs>
</svg>
