<svg width="28" height="28" viewBox="0 0 28 28" fill="none" xmlns="http://www.w3.org/2000/svg">
<path d="M14 27.1118C20.9298 27.1118 26.5475 21.4941 26.5475 14.5643C26.5475 7.63455 20.9298 2.01685 14 2.01685C7.07021 2.01685 1.4525 7.63455 1.4525 14.5643C1.4525 21.4941 7.07021 27.1118 14 27.1118Z" fill="#D68F30"/>
<path d="M2.30563 17.8237V19.1056C2.43688 19.4447 2.58344 19.7793 2.74313 20.1031V17.8237H2.30563ZM3.73625 20.2365V21.7765C3.91125 22.0237 4.09281 22.2665 4.28313 22.5006V20.2365H3.73625ZM5.63063 22.249V23.9093C5.84281 24.0997 6.06156 24.2812 6.28688 24.4562V22.249H5.63063ZM7.9625 23.7781V25.5631C8.17688 25.6812 8.39563 25.7928 8.61875 25.9V23.7781H7.9625ZM10.6072 24.7515V26.6415C10.8238 26.7028 11.0425 26.7575 11.2634 26.8078V24.7515H10.6072ZM13.7025 25.0884V27.1031C13.8009 27.1053 13.8994 27.1097 14 27.1097C14.1203 27.1097 14.2406 27.1031 14.3588 27.1009V25.0884H13.7025ZM16.7978 24.7362V26.7925C17.0188 26.7422 17.2375 26.6853 17.4541 26.624V24.7362H16.7978ZM19.4359 23.7497V25.8737C19.6591 25.7665 19.8778 25.6506 20.0922 25.5303V23.7497H19.4359ZM21.7613 22.2075V24.4168C21.9864 24.2409 22.2053 24.057 22.4175 23.8656V22.2075H21.7613ZM24.3009 20.1884H23.7541V22.4525C23.9444 22.2162 24.1281 21.9734 24.3009 21.724V20.1884ZM25.7228 17.7668H25.2853V20.0506C25.445 19.7203 25.5916 19.3812 25.7228 19.0378V17.7668Z" fill="#BC6F00"/>
<path d="M14 25.9832C20.9298 25.9832 26.5475 20.3655 26.5475 13.4357C26.5475 6.50589 20.9298 0.888184 14 0.888184C7.07021 0.888184 1.4525 6.50589 1.4525 13.4357C1.4525 20.3655 7.07021 25.9832 14 25.9832Z" fill="#FFF176"/>
<path d="M14 24.8654C20.3124 24.8654 25.4297 19.7481 25.4297 13.4357C25.4297 7.12323 20.3124 2.00598 14 2.00598C7.68756 2.00598 2.57031 7.12323 2.57031 13.4357C2.57031 19.7481 7.68756 24.8654 14 24.8654Z" fill="#F2BC1A"/>
<path d="M2.54844 13.8731C2.4675 12.3681 2.72782 10.8412 3.25282 9.41057C3.79969 7.98432 4.6375 6.66526 5.69407 5.54526C7.81594 3.30088 10.8959 1.99932 14 1.98401C17.1041 2.00151 20.1863 3.30088 22.3038 5.54745C23.3625 6.66526 24.1981 7.98651 24.745 9.41057C25.2722 10.8434 25.5325 12.3681 25.4494 13.8731H25.4056C25.4013 12.3717 25.1041 10.8856 24.5306 9.49807C23.9561 8.11211 23.1173 6.85125 22.0609 5.78588C21.0039 4.72157 19.7478 3.8757 18.3641 3.29651C16.9808 2.71897 15.4968 2.4216 13.9978 2.4216C12.4989 2.4216 11.0148 2.71897 9.63157 3.29651C8.24787 3.8757 6.99171 4.72157 5.93469 5.78588C4.87761 6.85067 4.03867 8.11167 3.465 9.49807C2.89153 10.8856 2.5943 12.3717 2.59 13.8731H2.54844Z" fill="#E08F00"/>
<path d="M14 0.890259C7.07 0.890259 1.4525 6.50776 1.4525 13.4378C1.4525 20.3678 7.07 25.9853 14 25.9853C20.93 25.9853 26.5475 20.3678 26.5475 13.4378C26.5475 6.50776 20.93 0.890259 14 0.890259ZM14 24.8674C7.68687 24.8674 2.57031 19.7509 2.57031 13.4378C2.57031 7.12245 7.68687 2.00588 14 2.00588C20.3131 2.00588 25.4297 7.12245 25.4297 13.4356C25.4297 19.7487 20.3131 24.8674 14 24.8674Z" fill="#FFF176"/>
<path d="M8.31031 4.67029L8.58812 5.52998L9.49375 5.18435V5.52998L8.76093 6.06154L9.04094 6.57341V6.92123L8.31031 6.38966L7.5775 6.92123V6.57341L7.8575 6.06154L7.12687 5.52998V5.18435L8.03031 5.52998L8.31031 4.67029ZM4.81468 9.60529L5.09469 10.465L5.99812 10.1193V10.465L5.2675 10.9965L5.5475 11.5106V11.8562L4.81468 11.3247L4.08406 11.8562V11.5106L4.36406 10.9965L3.63125 10.465V10.1193L4.53687 10.465L4.81468 9.60529ZM4.71187 15.6887L4.99187 16.5484L5.89531 16.2028V16.5484L5.16469 17.08L5.44468 17.594V17.9397L4.71187 17.4081L3.98125 17.9397V17.594L4.26125 17.08L3.52843 16.5484V16.2028L4.43406 16.5484L4.71187 15.6887ZM8.44375 20.5187L8.72375 21.3784L9.62718 21.0328V21.3784L8.89656 21.91L9.17656 22.4219V22.7697L8.44375 22.2381L7.71312 22.7697V22.4219L7.99312 21.91L7.26031 21.3784V21.0328L8.16594 21.3784L8.44375 20.5187ZM19.6897 4.67029L19.4119 5.52998L18.5062 5.18435V5.52998L19.2391 6.06154L18.9591 6.57341V6.92123L19.6897 6.38966L20.4225 6.92123V6.57341L20.1425 6.06154L20.8731 5.52998V5.18435L19.9697 5.52998L19.6897 4.67029ZM23.1853 9.60529L22.9053 10.465L22.0019 10.1193V10.465L22.7325 10.9965L22.4525 11.5106V11.8562L23.1853 11.3247L23.9159 11.8562V11.5106L23.6359 10.9965L24.3687 10.465V10.1193L23.4631 10.465L23.1853 9.60529ZM23.2881 15.6887L23.0081 16.5484L22.1047 16.2028V16.5484L22.8353 17.08L22.5553 17.594V17.9397L23.2881 17.4081L24.0187 17.9397V17.594L23.7387 17.08L24.4716 16.5484V16.2028L23.5659 16.5484L23.2881 15.6887ZM19.5562 20.5187L19.2762 21.3784L18.3728 21.0328V21.3784L19.1034 21.91L18.8234 22.4219V22.7697L19.5562 22.2381L20.2869 22.7697V22.4219L20.0069 21.91L20.7397 21.3784V21.0328L19.8341 21.3784L19.5562 20.5187Z" fill="#D38200"/>
<path d="M19.5563 20.1709L19.8341 21.0306H20.7397L20.0069 21.5622L20.2869 22.4219L19.5563 21.8903L18.8234 22.4219L19.1034 21.5622L18.3728 21.0306H19.2763L19.5563 20.1709ZM23.2881 15.3431L23.5659 16.2028H24.4716L23.7388 16.7344L24.0188 17.5941L23.2881 17.0625L22.5553 17.5941L22.8353 16.7344L22.1047 16.2028H23.0081L23.2881 15.3431ZM23.1853 9.2597L23.4631 10.1194H24.3688L23.6359 10.6509L23.9159 11.5106L23.1853 10.9791L22.4525 11.5106L22.7325 10.6509L22.0019 10.1194H22.9053L23.1853 9.2597ZM19.6897 4.32251L19.9697 5.1822H20.8731L20.1425 5.71376L20.4225 6.57345L19.6897 6.04188L18.9591 6.57345L19.2391 5.71376L18.5063 5.1822H19.4119L19.6897 4.32251Z" fill="#FFF176"/>
<path d="M14.0109 22.4219L14.2909 23.2816L15.1944 22.9359V23.2816L14.4638 23.8131L14.7437 24.3272V24.6728L14.0109 24.1413L13.2803 24.6728V24.3272L13.5603 23.8131L12.8275 23.2816V22.9359L13.7331 23.2816L14.0109 22.4219Z" fill="#D38200"/>
<path d="M14.0109 21.9625L14.2909 22.8222H15.1944L14.4638 23.3538L14.7437 24.2135L14.0109 23.6819L13.2803 24.2135L13.5603 23.3538L12.8275 22.8222H13.7331L14.0109 21.9625Z" fill="#FFF176"/>
<path d="M14.0109 2.8197L14.2909 3.67939L15.1944 3.33376V3.67939L14.4638 4.21095L14.7437 4.72501V5.07064L14.0109 4.53908L13.2803 5.07064V4.72501L13.5603 4.21095L12.8275 3.67939V3.33376L13.7331 3.67939L14.0109 2.8197Z" fill="#D38200"/>
<path d="M14.0109 2.47412L14.2909 3.33381H15.1944L14.4637 3.86537L14.7437 4.72506L14.0109 4.1935L13.2803 4.72506L13.5603 3.86537L12.8275 3.33381H13.7331L14.0109 2.47412ZM8.44375 20.171L8.16594 21.0307H7.26031L7.99312 21.5622L7.71312 22.4219L8.44375 21.8904L9.17656 22.4219L8.89656 21.5622L9.62718 21.0307H8.72375L8.44375 20.171ZM4.71187 15.3432L4.43406 16.2029H3.52843L4.26125 16.7344L3.98125 17.5941L4.71187 17.0626L5.44468 17.5941L5.16469 16.7344L5.89531 16.2029H4.99187L4.71187 15.3432ZM4.81469 9.25975L4.53687 10.1194H3.63125L4.36406 10.651L4.08406 11.5107L4.81469 10.9791L5.5475 11.5107L5.2675 10.651L5.99812 10.1194H5.09469L4.81469 9.25975ZM8.31031 4.32256L8.03031 5.18225H7.12687L7.8575 5.71381L7.5775 6.5735L8.31031 6.04193L9.04094 6.5735L8.76094 5.71381L9.49375 5.18225H8.58812L8.31031 4.32256Z" fill="#FFF176"/>
<path d="M20.8294 10.5438C20.8294 10.4672 7.18375 10.5438 7.18375 10.5438L7.06125 10.9113V11.5391C7.06125 11.6529 7.15313 11.7447 7.26688 11.7447H20.7331C20.8469 11.7447 20.9388 11.6529 20.9388 11.5391V10.9288L20.8294 10.5438ZM20.8491 18.7032H7.24063L6.33063 19.1604L6.34156 19.7488C6.34375 19.8122 6.39625 19.8647 6.46188 19.8647H21.5403C21.6038 19.8647 21.6584 19.8144 21.6606 19.7488L21.6716 19.1713L20.8491 18.7032Z" fill="#D38200"/>
<path d="M9.43469 16.9137H8.65156C8.5225 16.9137 8.4175 16.5069 8.4175 16.3778L9.66656 16.3384C9.66656 16.4675 9.56156 16.9137 9.43469 16.9137ZM9.70156 12.6897H8.3825C8.28406 12.6897 8.19875 12.624 8.17031 12.53L8.0675 11.6703H9.99906L9.91156 12.53C9.88531 12.624 9.8 12.6897 9.70156 12.6897ZM8.3825 17.174H9.70156C9.8 17.174 9.99469 17.2353 10.0209 17.3294C10.0209 17.3294 10.0144 17.7384 10.0144 17.9003C10.0144 18.0622 9.94875 18.1803 9.80219 18.1803H8.28188C8.13531 18.1803 8.06969 18.049 8.06969 17.9003C8.06969 17.7515 8.06313 17.3337 8.06313 17.3337C8.09156 17.2397 8.28406 17.174 8.3825 17.174ZM19.6066 16.9137H18.8234C18.6944 16.9137 18.5894 16.5069 18.5894 16.3778L19.8384 16.3384C19.8384 16.4675 19.7356 16.9137 19.6066 16.9137ZM19.8734 12.6897H18.5544C18.4559 12.6897 18.3706 12.624 18.3422 12.53L18.2394 11.6703H20.1709L20.0834 12.53C20.0572 12.624 19.9719 12.6897 19.8734 12.6897ZM18.5544 17.174H19.8734C19.9719 17.174 20.1666 17.2353 20.1928 17.3294C20.1928 17.3294 20.1863 17.7384 20.1863 17.9003C20.1863 18.0622 20.1206 18.1803 19.9741 18.1803H18.4538C18.3072 18.1803 18.2416 18.049 18.2416 17.9003C18.2416 17.7515 18.235 17.3337 18.235 17.3337C18.2634 17.2397 18.4559 17.174 18.5544 17.174ZM16.2159 16.9137H15.4328C15.3038 16.9137 15.1988 16.5069 15.1988 16.3778L16.4478 16.3384C16.4478 16.4675 16.345 16.9137 16.2159 16.9137ZM16.4828 12.6897H15.1638C15.0653 12.6897 14.98 12.624 14.9516 12.53L14.8488 11.6703H16.7803L16.6928 12.53C16.6666 12.624 16.5813 12.6897 16.4828 12.6897ZM15.1638 17.174H16.4828C16.5813 17.174 16.7759 17.2353 16.8022 17.3294C16.8022 17.3294 16.7956 17.7384 16.7956 17.9003C16.7956 18.0622 16.73 18.1803 16.5834 18.1803H15.0631C14.9166 18.1803 14.8509 18.049 14.8509 17.9003C14.8509 17.7515 14.8444 17.3337 14.8444 17.3337C14.8728 17.2397 15.0653 17.174 15.1638 17.174ZM12.8253 16.9137H12.0422C11.9131 16.9137 11.8081 16.5069 11.8081 16.3778L13.0572 16.3384C13.0572 16.4675 12.9544 16.9137 12.8253 16.9137ZM13.0922 12.6897H11.7731C11.6747 12.6897 11.5894 12.624 11.5609 12.53L11.4581 11.6703H13.3897L13.3022 12.53C13.2759 12.624 13.1906 12.6897 13.0922 12.6897ZM11.7731 17.174H13.0922C13.1906 17.174 13.3853 17.2353 13.4116 17.3294C13.4116 17.3294 13.405 17.7384 13.405 17.9003C13.405 18.0622 13.3394 18.1803 13.1928 18.1803H11.6725C11.5259 18.1803 11.4603 18.049 11.4603 17.9003C11.4603 17.7515 11.4538 17.3337 11.4538 17.3337C11.4822 17.2397 11.6747 17.174 11.7731 17.174Z" fill="#D38200"/>
<path d="M20.9278 9.95748C20.9278 9.88092 20.8884 9.80873 20.8294 9.77373L14.0087 5.90186L7.17937 9.76936C7.11375 9.80873 7.07219 9.88092 7.07219 9.95748L7.06125 10.9134C7.06125 11.0337 7.15969 11.1322 7.28 11.1322H20.7178C20.8381 11.1322 20.9366 11.0337 20.9366 10.9134L20.9278 9.95748Z" fill="#FFF176"/>
<path d="M19.215 9.69724L14 6.73755L8.785 9.69724H19.215Z" fill="#F2BC1A"/>
<path d="M17.2966 9.33625L14 7.46375L10.7034 9.33625H17.2966ZM20.4291 17.9419H7.57094C7.44406 17.9419 7.32375 17.9966 7.23844 18.0906L6.35469 19.0772C6.29344 19.145 6.34156 19.2522 6.43344 19.2522H21.5666C21.6562 19.2522 21.7044 19.145 21.6453 19.0772L20.7594 18.0906C20.6762 17.9966 20.5537 17.9419 20.4291 17.9419ZM19.6066 16.5178H18.8234C18.6944 16.5178 18.5894 16.4128 18.5894 16.2837V12.7881C18.5894 12.6591 18.6944 12.5541 18.8234 12.5541H19.6066C19.7356 12.5541 19.8406 12.6591 19.8406 12.7881V16.2859C19.8406 16.415 19.7356 16.5178 19.6066 16.5178ZM19.8756 12.2937H18.5566C18.4581 12.2937 18.3728 12.2281 18.3444 12.1341L18.2437 11.7862C18.2022 11.6462 18.3094 11.5062 18.4559 11.5062H19.9762C20.1228 11.5062 20.2278 11.6462 20.1884 11.7862L20.0878 12.1341C20.0594 12.2281 19.9719 12.2937 19.8756 12.2937ZM18.5544 16.7803H19.8734C19.9719 16.7803 20.0572 16.8459 20.0856 16.94L20.1862 17.2878C20.2278 17.4278 20.1206 17.5678 19.9741 17.5678H18.4537C18.3072 17.5678 18.2022 17.4278 18.2416 17.2878L18.3422 16.94C18.3706 16.8437 18.4581 16.7803 18.5544 16.7803ZM9.43469 16.5178H8.65156C8.5225 16.5178 8.4175 16.4128 8.4175 16.2837V12.7881C8.4175 12.6591 8.5225 12.5541 8.65156 12.5541H9.43469C9.56375 12.5541 9.66875 12.6591 9.66875 12.7881V16.2859C9.66656 16.415 9.56156 16.5178 9.43469 16.5178ZM9.70156 12.2937H8.3825C8.28406 12.2937 8.19875 12.2281 8.17031 12.1341L8.06969 11.7862C8.02812 11.6462 8.13531 11.5062 8.28187 11.5062H9.80219C9.94875 11.5062 10.0537 11.6462 10.0144 11.7862L9.91375 12.1341C9.88531 12.2281 9.8 12.2937 9.70156 12.2937ZM8.3825 16.7803H9.70156C9.8 16.7803 9.88531 16.8459 9.91375 16.94L10.0144 17.2878C10.0559 17.4278 9.94875 17.5678 9.80219 17.5678H8.28187C8.13531 17.5678 8.03031 17.4278 8.06969 17.2878L8.17031 16.94C8.19875 16.8437 8.28406 16.7803 8.3825 16.7803ZM12.8253 16.5178H12.0422C11.9131 16.5178 11.8081 16.4128 11.8081 16.2837V12.7881C11.8081 12.6591 11.9131 12.5541 12.0422 12.5541H12.8253C12.9544 12.5541 13.0594 12.6591 13.0594 12.7881V16.2859C13.0588 16.3476 13.0339 16.4066 12.99 16.45C12.9462 16.4935 12.887 16.5178 12.8253 16.5178ZM13.0922 12.2937H11.7731C11.6747 12.2937 11.5894 12.2281 11.5609 12.1341L11.4603 11.7862C11.4187 11.6462 11.5259 11.5062 11.6725 11.5062H13.1928C13.3394 11.5062 13.4444 11.6462 13.405 11.7862L13.3044 12.1341C13.2759 12.2281 13.1906 12.2937 13.0922 12.2937ZM11.7731 16.7803H13.0922C13.1906 16.7803 13.2759 16.8459 13.3044 16.94L13.405 17.2878C13.4466 17.4278 13.3394 17.5678 13.1928 17.5678H11.6725C11.5259 17.5678 11.4209 17.4278 11.4603 17.2878L11.5609 16.94C11.5894 16.8437 11.6747 16.7803 11.7731 16.7803ZM16.2159 16.5178H15.4328C15.3038 16.5178 15.1987 16.4128 15.1987 16.2837V12.7881C15.1987 12.6591 15.3038 12.5541 15.4328 12.5541H16.2159C16.345 12.5541 16.45 12.6591 16.45 12.7881V16.2859C16.4494 16.3476 16.4245 16.4066 16.3807 16.45C16.3368 16.4935 16.2776 16.5178 16.2159 16.5178ZM16.4828 12.2937H15.1637C15.0653 12.2937 14.98 12.2281 14.9516 12.1341L14.8509 11.7862C14.8094 11.6462 14.9166 11.5062 15.0631 11.5062H16.5834C16.73 11.5062 16.835 11.6462 16.7956 11.7862L16.695 12.1341C16.6666 12.2281 16.5812 12.2937 16.4828 12.2937ZM15.1637 16.7803H16.4828C16.5812 16.7803 16.6666 16.8459 16.695 16.94L16.7956 17.2878C16.8372 17.4278 16.73 17.5678 16.5834 17.5678H15.0631C14.9166 17.5678 14.8116 17.4278 14.8509 17.2878L14.9516 16.94C14.98 16.8437 15.0675 16.7803 15.1637 16.7803Z" fill="#FFF176"/>
</svg>
