<svg width="27" height="27" viewBox="0 0 27 27" fill="none" xmlns="http://www.w3.org/2000/svg">
<circle cx="13.5" cy="13.5" r="13.5" fill="#2EDD89"/>
<g clip-path="url(#clip0_1301_1501)">
<path d="M21.6 16.25H21.2V13.7164C21.2 13.4187 21.0725 13.1328 20.8475 12.9219L18.35 10.5805C18.125 10.3695 17.82 10.25 17.5025 10.25H16.4V9.125C16.4 8.50391 15.8625 8 15.2 8H8.8C8.1375 8 7.6 8.50391 7.6 9.125V10.25H6.2C6.09 10.25 6 10.3344 6 10.4375V10.8125C6 10.9156 6.09 11 6.2 11H13C13.11 11 13.2 11.0844 13.2 11.1875V11.5625C13.2 11.6656 13.11 11.75 13 11.75H7C6.89 11.75 6.8 11.8344 6.8 11.9375V12.3125C6.8 12.4156 6.89 12.5 7 12.5H12.2C12.31 12.5 12.4 12.5844 12.4 12.6875V13.0625C12.4 13.1656 12.31 13.25 12.2 13.25H6.2C6.09 13.25 6 13.3344 6 13.4375V13.8125C6 13.9156 6.09 14 6.2 14H11.4C11.51 14 11.6 14.0844 11.6 14.1875V14.5625C11.6 14.6656 11.51 14.75 11.4 14.75H7.6V17.75C7.6 18.9922 8.675 20 10 20C11.325 20 12.4 18.9922 12.4 17.75H15.6C15.6 18.9922 16.675 20 18 20C19.325 20 20.4 18.9922 20.4 17.75H21.6C21.82 17.75 22 17.5813 22 17.375V16.625C22 16.4187 21.82 16.25 21.6 16.25ZM10 18.875C9.3375 18.875 8.8 18.3711 8.8 17.75C8.8 17.1289 9.3375 16.625 10 16.625C10.6625 16.625 11.2 17.1289 11.2 17.75C11.2 18.3711 10.6625 18.875 10 18.875ZM18 18.875C17.3375 18.875 16.8 18.3711 16.8 17.75C16.8 17.1289 17.3375 16.625 18 16.625C18.6625 16.625 19.2 17.1289 19.2 17.75C19.2 18.3711 18.6625 18.875 18 18.875ZM20 14H16.4V11.375H17.5025L20 13.7164V14Z" fill="white"/>
</g>
<defs>
<clipPath id="clip0_1301_1501">
<rect width="16" height="12" fill="white" transform="translate(6 8)"/>
</clipPath>
</defs>
</svg>
